<svg width="466" height="28" viewBox="0 0 466 28" fill="none" xmlns="http://www.w3.org/2000/svg">
<path d="M41.72 -1.90735e-06H31.28V11.08H10.64V-1.90735e-06H0.2V28H10.64V16.76H31.28V28H41.72V-1.90735e-06ZM65.5297 5.68H69.1297L73.3697 15.32H61.2897L65.5297 5.68ZM77.5297 -1.90735e-06H49.7297V5.68H54.6897L44.9297 28H55.7697L58.8097 21H75.8497L78.8897 28H89.6897L77.5297 -1.90735e-06ZM132.415 -1.90735e-06V22.32H123.095V-1.90735e-06H112.655V22.32H103.335V-1.90735e-06H92.8953V28H142.855V-1.90735e-06H132.415ZM180.383 -1.90735e-06V5.6L159.703 15.6V-1.90735e-06H149.263V28H159.703V23.08L180.383 13.08V28H190.823V-1.90735e-06H180.383ZM255.856 22L246.416 14.2L262.536 9.84V-1.90735e-06H252.096V5.48L231.656 11V-1.90735e-06H221.216V28H231.656V18.16L236.496 16.84L249.656 28H262.776V22H255.856ZM282.093 19.2H285.973L283.773 22.32H276.573V28H291.533L311.493 -1.90735e-06H299.573L289.933 13.52L277.893 -1.90735e-06H264.373V5.68H270.053L282.093 19.2ZM345.422 9.96L324.742 13.44V5.68H345.422V9.96ZM314.302 -1.90735e-06V28H324.742V19.72L355.862 14.48V-1.90735e-06H314.302ZM392.179 19.12V22.32H371.499V5.68H392.179V8.88L402.619 10.32V-1.90735e-06H361.059V28H402.619V17.68L392.179 19.12ZM465.048 28V-1.90735e-06H454.608V28H465.048ZM439.328 22.32H418.648V15.28L439.328 18.76V22.32ZM418.648 9V-1.90735e-06H408.208V28H449.768V14.24L418.648 9Z" fill="#E3E3E3"/>
</svg>
