<svg width="1280" height="77" viewBox="0 0 1280 77" fill="none" xmlns="http://www.w3.org/2000/svg">
<path d="M114.98 -5.24521e-06H86.27V30.47H29.51V-5.24521e-06H0.800001V77H29.51V46.09H86.27V77H114.98V-5.24521e-06ZM180.457 15.62H190.357L202.017 42.13H168.797L180.457 15.62ZM213.457 -5.24521e-06H137.007V15.62H150.647L123.807 77H153.617L161.977 57.75H208.837L217.197 77H246.897L213.457 -5.24521e-06ZM364.392 -5.24521e-06V61.38H338.762V-5.24521e-06H310.052V61.38H284.422V-5.24521e-06H255.712V77H393.102V-5.24521e-06H364.392ZM496.302 -5.24521e-06V15.4L439.432 42.9V-5.24521e-06H410.722V77H439.432V63.47L496.302 35.97V77H525.012V-5.24521e-06H496.302ZM703.853 60.5L677.893 39.05L722.223 27.06V-5.24521e-06H693.513V15.07L637.303 30.25V-5.24521e-06H608.593V77H637.303V49.94L650.613 46.31L686.803 77H722.883V60.5H703.853ZM776.007 52.8H786.677L780.627 61.38H760.827V77H801.967L856.857 -5.24521e-06H824.077L797.567 37.18L764.457 -5.24521e-06H727.277V15.62H742.897L776.007 52.8ZM950.159 27.39L893.289 36.96V15.62H950.159V27.39ZM864.579 -5.24521e-06V77H893.289V54.23L978.869 39.82V-5.24521e-06H864.579ZM1078.74 52.58V61.38H1021.87V15.62H1078.74V24.42L1107.45 28.38V-5.24521e-06H993.163V77H1107.45V48.62L1078.74 52.58ZM1279.13 77V-5.24521e-06H1250.42V77H1279.13ZM1208.4 61.38H1151.53V42.02L1208.4 51.59V61.38ZM1151.53 24.75V-5.24521e-06H1122.82V77H1237.11V39.16L1151.53 24.75Z" fill="#191919"/>
</svg>
