<svg width="67" height="47" viewBox="0 0 67 47" fill="none" xmlns="http://www.w3.org/2000/svg">
<path d="M11.568 17.904L12.5436 18.1235L12.5447 18.1184L11.568 17.904ZM13.232 13.488L14.0868 14.007L14.0908 14.0004L14.0947 13.9937L13.232 13.488ZM15.792 10.672L16.3383 11.5097L16.3467 11.504L15.792 10.672ZM22.512 10.672L21.9409 11.4929L21.9611 11.507L21.982 11.52L22.512 10.672ZM25.136 13.488L24.2733 13.9937L24.2772 14.0004L24.2812 14.007L25.136 13.488ZM26.8 17.904L25.8232 18.1184L25.8244 18.1235L26.8 17.904ZM26.8 29.36L27.7756 29.5795L27.7767 29.5744L26.8 29.36ZM25.136 33.776L25.9908 34.295L25.9948 34.2884L25.9987 34.2817L25.136 33.776ZM22.512 36.592L23.0583 37.4297L23.0667 37.424L22.512 36.592ZM15.792 36.592L15.2209 37.4129L15.2411 37.427L15.262 37.44L15.792 36.592ZM13.232 33.776L12.3693 34.2817L12.3732 34.2884L12.3772 34.295L13.232 33.776ZM11.568 29.36L10.5912 29.5744L10.5924 29.5795L11.568 29.36ZM2.864 36.08L1.95014 36.4862L1.9544 36.4955L2.864 36.08ZM9.456 44.08L8.90127 44.9121L8.91012 44.9179L9.456 44.08ZM29.104 44.08L29.6558 44.9141L29.6646 44.9081L29.104 44.08ZM35.504 36.08L34.5901 35.6738L34.586 35.6833L35.504 36.08ZM35.504 11.12L34.586 11.5167L34.5902 11.5261L35.504 11.12ZM29.104 3.184L28.5434 4.01215L28.5523 4.01802L29.104 3.184ZM9.456 3.184L10.0019 4.02191L10.0107 4.01605L9.456 3.184ZM2.864 11.12L1.95436 10.7045L1.95019 10.7139L2.864 11.12ZM11.992 23.6C11.992 21.5693 12.1786 19.7458 12.5436 18.1235L10.5924 17.6845C10.1894 19.4756 9.992 21.4493 9.992 23.6H11.992ZM12.5447 18.1184C12.9114 16.4479 13.4321 15.0853 14.0868 14.007L12.3772 12.969C11.5812 14.28 10.9926 15.8615 10.5913 17.6896L12.5447 18.1184ZM14.0947 13.9937C14.759 12.8606 15.5126 12.0481 16.3383 11.5096L15.2457 9.83439C14.1088 10.5759 13.1557 11.6408 12.3693 12.9823L14.0947 13.9937ZM16.3467 11.504C17.2055 10.9315 18.143 10.648 19.184 10.648V8.648C17.7504 8.648 16.4265 9.04714 15.2373 9.83995L16.3467 11.504ZM19.184 10.648C20.2248 10.648 21.1334 10.9311 21.9409 11.4929L23.0831 9.85109C21.928 9.04756 20.6179 8.648 19.184 8.648V10.648ZM21.982 11.52C22.8456 12.0597 23.6143 12.8696 24.2733 13.9937L25.9987 12.9823C25.207 11.6317 24.2264 10.5643 23.042 9.824L21.982 11.52ZM24.2812 14.007C24.9359 15.0853 25.4566 16.4479 25.8233 18.1184L27.7767 17.6896C27.3754 15.8615 26.7868 14.28 25.9908 12.969L24.2812 14.007ZM25.8244 18.1235C26.1894 19.7458 26.376 21.5693 26.376 23.6H28.376C28.376 21.4493 28.1786 19.4756 27.7756 17.6845L25.8244 18.1235ZM26.376 23.6C26.376 25.6302 26.1895 27.4772 25.8233 29.1456L27.7767 29.5744C28.1785 27.7441 28.376 25.7511 28.376 23.6H26.376ZM25.8244 29.1405C25.4583 30.7678 24.9365 32.139 24.2733 33.2703L25.9987 34.2817C26.7862 32.9383 27.3738 31.3655 27.7756 29.5795L25.8244 29.1405ZM24.2812 33.257C23.6215 34.3436 22.8441 35.1688 21.9573 35.7599L23.0667 37.424C24.2279 36.6499 25.1998 35.5977 25.9908 34.295L24.2812 33.257ZM21.9657 35.7544C21.1562 36.2823 20.2388 36.552 19.184 36.552V38.552C20.6039 38.552 21.9051 38.1817 23.0583 37.4296L21.9657 35.7544ZM19.184 36.552C18.1292 36.552 17.183 36.2821 16.322 35.744L15.262 37.44C16.449 38.1819 17.7641 38.552 19.184 38.552V36.552ZM16.3631 35.7711C15.5141 35.1805 14.7518 34.3523 14.0868 33.257L12.3772 34.295C13.1629 35.589 14.1072 36.6382 15.2209 37.4129L16.3631 35.7711ZM14.0947 33.2703C13.4315 32.139 12.9098 30.7678 12.5436 29.1405L10.5924 29.5795C10.9942 31.3655 11.5818 32.9383 12.3693 34.2817L14.0947 33.2703ZM12.5447 29.1456C12.1785 27.4772 11.992 25.6302 11.992 23.6H9.992C9.992 25.7511 10.1895 27.7441 10.5913 29.5744L12.5447 29.1456ZM-0.44 23.6C-0.44 28.5655 0.343585 32.8713 1.95019 36.4861L3.77781 35.6739C2.31242 32.3767 1.56 28.3625 1.56 23.6H-0.44ZM1.9544 36.4955C3.6006 40.0993 5.91216 42.9193 8.9013 44.912L10.0107 43.2479C7.36784 41.486 5.28474 38.9727 3.7736 35.6645L1.9544 36.4955ZM8.91012 44.9179C11.9034 46.868 15.3394 47.832 19.184 47.832V45.832C15.69 45.832 12.6406 44.9613 10.0019 43.2421L8.91012 44.9179ZM19.184 47.832C23.1891 47.832 26.6946 46.8729 29.6557 44.914L28.5523 43.246C25.9668 44.9564 22.859 45.832 19.184 45.832V47.832ZM29.6646 44.9081C32.6148 42.9111 34.8627 40.0852 36.422 36.4767L34.586 35.6833C33.1586 38.9868 31.1399 41.4943 28.5434 43.2519L29.6646 44.9081ZM36.4178 36.4861C38.0244 32.8713 38.808 28.5655 38.808 23.6H36.808C36.808 28.3625 36.0556 32.3767 34.5902 35.6739L36.4178 36.4861ZM38.808 23.6C38.808 18.6345 38.0244 14.3287 36.4178 10.7139L34.5902 11.5261C36.0556 14.8233 36.808 18.8375 36.808 23.6H38.808ZM36.422 10.7233C34.8621 7.11338 32.6118 4.3055 29.6557 2.34998L28.5523 4.01802C31.1429 5.73182 33.1592 8.21462 34.586 11.5167L36.422 10.7233ZM29.6646 2.35589C26.7024 0.350723 23.1936 -0.632004 19.184 -0.632004V1.368C22.8544 1.368 25.9589 2.2626 28.5434 4.01211L29.6646 2.35589ZM19.184 -0.632004C15.3346 -0.632004 11.8955 0.355843 8.9013 2.35195L10.0107 4.01605C12.6485 2.25748 15.6947 1.368 19.184 1.368V-0.632004ZM8.91012 2.34613C5.91526 4.29733 3.60126 7.09922 1.9544 10.7045L3.7736 11.5355C5.28407 8.22878 7.36474 5.74 10.0019 4.02186L8.91012 2.34613ZM1.95019 10.7139C0.343585 14.3287 -0.44 18.6345 -0.44 23.6H1.56C1.56 18.8375 2.31242 14.8233 3.77781 11.5261L1.95019 10.7139ZM44.727 14.128H43.727V15.407L44.9682 15.0985L44.727 14.128ZM55.799 11.376H56.799V10.097L55.5578 10.4055L55.799 11.376ZM55.799 46H54.799V47H55.799V46ZM66.231 46V47H67.231V46H66.231ZM66.231 0.367996H67.231V-0.854658L66.0326 -0.612133L66.231 0.367996ZM44.727 4.72L44.5286 3.73987L43.727 3.90211V4.72H44.727ZM44.9682 15.0985L56.0402 12.3465L55.5578 10.4055L44.4858 13.1575L44.9682 15.0985ZM54.799 11.376V46H56.799V11.376H54.799ZM55.799 47H66.231V45H55.799V47ZM67.231 46V0.367996H65.231V46H67.231ZM66.0326 -0.612133L44.5286 3.73987L44.9254 5.70013L66.4294 1.34813L66.0326 -0.612133ZM43.727 4.72V14.128H45.727V4.72H43.727Z" fill="#FCD702"/>
</svg>
