<svg width="79" height="48" viewBox="0 0 79 48" fill="none" xmlns="http://www.w3.org/2000/svg">
<path d="M11.568 17.904L12.5436 18.1235L12.5447 18.1184L11.568 17.904ZM13.232 13.488L14.0868 14.007L14.0908 14.0004L14.0947 13.9937L13.232 13.488ZM15.792 10.672L16.3383 11.5097L16.3467 11.504L15.792 10.672ZM22.512 10.672L21.9409 11.4929L21.9611 11.507L21.982 11.52L22.512 10.672ZM25.136 13.488L24.2733 13.9937L24.2772 14.0004L24.2812 14.007L25.136 13.488ZM26.8 17.904L25.8232 18.1184L25.8244 18.1235L26.8 17.904ZM26.8 29.36L27.7756 29.5795L27.7767 29.5744L26.8 29.36ZM25.136 33.776L25.9908 34.295L25.9948 34.2884L25.9987 34.2817L25.136 33.776ZM22.512 36.592L23.0583 37.4297L23.0667 37.424L22.512 36.592ZM15.792 36.592L15.2209 37.4129L15.2411 37.427L15.262 37.44L15.792 36.592ZM13.232 33.776L12.3693 34.2817L12.3732 34.2884L12.3772 34.295L13.232 33.776ZM11.568 29.36L10.5912 29.5744L10.5924 29.5795L11.568 29.36ZM2.864 36.08L1.95014 36.4862L1.9544 36.4955L2.864 36.08ZM9.456 44.08L8.90127 44.9121L8.91012 44.9179L9.456 44.08ZM29.104 44.08L29.6558 44.9141L29.6646 44.9081L29.104 44.08ZM35.504 36.08L34.5901 35.6738L34.586 35.6833L35.504 36.08ZM35.504 11.12L34.586 11.5167L34.5902 11.5261L35.504 11.12ZM29.104 3.184L28.5434 4.01215L28.5523 4.01802L29.104 3.184ZM9.456 3.184L10.0019 4.02191L10.0107 4.01605L9.456 3.184ZM2.864 11.12L1.95436 10.7045L1.95019 10.7139L2.864 11.12ZM11.992 23.6C11.992 21.5693 12.1786 19.7458 12.5436 18.1235L10.5924 17.6845C10.1894 19.4756 9.992 21.4493 9.992 23.6H11.992ZM12.5447 18.1184C12.9114 16.4479 13.4321 15.0853 14.0868 14.007L12.3772 12.969C11.5812 14.28 10.9926 15.8615 10.5913 17.6896L12.5447 18.1184ZM14.0947 13.9937C14.759 12.8606 15.5126 12.0481 16.3383 11.5096L15.2457 9.83439C14.1088 10.5759 13.1557 11.6408 12.3693 12.9823L14.0947 13.9937ZM16.3467 11.504C17.2055 10.9315 18.143 10.648 19.184 10.648V8.648C17.7504 8.648 16.4265 9.04714 15.2373 9.83995L16.3467 11.504ZM19.184 10.648C20.2248 10.648 21.1334 10.9311 21.9409 11.4929L23.0831 9.85109C21.928 9.04756 20.6179 8.648 19.184 8.648V10.648ZM21.982 11.52C22.8456 12.0597 23.6143 12.8696 24.2733 13.9937L25.9987 12.9823C25.207 11.6317 24.2264 10.5643 23.042 9.824L21.982 11.52ZM24.2812 14.007C24.9359 15.0853 25.4566 16.4479 25.8233 18.1184L27.7767 17.6896C27.3754 15.8615 26.7868 14.28 25.9908 12.969L24.2812 14.007ZM25.8244 18.1235C26.1894 19.7458 26.376 21.5693 26.376 23.6H28.376C28.376 21.4493 28.1786 19.4756 27.7756 17.6845L25.8244 18.1235ZM26.376 23.6C26.376 25.6302 26.1895 27.4772 25.8233 29.1456L27.7767 29.5744C28.1785 27.7441 28.376 25.7511 28.376 23.6H26.376ZM25.8244 29.1405C25.4583 30.7678 24.9365 32.139 24.2733 33.2703L25.9987 34.2817C26.7862 32.9383 27.3738 31.3655 27.7756 29.5795L25.8244 29.1405ZM24.2812 33.257C23.6215 34.3436 22.8441 35.1688 21.9573 35.7599L23.0667 37.424C24.2279 36.6499 25.1998 35.5977 25.9908 34.295L24.2812 33.257ZM21.9657 35.7544C21.1562 36.2823 20.2388 36.552 19.184 36.552V38.552C20.6039 38.552 21.9051 38.1817 23.0583 37.4296L21.9657 35.7544ZM19.184 36.552C18.1292 36.552 17.183 36.2821 16.322 35.744L15.262 37.44C16.449 38.1819 17.7641 38.552 19.184 38.552V36.552ZM16.3631 35.7711C15.5141 35.1805 14.7518 34.3523 14.0868 33.257L12.3772 34.295C13.1629 35.589 14.1072 36.6382 15.2209 37.4129L16.3631 35.7711ZM14.0947 33.2703C13.4315 32.139 12.9098 30.7678 12.5436 29.1405L10.5924 29.5795C10.9942 31.3655 11.5818 32.9383 12.3693 34.2817L14.0947 33.2703ZM12.5447 29.1456C12.1785 27.4772 11.992 25.6302 11.992 23.6H9.992C9.992 25.7511 10.1895 27.7441 10.5913 29.5744L12.5447 29.1456ZM-0.44 23.6C-0.44 28.5655 0.343585 32.8713 1.95019 36.4861L3.77781 35.6739C2.31242 32.3767 1.56 28.3625 1.56 23.6H-0.44ZM1.9544 36.4955C3.6006 40.0993 5.91216 42.9193 8.9013 44.912L10.0107 43.2479C7.36784 41.486 5.28474 38.9727 3.7736 35.6645L1.9544 36.4955ZM8.91012 44.9179C11.9034 46.868 15.3394 47.832 19.184 47.832V45.832C15.69 45.832 12.6406 44.9613 10.0019 43.2421L8.91012 44.9179ZM19.184 47.832C23.1891 47.832 26.6946 46.8729 29.6557 44.914L28.5523 43.246C25.9668 44.9564 22.859 45.832 19.184 45.832V47.832ZM29.6646 44.9081C32.6148 42.9111 34.8627 40.0852 36.422 36.4767L34.586 35.6833C33.1586 38.9868 31.1399 41.4943 28.5434 43.2519L29.6646 44.9081ZM36.4178 36.4861C38.0244 32.8713 38.808 28.5655 38.808 23.6H36.808C36.808 28.3625 36.0556 32.3767 34.5902 35.6739L36.4178 36.4861ZM38.808 23.6C38.808 18.6345 38.0244 14.3287 36.4178 10.7139L34.5902 11.5261C36.0556 14.8233 36.808 18.8375 36.808 23.6H38.808ZM36.422 10.7233C34.8621 7.11338 32.6118 4.3055 29.6557 2.34998L28.5523 4.01802C31.1429 5.73182 33.1592 8.21462 34.586 11.5167L36.422 10.7233ZM29.6646 2.35589C26.7024 0.350723 23.1936 -0.632004 19.184 -0.632004V1.368C22.8544 1.368 25.9589 2.2626 28.5434 4.01211L29.6646 2.35589ZM19.184 -0.632004C15.3346 -0.632004 11.8955 0.355843 8.9013 2.35195L10.0107 4.01605C12.6485 2.25748 15.6947 1.368 19.184 1.368V-0.632004ZM8.91012 2.34613C5.91526 4.29733 3.60126 7.09922 1.9544 10.7045L3.7736 11.5355C5.28407 8.22878 7.36474 5.74 10.0019 4.02186L8.91012 2.34613ZM1.95019 10.7139C0.343585 14.3287 -0.44 18.6345 -0.44 23.6H1.56C1.56 18.8375 2.31242 14.8233 3.77781 11.5261L1.95019 10.7139ZM57.975 24.304H56.975V25.304H57.975V24.304ZM67.575 23.024L67.289 22.0658L67.575 23.024ZM74.359 19.184L73.6518 18.4768L73.643 18.4859L74.359 19.184ZM75.063 6.512L74.2193 7.04887L74.2236 7.05563L74.228 7.06231L75.063 6.512ZM69.751 2.032L70.1784 1.12793L69.751 2.032ZM52.855 2.224L53.3022 3.11843L53.3086 3.11526L53.3149 3.11199L52.855 2.224ZM47.287 7.216L46.4371 6.68905L46.4342 6.69385L47.287 7.216ZM45.367 14.32H44.367V15.32H45.367V14.32ZM55.287 14.32V15.32H56.287V14.32H55.287ZM56.951 10.48L56.2884 9.731L56.951 10.48ZM63.991 9.584L63.5231 10.4678L63.5439 10.4788L63.5652 10.4888L63.991 9.584ZM65.655 11.12L64.7834 11.6103L65.655 11.12ZM63.927 17.648L63.3415 16.8373L63.3304 16.8453L63.3195 16.8536L63.927 17.648ZM61.303 18.992L61.5942 19.9487L61.6067 19.9448L61.6192 19.9407L61.303 18.992ZM57.975 19.44V18.44H56.975V19.44H57.975ZM70.071 45.36L70.4631 46.28L70.4757 46.2744L70.071 45.36ZM76.087 40.688L76.8996 41.2709L76.9054 41.2626L76.087 40.688ZM76.727 27.952L75.8715 28.4698L76.727 27.952ZM72.503 23.984L72.0004 24.8485L72.008 24.8529L72.0156 24.8572L72.503 23.984ZM66.039 21.68L65.833 22.6585L65.8428 22.6606L65.8527 22.6625L66.039 21.68ZM57.975 20.912V19.912H56.975V20.912H57.975ZM57.975 26.416H56.975V27.416H57.975V26.416ZM65.143 28.208L64.5291 28.9973L64.5531 29.0161L64.5783 29.0333L65.143 28.208ZM66.935 30.192L66.0406 30.6392L66.935 30.192ZM66.679 35.888L65.8406 35.343H65.8406L66.679 35.888ZM64.375 37.744L64.0106 36.8128L64.0035 36.8156L63.9964 36.8185L64.375 37.744ZM57.591 37.616L57.1883 38.5313L57.1948 38.5342L57.2014 38.537L57.591 37.616ZM54.071 31.792H55.071V30.792H54.071V31.792ZM43.447 31.792V30.792H42.447V31.792H43.447ZM44.599 37.488L43.6766 37.8741L43.6803 37.8832L43.6843 37.8922L44.599 37.488ZM47.991 42.416L47.2839 43.1231L47.289 43.1282L47.2942 43.1333L47.991 42.416ZM53.431 45.808L53.0758 46.7428L53.431 45.808ZM57.975 25.304C61.5956 25.304 64.8941 24.8679 67.861 23.9822L67.289 22.0658C64.5386 22.8868 61.437 23.304 57.975 23.304V25.304ZM67.861 23.9822C70.8424 23.0923 73.2658 21.7377 75.075 19.8821L73.643 18.4859C72.1242 20.0437 70.0249 21.2491 67.289 22.0658L67.861 23.9822ZM75.0661 19.8911C76.9726 17.9846 77.919 15.5914 77.919 12.784H75.919C75.919 15.0966 75.1588 16.97 73.6519 18.4769L75.0661 19.8911ZM77.919 12.784C77.919 10.2895 77.2457 8.00659 75.898 5.96169L74.228 7.06231C75.3549 8.77207 75.919 10.6705 75.919 12.784H77.919ZM75.9067 5.97512C74.5948 3.91357 72.6668 2.30425 70.1784 1.12793L69.3236 2.93607C71.5286 3.97841 73.1419 5.35576 74.2193 7.04887L75.9067 5.97512ZM70.1784 1.12793C67.6644 -0.0604897 64.6511 -0.632004 61.175 -0.632004V1.368C64.4403 1.368 67.1442 1.90582 69.3236 2.93607L70.1784 1.12793ZM61.175 -0.632004C57.8854 -0.632004 54.9493 0.0133018 52.3951 1.336L53.3149 3.11199C55.5393 1.96003 58.15 1.368 61.175 1.368V-0.632004ZM52.4078 1.32957C49.8639 2.60153 47.8637 4.38808 46.4371 6.68906L48.1369 7.74294C49.3556 5.77726 51.0675 4.23581 53.3022 3.11843L52.4078 1.32957ZM46.4342 6.69385C45.0503 8.95411 44.367 11.5055 44.367 14.32H46.367C46.367 11.8438 46.9637 9.65922 48.1399 7.73815L46.4342 6.69385ZM45.367 15.32H55.287V13.32H45.367V15.32ZM56.287 14.32C56.287 13.0065 56.7343 12.0068 57.6136 11.229L56.2884 9.731C54.949 10.9158 54.287 12.4762 54.287 14.32H56.287ZM57.6136 11.229C58.5125 10.4338 59.6729 10.008 61.175 10.008V8.008C59.2638 8.008 57.6082 8.56352 56.2884 9.731L57.6136 11.229ZM61.175 10.008C62.226 10.008 62.9883 10.1846 63.5231 10.4678L64.4589 8.70021C63.5431 8.21535 62.428 8.008 61.175 8.008V10.008ZM63.5652 10.4888C64.1072 10.7439 64.5039 11.1132 64.7834 11.6103L66.5266 10.6297C66.0381 9.76142 65.3255 9.10679 64.4168 8.67918L63.5652 10.4888ZM64.7834 11.6103C65.0758 12.1301 65.231 12.7266 65.231 13.424H67.231C67.231 12.4147 67.0022 11.4753 66.5266 10.6297L64.7834 11.6103ZM65.231 13.424C65.231 14.0695 65.0799 14.6771 64.7712 15.2601L66.5388 16.1959C66.9981 15.3283 67.231 14.3999 67.231 13.424H65.231ZM64.7712 15.2601C64.4693 15.8303 64.0043 16.3586 63.3415 16.8373L64.5125 18.4587C65.3857 17.828 66.0727 17.0764 66.5388 16.1959L64.7712 15.2601ZM63.3195 16.8536C62.6964 17.3301 61.9245 17.7308 60.9868 18.0433L61.6192 19.9407C62.7295 19.5706 63.7069 19.0752 64.5345 18.4424L63.3195 16.8536ZM61.0118 18.0353C60.142 18.3001 59.1333 18.44 57.975 18.44V20.44C59.2914 20.44 60.5013 20.2813 61.5942 19.9487L61.0118 18.0353ZM56.975 19.44V24.304H58.975V19.44H56.975ZM60.663 48.024C64.4289 48.024 67.7056 47.4553 70.4631 46.2799L69.6789 44.4401C67.2311 45.4834 64.2358 46.024 60.663 46.024V48.024ZM70.4757 46.2744C73.2122 45.0632 75.3704 43.4025 76.8995 41.2709L75.2745 40.1051C73.9876 41.8989 72.1352 43.3528 69.6663 44.4456L70.4757 46.2744ZM76.9054 41.2626C78.4391 39.0782 79.199 36.5708 79.199 33.776H77.199C77.199 36.1865 76.5509 38.2871 75.2686 40.1134L76.9054 41.2626ZM79.199 33.776C79.199 31.3676 78.6752 29.2395 77.5825 27.4342L75.8715 28.4698C76.7415 29.9071 77.199 31.6617 77.199 33.776H79.199ZM77.5825 27.4342C76.5019 25.6488 74.9596 24.2099 72.9904 23.1108L72.0156 24.8572C73.7157 25.8061 74.9895 27.0125 75.8715 28.4698L77.5825 27.4342ZM73.0056 23.1195C71.0566 21.9863 68.7911 21.1841 66.2253 20.6975L65.8527 22.6625C68.2363 23.1145 70.2801 23.8483 72.0004 24.8485L73.0056 23.1195ZM66.245 20.7015C63.7342 20.1729 60.9759 19.912 57.975 19.912V21.912C60.8621 21.912 63.4798 22.1631 65.833 22.6585L66.245 20.7015ZM56.975 20.912V26.416H58.975V20.912H56.975ZM57.975 27.416C59.5387 27.416 60.8615 27.5604 61.9565 27.8341L62.4415 25.8939C61.1471 25.5703 59.654 25.416 57.975 25.416V27.416ZM61.9565 27.8341C63.0507 28.1077 63.896 28.505 64.5291 28.9973L65.7569 27.4186C64.854 26.7164 63.7366 26.2176 62.4415 25.8939L61.9565 27.8341ZM64.5783 29.0333C65.2692 29.506 65.7429 30.0439 66.0406 30.6392L67.8294 29.7448C67.3591 28.8041 66.6382 28.0193 65.7077 27.3827L64.5783 29.0333ZM66.0406 30.6392C66.3489 31.2558 66.511 31.9539 66.511 32.752H68.511C68.511 31.6728 68.2892 30.6642 67.8294 29.7448L66.0406 30.6392ZM66.511 32.752C66.511 33.8379 66.269 34.6839 65.8406 35.343L67.5174 36.433C68.1983 35.3854 68.511 34.1407 68.511 32.752H66.511ZM65.8406 35.343C65.4039 36.0148 64.8048 36.502 64.0106 36.8128L64.7394 38.6752C65.9079 38.218 66.8447 37.4679 67.5174 36.433L65.8406 35.343ZM63.9964 36.8185C63.2049 37.1422 62.2299 37.32 61.047 37.32V39.32C62.4241 39.32 63.6678 39.1138 64.7536 38.6695L63.9964 36.8185ZM61.047 37.32C59.9873 37.32 58.9677 37.1127 57.9806 36.695L57.2014 38.537C58.4329 39.058 59.7173 39.32 61.047 39.32V37.32ZM57.9937 36.7007C57.1058 36.31 56.4032 35.7134 55.8686 34.8937L54.1934 35.9863C54.9388 37.1293 55.9429 37.9833 57.1883 38.5313L57.9937 36.7007ZM55.8686 34.8937C55.3573 34.1098 55.071 33.095 55.071 31.792H53.071C53.071 33.3903 53.4247 34.8076 54.1934 35.9863L55.8686 34.8937ZM54.071 30.792H43.447V32.792H54.071V30.792ZM42.447 31.792C42.447 33.8891 42.8581 35.9189 43.6766 37.8741L45.5214 37.1019C44.8039 35.3878 44.447 33.6203 44.447 31.792H42.447ZM43.6843 37.8922C44.546 39.8424 45.748 41.5872 47.2839 43.1231L48.6981 41.7089C47.3327 40.3435 46.2733 38.803 45.5137 37.0838L43.6843 37.8922ZM47.2942 43.1333C48.8944 44.6878 50.8273 45.8884 53.0758 46.7428L53.7862 44.8732C51.768 44.1063 50.0742 43.0456 48.6878 41.6987L47.2942 43.1333ZM53.0758 46.7428C55.3408 47.6035 57.8748 48.024 60.663 48.024V46.024C58.0752 46.024 55.7879 45.6338 53.7862 44.8732L53.0758 46.7428Z" fill="#FCD702"/>
</svg>
