<svg width="479" height="30" viewBox="0 0 479 30" fill="none" xmlns="http://www.w3.org/2000/svg">
<path d="M42.26 2H0.7V30H11.14V7.68H31.82V30H42.26V2ZM79.7888 24.32H59.1088V7.68H79.7888V24.32ZM90.2288 2H48.6688V30H90.2288V2ZM136.718 2H126.278V15.92L105.878 12.48V2H95.4375V17L126.278 22.2V30H136.718V2ZM174.242 7.68V11.28L153.562 14.76V7.68H174.242ZM153.562 21.04L184.682 15.8V2H143.122V30H184.682V21.08L174.242 22.16V24.32H153.562V21.04ZM221.691 30V13.4L231.411 10.64V30H241.851V0.879998L216.491 8.36L191.091 0.879998V30H201.531V10.64L211.251 13.4V30H221.691ZM262.359 21.2H266.239L264.039 24.32H256.839V30H271.799L291.759 2H279.839L270.199 15.52L258.159 2H244.639V7.68H250.319L262.359 21.2ZM349.152 30V13.4L358.872 10.64V30H369.312V0.879998L343.952 8.36L318.552 0.879998V30H328.992V10.64L338.712 13.4V30H349.152ZM432.54 30V2H422.1V30H432.54ZM406.82 24.32H386.14V17.28L406.82 20.76V24.32ZM386.14 11V2H375.7V30H417.26V16.24L386.14 11ZM462.422 30V24.32H451.982V30H462.422ZM451.982 14.96V21.92H462.422V19.44L478.422 16.76V2H436.542V12.36L446.982 10.76V7.68H467.982V12.24L451.982 14.96Z" fill="#E3E3E3"/>
</svg>
