<svg width="1315" height="81" viewBox="0 0 1315 81" fill="none" xmlns="http://www.w3.org/2000/svg">
<path d="M114.59 3.99999H0.300001V81H29.01V19.62H85.88V81H114.59V3.99999ZM217.794 65.38H160.924V19.62H217.794V65.38ZM246.504 3.99999H132.214V81H246.504V3.99999ZM374.348 3.99999H345.638V42.28L289.538 32.82V3.99999H260.828V45.25L345.638 59.55V81H374.348V3.99999ZM477.54 19.62V29.52L420.67 39.09V19.62H477.54ZM420.67 56.36L506.25 41.95V3.99999H391.96V81H506.25V56.47L477.54 59.44V65.38H420.67V56.36ZM608.024 81V35.35L634.754 27.76V81H663.464V0.919995L593.724 21.49L523.874 0.919995V81H552.584V27.76L579.314 35.35V81H608.024ZM719.862 56.8H730.532L724.482 65.38H704.682V81H745.822L800.712 3.99999H767.932L741.422 41.18L708.312 3.99999H671.132V19.62H686.752L719.862 56.8ZM958.542 81V35.35L985.272 27.76V81H1013.98V0.919995L944.242 21.49L874.392 0.919995V81H903.102V27.76L929.832 35.35V81H958.542ZM1187.86 81V3.99999H1159.15V81H1187.86ZM1117.13 65.38H1060.26V46.02L1117.13 55.59V65.38ZM1060.26 28.75V3.99999H1031.55V81H1145.84V43.16L1060.26 28.75ZM1270.04 81V65.38H1241.33V81H1270.04ZM1241.33 39.64V58.78H1270.04V51.96L1314.04 44.59V3.99999H1198.87V32.49L1227.58 28.09V19.62H1285.33V32.16L1241.33 39.64Z" fill="#191919"/>
</svg>
