<svg width="20" height="20" viewBox="0 0 20 20" fill="none" xmlns="http://www.w3.org/2000/svg">
<path fill-rule="evenodd" clip-rule="evenodd" d="M15.7022 0.947985C17.4212 1.58525 18.7522 3.0842 19.2328 4.92419C19.4925 5.91809 19.4887 14.1058 19.2282 15.1031C18.7468 16.9463 17.509 18.3314 15.7022 19.0494C15.0061 19.3261 14.9313 19.3305 10.3685 19.3663C7.25362 19.3908 5.53181 19.3595 5.10177 19.2704C3.49927 18.9388 1.96043 17.7632 1.23436 16.3161C0.598069 15.0478 0.566889 14.7162 0.606187 9.63315C0.64019 5.24657 0.654426 4.98601 0.89433 4.35391C1.38332 3.06613 2.34729 1.95855 3.52328 1.33349C4.82081 0.644017 4.99941 0.625951 10.2311 0.657509C14.834 0.685313 15.0202 0.695286 15.7022 0.947985ZM2.8158 4.66691C3.31843 3.65494 4.28229 2.86916 5.34827 2.6025C5.5424 2.55393 7.73966 2.52342 10.2311 2.53469L14.7609 2.55522L15.3492 2.84569C16.0992 3.21606 16.8043 3.91902 17.1757 4.66691L17.467 5.25349V10.0048V14.7561L17.1757 15.3427C16.8043 16.0906 16.0992 16.7935 15.3492 17.1639L14.7609 17.4544H9.99575H5.23061L4.64232 17.1639C3.89225 16.7935 3.18725 16.0906 2.8158 15.3427L2.52448 14.7561V10.0048V5.25349L2.8158 4.66691Z" fill="#E3E3E3"/>
<path d="M15.6404 4.19577C15.7076 4.2373 15.8469 4.43357 15.9497 4.63195C16.3037 5.31461 15.8751 6.17466 15.1094 6.3179C14.3311 6.46349 13.5771 5.70927 13.7259 4.93369C13.8002 4.54584 14.2732 4.05065 14.6229 3.99469C14.8827 3.95304 15.4181 4.05886 15.6404 4.19577Z" fill="#E3E3E3"/>
<path fill-rule="evenodd" clip-rule="evenodd" d="M12.0171 5.62902C13.1076 6.13818 13.791 6.80406 14.3214 7.87434C14.7454 8.72958 14.7609 8.80466 14.7609 10.0048C14.7609 11.205 14.7454 11.28 14.3214 12.1353C13.7922 13.2031 13.111 13.8681 12.0171 14.3848C11.29 14.7283 11.1387 14.7561 9.99575 14.7561C8.85282 14.7561 8.70151 14.7283 7.97439 14.3848C6.88052 13.8681 6.19929 13.2031 5.67006 12.1353C5.24649 11.2809 5.23061 11.204 5.23061 10.0109C5.23061 8.8666 5.25849 8.71421 5.59982 7.996C6.22211 6.68651 7.10113 5.90565 8.5235 5.3992C8.9653 5.24188 9.3791 5.19824 10.1722 5.22557C11.0664 5.25643 11.3534 5.31919 12.0171 5.62902ZM7.19738 9.02122C7.37445 8.42361 8.35936 7.40672 8.93683 7.22523C10.1066 6.85768 11.225 7.11648 12.0588 7.94778C12.6954 8.58258 12.9372 9.14886 12.9372 10.0048C12.9372 10.8607 12.6954 11.427 12.0588 12.0618C11.4221 12.6966 10.8542 12.9377 9.99575 12.9377C9.13732 12.9377 8.56938 12.6966 7.93274 12.0618C7.09337 11.2249 6.84664 10.2048 7.19738 9.02122Z" fill="#E3E3E3"/>
</svg>
