<svg width="20" height="20" viewBox="0 0 20 20" fill="none" xmlns="http://www.w3.org/2000/svg">
<path fill-rule="evenodd" clip-rule="evenodd" d="M12.467 0.975724C16.5389 2.12201 19.2961 5.74434 19.2961 9.94743C19.2961 14.1407 16.6354 17.6471 12.526 18.8696C11.6272 19.137 11.2535 19.1834 10 19.1834C8.7501 19.1834 8.37184 19.1366 7.48514 18.8728C6.91115 18.702 6.31069 18.4939 6.15074 18.4104C5.89617 18.2775 5.55357 18.3319 3.3985 18.8476C1.47893 19.3069 0.905764 19.4055 0.79525 19.2953C0.684619 19.1851 0.764885 18.6055 1.15963 16.6622L1.66571 14.1703L1.41078 13.5838C0.738404 12.0372 0.511964 9.68854 0.871986 7.99574C1.65617 4.30784 4.69288 1.44236 8.5678 0.733727C9.4492 0.572553 11.4835 0.698771 12.467 0.975724ZM4.60544 5.02797C5.65926 3.88179 6.98036 3.12789 8.52884 2.78911C12.0463 2.01961 15.8132 4.20391 16.9538 7.67456C17.329 8.81639 17.3596 10.993 17.0145 12.0002C15.8932 15.2732 13.3191 17.1706 10 17.1706C8.76682 17.1706 7.91813 16.988 6.79452 16.4806L6.05729 16.1477L4.70383 16.4732C3.95942 16.6523 3.31847 16.8012 3.27939 16.8043C3.24043 16.8072 3.34059 16.1502 3.50207 15.3441L3.79559 13.8784L3.38096 12.9687C2.87147 11.851 2.70305 11.0891 2.70305 9.9018C2.70305 8.07023 3.36307 6.3793 4.60544 5.02797Z" fill="#E3E3E3"/>
<path d="M7.31767 5.57788C7.52586 5.74082 8.3523 7.56371 8.3523 7.8599C8.3523 7.9636 8.22919 8.21181 8.07878 8.41146C7.48008 9.20608 7.56529 9.44807 8.88192 10.6947C9.90455 11.6628 10.7435 12.2348 11.1408 12.2348C11.2898 12.2348 11.624 12.0435 11.8837 11.8099C12.4113 11.3347 12.4309 11.3343 13.9054 11.7721C15.2351 12.1667 15.3404 12.666 14.3105 13.6927C13.3045 14.6954 11.9014 14.7162 9.99388 13.7566C8.74881 13.1303 7.03473 11.586 6.21347 10.3505C5.6948 9.5703 5.29229 8.43809 5.29229 7.75937C5.29229 7.11456 5.66161 6.37097 6.24101 5.84932C6.73144 5.40768 7.01049 5.33741 7.31767 5.57788Z" fill="#E3E3E3"/>
</svg>
