<svg width="20" height="12" viewBox="0 0 20 12" fill="none" xmlns="http://www.w3.org/2000/svg">
<path d="M11.3106 1.0801C11.5507 1.27349 11.5573 1.32442 11.6081 3.39408C11.6623 5.59936 11.7162 5.85176 12.1325 5.85176C12.5865 5.85176 13.83 4.07727 14.5764 2.36417C14.794 1.86468 14.9133 1.57475 15.1283 1.40916C15.4353 1.17274 15.9376 1.18982 17.1999 1.21241C18.8025 1.24098 19.0245 1.26603 19.1462 1.43199C19.4285 1.81681 19.0485 2.65281 17.8849 4.20668C16.4895 6.07021 16.2878 6.3867 16.2878 6.71303C16.2878 6.96709 16.4901 7.22788 17.4185 8.17124C18.8511 9.62696 19.1997 10.1073 19.1997 10.626C19.1997 10.9105 19.1434 11.0509 18.9986 11.1281C18.8837 11.1893 18.0778 11.2353 17.1215 11.2353C15.7848 11.2353 15.3782 11.2014 15.1127 11.068C14.9297 10.976 14.3035 10.4368 13.7214 9.86984C12.8259 8.99782 12.6183 8.84407 12.3745 8.87244C11.9815 8.9181 11.7275 9.38471 11.6223 10.2549C11.5125 11.1631 11.4117 11.2353 10.253 11.2353C8.36498 11.2353 6.78209 10.5755 5.41551 9.21906C4.09458 7.90786 2.42965 5.26972 1.20408 2.54586L0.764707 1.56948L0.998277 1.38116C1.19794 1.22027 1.43287 1.19294 2.61746 1.19294C3.37952 1.19294 4.12464 1.23891 4.27314 1.29523C4.48155 1.37401 4.67622 1.6727 5.12516 2.60229C5.82306 4.04735 6.79707 5.52761 7.20681 5.76584C7.84252 6.13533 8.07401 5.60071 8.0659 3.78118C8.05914 2.25785 7.9514 1.93235 7.36092 1.65013L6.90938 1.43437L7.23884 1.15836C7.56714 0.883285 7.57453 0.882354 9.31673 0.882354C10.8827 0.882354 11.0908 0.902956 11.3106 1.0801Z" fill="#E3E3E3"/>
</svg>
