<svg width="40" height="29" viewBox="0 0 40 29" fill="none" xmlns="http://www.w3.org/2000/svg">
<path d="M39.6519 3.6836L14.7046 28.6516C14.4836 28.8747 14.1828 29 13.8691 29C13.5553 29 13.2545 28.8747 13.0336 28.6516L0.348086 15.9556C0.125302 15.7346 0 15.4336 0 15.1194C0 14.8054 0.125302 14.5044 0.348086 14.2832L1.99555 12.6343C2.2165 12.4115 2.51728 12.286 2.83105 12.286C3.14482 12.286 3.4456 12.4115 3.66655 12.6343L13.8573 22.8336L36.3334 0.338818C36.799 -0.112939 37.5389 -0.112939 38.0044 0.338818L39.6519 2.01121C39.8748 2.23234 40 2.53337 40 2.84741C40 3.16144 39.8748 3.46245 39.6519 3.6836Z" fill="#FCD702"/>
</svg>
