<svg width="159" height="103" viewBox="0 0 159 103" fill="none" xmlns="http://www.w3.org/2000/svg">
<path d="M81.5989 10.052C81.1029 10.188 80.6934 10.6284 80.5869 11.1405C80.5533 11.3019 80.5335 12.0946 80.5335 13.2749V15.1526L80.4111 15.3185C80.2519 15.5344 79.9877 15.7088 79.5335 15.8979C79.172 16.0485 78.9266 16.1038 77.9178 16.262C77.1392 16.3842 75.8012 16.655 74.92 16.8688C73.9727 17.0987 73.6041 17.1392 73.1304 17.0655C72.7007 16.9987 72.4222 16.865 72.3263 16.6796C72.287 16.6036 71.9692 15.8463 71.62 14.9965C71.2707 14.1468 70.9408 13.3643 70.8869 13.2577C70.7502 12.9878 70.5247 12.7627 70.2402 12.6124C70.0366 12.5049 69.9362 12.4845 69.6105 12.4847L69.223 12.4848L66.7286 13.5251C65.2781 14.1301 64.1535 14.627 64.0413 14.7126C63.6458 15.0144 63.4227 15.6067 63.5251 16.0837C63.5517 16.2082 63.8911 17.0746 64.2791 18.0092C64.7267 19.0874 64.9845 19.7701 64.9845 19.8771C64.9845 20.3703 64.3561 21.042 63.2891 21.6893C62.3719 22.2459 61.3105 22.9536 60.44 23.5892C59.9917 23.9165 59.6043 24.1576 59.3626 24.2595C58.9908 24.4163 58.5025 24.5364 58.3844 24.5C58.3512 24.4899 58.2587 24.4671 58.1788 24.4495C58.0735 24.4263 57.6397 24.0264 56.6045 22.9985C55.2932 21.6965 55.1541 21.5726 54.9148 21.4944C54.5752 21.3833 54.097 21.4131 53.7951 21.5642C53.4968 21.7134 49.7342 25.4732 49.5747 25.7815C49.4119 26.0961 49.4109 26.729 49.5728 27.0411C49.6448 27.1799 50.1926 27.7698 51.08 28.6641C52.363 29.9571 52.4765 30.0851 52.5046 30.2698C52.5813 30.7745 52.289 31.4963 51.6615 32.3518C51.0765 33.1493 50.2351 34.4091 49.7075 35.2772C49.0889 36.295 48.4782 36.8866 47.9784 36.9521C47.7832 36.9777 47.6135 36.9177 46.0505 36.2702C45.1079 35.8796 44.2251 35.5371 44.0887 35.5089C43.6117 35.4103 43.0251 35.6326 42.7254 36.0255C42.5614 36.2407 40.5844 41.009 40.5141 41.3591C40.4181 41.8371 40.6369 42.4164 41.0254 42.7128C41.121 42.7857 41.968 43.1663 42.9075 43.5586C43.8471 43.9508 44.6648 44.2981 44.7247 44.3302C44.9806 44.4676 45.1586 45.1462 45.1086 45.7941C45.0928 45.9996 45.0041 46.4698 44.9115 46.839C44.6833 47.749 44.4283 49.0213 44.2574 50.1023C44.0585 51.3606 43.7848 52.0507 43.3485 52.3943C43.2158 52.4987 43.1813 52.5008 41.1779 52.5246C39.205 52.5481 39.135 52.5522 38.9098 52.6562C38.4516 52.8677 38.1736 53.1905 38.0699 53.6311C37.9767 54.0272 37.9767 58.9675 38.0699 59.3636C38.1736 59.8043 38.4516 60.127 38.9098 60.3385C39.135 60.4426 39.205 60.4466 41.1779 60.4701C43.1813 60.4939 43.2158 60.496 43.3485 60.6004C43.7814 60.9413 44.0584 61.635 44.2541 62.8682C44.4379 64.0269 44.6014 64.8569 44.8648 65.9689C44.9847 66.4752 45.0946 67.0638 45.109 67.277C45.1515 67.9052 45.0013 68.4806 44.7523 68.6437C44.6888 68.6854 43.864 69.0407 42.9194 69.4333C41.9749 69.826 41.1232 70.2074 41.0268 70.2809C40.6369 70.5783 40.4179 71.1569 40.5141 71.6356C40.5844 71.9858 42.5614 76.754 42.7254 76.9692C43.0265 77.364 43.6115 77.5845 44.0935 77.4848C44.2324 77.4561 45.1152 77.1135 46.0552 76.7234C47.6092 76.0786 47.7836 76.0168 47.9765 76.0422C48.4638 76.1063 49.0839 76.6902 49.6319 77.601C50.1179 78.4085 51.0737 79.8418 51.6513 80.6292C52.1333 81.2862 52.3501 81.7044 52.4647 82.1986C52.5045 82.3705 52.537 82.4889 52.529 82.6046C52.5084 82.9042 52.2166 83.1851 51.08 84.3306C50.1926 85.2249 49.6448 85.8148 49.5728 85.9536C49.4109 86.2657 49.4119 86.8986 49.5747 87.2132C49.7342 87.5215 53.4968 91.2813 53.7951 91.4306C54.0973 91.5817 54.5754 91.6114 54.9148 91.5001C55.1538 91.4217 55.2948 91.2963 56.6057 89.9958C57.6328 88.977 58.0765 88.5681 58.18 88.5452C58.2593 88.5276 58.3512 88.5049 58.3844 88.4947C58.5025 88.4583 58.9908 88.5784 59.3626 88.7352C59.6043 88.8372 59.9917 89.0782 60.44 89.4055C61.3105 90.0411 62.3719 90.7489 63.2891 91.3054C64.4231 91.9933 65.0267 92.6665 64.9729 93.183C64.9607 93.3 64.6377 94.14 64.2318 95.1102C63.5322 96.7828 63.5125 96.8394 63.515 97.1693C63.5189 97.6947 63.7616 98.1367 64.1778 98.3767C64.2884 98.4405 65.4689 98.9466 66.801 99.5013L69.223 100.51L69.6105 100.51C69.9361 100.51 70.0366 100.49 70.2402 100.382C70.5247 100.232 70.7502 100.007 70.8869 99.737C70.9408 99.6304 71.2707 98.848 71.62 97.9982C71.9692 97.1485 72.287 96.3911 72.3263 96.3151C72.4222 96.1297 72.7007 95.996 73.1304 95.9292C73.6041 95.8555 73.9727 95.896 74.92 96.1259C75.8012 96.3397 77.1392 96.6105 77.9178 96.7327C78.9266 96.891 79.172 96.9463 79.5335 97.0968C79.9877 97.2859 80.2519 97.4603 80.4111 97.6762L80.5335 97.8421L80.5343 99.7343C80.5351 101.821 80.555 102.01 80.8137 102.386C80.999 102.656 81.3503 102.889 81.6757 102.959C81.8376 102.994 82.8318 103.006 84.6532 102.997C87.316 102.983 87.3934 102.98 87.6081 102.881C87.9304 102.732 88.1651 102.504 88.3182 102.192L88.4533 101.917L88.4775 99.8483L88.5018 97.7794L88.6884 97.5883C89.0711 97.1964 89.6922 96.9499 90.6621 96.8048C91.5683 96.6693 93.3619 96.3128 94.1994 96.1019C94.5624 96.0104 95.0093 95.9218 95.1924 95.9048C95.5977 95.8673 96.1674 95.9495 96.4298 96.0833L96.4401 96.0886C96.4651 96.1013 96.4871 96.1125 96.5079 96.1256C96.6648 96.2247 96.752 96.4342 97.4972 98.2234L97.5382 98.3217C97.9135 99.2229 98.2038 99.8503 98.3111 99.9923C98.6421 100.43 99.3235 100.646 99.8303 100.473C100.434 100.268 104.782 98.4215 104.951 98.2995C105.361 98.0022 105.594 97.4124 105.493 96.9281C105.463 96.788 105.12 95.902 104.729 94.9592C104.082 93.3958 104.022 93.2261 104.047 93.0309C104.113 92.5289 104.707 91.917 105.722 91.3043C106.62 90.7626 107.683 90.0543 108.57 89.4062C109.058 89.0498 109.39 88.8467 109.669 88.7328C110.07 88.5691 110.512 88.4592 110.626 88.4944C110.659 88.5048 110.752 88.5274 110.832 88.5448C110.938 88.5677 111.355 88.9514 112.358 89.95C113.242 90.8291 113.817 91.3643 113.957 91.4365C114.135 91.5287 114.25 91.5493 114.586 91.5493C114.948 91.5493 115.028 91.5326 115.246 91.412C115.58 91.2268 119.274 87.5252 119.436 87.2132C119.599 86.8989 119.6 86.2663 119.438 85.9536C119.366 85.8147 118.827 85.2348 117.953 84.3548C116.959 83.3557 116.571 82.9339 116.548 82.8287C116.53 82.7488 116.507 82.6562 116.497 82.6231C116.461 82.5044 116.581 82.0157 116.74 81.6392C116.845 81.3903 117.068 81.0312 117.378 80.6132C117.987 79.7915 118.812 78.5597 119.335 77.6933C119.961 76.6554 120.642 76.0218 121.131 76.0218C121.238 76.0218 121.888 76.2685 122.92 76.7013C123.811 77.075 124.659 77.4156 124.803 77.458C125.418 77.6392 126.138 77.3265 126.427 76.7529C126.488 76.6306 126.98 75.4635 127.519 74.1594C128.589 71.5711 128.622 71.4598 128.468 70.9935C128.364 70.6813 128.152 70.3886 127.92 70.2355C127.819 70.1697 126.996 69.8073 126.091 69.4302C125.185 69.0531 124.384 68.7137 124.311 68.6759C124.131 68.5827 123.997 68.3004 123.93 67.8745C123.863 67.4402 123.9 66.998 124.055 66.3854C124.334 65.2798 124.641 63.739 124.833 62.481C124.969 61.5824 125.277 60.9055 125.698 60.5786C125.837 60.4704 125.843 60.4701 127.734 60.4701C129.823 60.4701 130.009 60.4499 130.399 60.181C130.657 60.0038 130.89 59.6479 130.959 59.3277C130.994 59.1658 131.006 58.1714 130.997 56.3496C130.984 53.8547 130.975 53.5981 130.897 53.4247C130.753 53.1059 130.493 52.8315 130.195 52.6854L129.917 52.5489L127.883 52.5246C126.417 52.5072 125.82 52.484 125.746 52.4417C125.598 52.3569 125.356 52.069 125.238 51.8362C125.022 51.4133 124.907 51.0138 124.806 50.3397C124.666 49.4124 124.368 47.9015 124.128 46.9155C123.897 45.9627 123.857 45.5946 123.93 45.1202C123.997 44.6943 124.131 44.412 124.311 44.3188C124.384 44.281 125.185 43.9416 126.091 43.5645C126.996 43.1875 127.819 42.825 127.92 42.7592C128.152 42.6064 128.364 42.3135 128.467 42.0032C128.624 41.5286 128.593 41.4203 127.572 38.9593C126.399 36.13 126.369 36.0663 126.138 35.8638C125.777 35.5473 125.287 35.4118 124.877 35.515C124.754 35.5462 123.886 35.889 122.95 36.277L122.877 36.3072C121.512 36.8723 121.162 37.0172 120.886 36.93C120.79 36.9 120.703 36.8422 120.586 36.7646L120.568 36.7527C120.161 36.4824 119.78 36.0333 119.335 35.2993C118.813 34.4395 117.974 33.1883 117.353 32.3467C117 31.8676 116.919 31.6897 116.695 31.3543C116.472 31.0189 116.136 31.4661 116.136 31.4661L112.447 35.7146C115.754 40.2808 117.653 44.7342 118.659 50.2821C119.282 53.7195 119.457 56.8492 118.922 61.003C118.693 62.7866 118.502 63.7848 118.038 65.5222C117.094 69.0579 115.578 72.6991 112.807 76.5976C109.46 81.306 106.872 83.6683 101.871 86.5586C96.651 89.5752 92.4869 90.6824 87.1213 91.1159C85.7978 91.2228 83.1848 91.2229 81.8898 91.1161C75.9589 90.6269 70.6476 88.8483 65.7602 85.7146C60.6874 82.462 56.8867 78.622 53.6439 72.3761C52.9294 70.9999 52.5663 70.2043 52.0157 68.7546C51.2701 66.7916 50.9383 65.6478 50.5178 63.5904C50.2956 62.5033 50.1476 61.4416 50.068 60.785C49.7251 57.9575 49.7251 55.0372 50.068 52.2097C50.9883 44.621 54.4741 37.4765 59.9231 32.0103C67.1399 24.7708 76.9385 21.127 87.1455 21.8869C91.7176 22.2273 99.7338 25.5863 100.11 25.4824C100.487 25.3786 104.511 18.497 105.491 16.0713C105.708 15.5359 105.363 14.9939 104.95 14.6949C104.783 14.5738 100.422 12.7232 99.8223 12.5187C99.3238 12.3488 98.6396 12.5678 98.3111 13.0024C98.2038 13.1445 97.9135 13.7718 97.5382 14.673L97.4972 14.7714C96.752 16.5605 96.6648 16.77 96.5079 16.8691C96.4871 16.8822 96.4651 16.8934 96.4402 16.9061L96.4298 16.9114C96.1674 17.0452 95.5977 17.1275 95.1924 17.09C95.0093 17.0729 94.5624 16.9843 94.1994 16.8929C93.3619 16.6819 91.5683 16.3254 90.6621 16.1899C89.6922 16.0448 89.0711 15.7983 88.6884 15.4064L88.5018 15.2154L88.4775 13.1465L88.4533 11.0776L88.3168 10.7995C88.1707 10.502 87.8964 10.2415 87.5777 10.0975C87.4038 10.019 87.1512 10.0109 84.6024 10.0019C82.516 9.99463 81.7624 10.0072 81.5989 10.052Z" fill="#007F42"/>
<path fill-rule="evenodd" clip-rule="evenodd" d="M121.3 11.4901C118.692 11.7181 116.61 12.2514 114.779 13.1607C112.92 14.0836 111.935 14.9766 109.197 18.2208C100.455 28.5769 90.2692 42.7847 79.9906 58.9594C78.256 61.6891 77.4336 62.6492 76.8297 62.6492C76.0306 62.6492 75.1401 60.949 73.4735 56.2413C72.3125 52.962 71.7508 52.0251 70.62 51.4818C69.4447 50.9171 67.5341 51.2287 65.2809 52.3527C61.9572 54.0107 60.2777 55.8243 60.2743 57.7592C60.2696 60.2592 63.9466 71.8217 66.144 76.2171C66.9194 77.768 67.9887 79.0292 68.7577 79.2995C69.1477 79.4365 70.2568 79.489 72.7622 79.489C75.6488 79.489 76.3631 79.4473 77.0395 79.2395C78.5196 78.7846 79.132 78.2464 80.5068 76.1927C81.1928 75.168 83.5392 71.6531 85.7212 68.3819C97.052 51.3943 109.137 35.141 122.244 19.2629C126.69 13.8767 127.254 12.9969 126.748 12.231C126.625 12.044 126.318 11.8057 126.066 11.7015C125.446 11.4452 123.036 11.3383 121.3 11.4901Z" fill="#007F42"/>
<path d="M8.1975 62.627L8.19591 62.6274L7.30869 62.8437L7.30869 62.8437L7.30609 62.8444C7.26385 62.8549 7.21919 62.8481 7.18194 62.8255C7.14468 62.8029 7.11807 62.7664 7.10794 62.7241L7.10737 62.7217L6.24494 59.1938L7.45902 58.8981L8.31798 62.4253L8.31797 62.4253L8.31855 62.4277C8.32906 62.4699 8.32229 62.5149 8.29946 62.5525C8.27663 62.5901 8.23989 62.6168 8.1975 62.627ZM7.22242 57.9265L6.00747 58.2224L5.71054 57.0077L6.92629 56.7105L7.22242 57.9265ZM4.73914 57.2452L5.03587 58.459L1.51236 59.317L1.51003 59.3176C1.46776 59.3281 1.42283 59.3214 1.38522 59.2985C1.34761 59.2757 1.32087 59.239 1.31069 59.1966L1.3103 59.195L1.09399 58.3078L1.09334 58.3052C1.0828 58.2629 1.08957 58.2182 1.11219 58.181C1.1348 58.1437 1.1713 58.1171 1.21364 58.107L1.21596 58.1064L4.73914 57.2452ZM6.68969 55.7389L5.47308 56.0363L4.61202 52.5139L4.61152 52.5119C4.60104 52.4698 4.60775 52.4249 4.63064 52.3872C4.65341 52.3497 4.69018 52.3229 4.73272 52.3127L4.73476 52.3122L5.63073 52.0926L5.63249 52.0921C5.67504 52.0815 5.71984 52.0884 5.75691 52.1109C5.79397 52.1334 5.82074 52.17 5.83097 52.2126L5.83137 52.2143L6.68969 55.7389ZM7.89769 56.473L11.4238 55.6111L11.4238 55.6111L11.4258 55.6106C11.4679 55.6001 11.5128 55.6068 11.5505 55.6297C11.588 55.6525 11.6148 55.6892 11.625 55.7318L11.625 55.7318L11.6255 55.7338L11.8451 56.6298L11.8451 56.6298L11.8456 56.6315C11.8562 56.6741 11.8493 56.7189 11.8268 56.756C11.8043 56.793 11.7677 56.8198 11.7251 56.83L11.7251 56.83L11.7234 56.8304L8.19402 57.6899L7.89769 56.473Z" fill="#007F42" stroke="#007F42"/>
<path d="M154.246 32.2527L154.237 34.797L153.578 34.7951L153.584 32.2505L154.246 32.2527ZM154.249 31.2527L153.586 31.2505L153.588 30.5879L154.251 30.5895L154.249 31.2527ZM152.588 30.5855L152.586 31.2472L150.045 31.2389L150.047 30.5794L152.588 30.5855ZM154.254 29.5895L153.59 29.5879L153.596 27.0471L154.263 27.0483L154.254 29.5895ZM154.263 27.0384L154.263 27.0385L154.263 27.0384ZM155.249 31.256L155.251 30.5919L157.795 30.598L157.794 31.2643L155.249 31.256ZM157.795 30.5888L157.795 30.5889C157.795 30.5889 157.795 30.5889 157.795 30.5888ZM150.037 30.5794L150.037 30.5794C150.037 30.5794 150.037 30.5794 150.037 30.5794L150.037 30.5794ZM150.045 31.2482L150.045 31.2481C150.045 31.2481 150.045 31.2482 150.045 31.2482ZM154.247 34.7971C154.247 34.7971 154.247 34.7971 154.247 34.7971L154.247 34.7971Z" fill="#007F42" stroke="#007F42"/>
<path d="M68 5C68 7.76142 65.7614 10 63 10C60.2386 10 58 7.76142 58 5C58 2.23858 60.2386 0 63 0C65.7614 0 68 2.23858 68 5ZM59.4555 5C59.4555 6.95759 61.0424 8.54453 63 8.54453C64.9576 8.54453 66.5445 6.95759 66.5445 5C66.5445 3.04241 64.9576 1.45547 63 1.45547C61.0424 1.45547 59.4555 3.04241 59.4555 5Z" fill="#007F42"/>
<circle cx="34" cy="92" r="2" fill="#007F42"/>
<path d="M130.869 93.3972L121.514 102.868C121.431 102.952 121.319 103 121.201 103C121.083 103 120.97 102.952 120.888 102.868L116.131 98.0521C116.047 97.9683 116 97.8541 116 97.7349C116 97.6158 116.047 97.5017 116.131 97.4178L116.748 96.7923C116.831 96.7078 116.944 96.6602 117.062 96.6602C117.179 96.6602 117.292 96.7078 117.375 96.7923L121.196 100.661L129.625 92.1285C129.8 91.9572 130.077 91.9572 130.252 92.1285L130.869 92.7629C130.953 92.8468 131 92.9609 131 93.0801C131 93.1992 130.953 93.3133 130.869 93.3972Z" fill="#007F42"/>
</svg>
