<svg width="528" height="34" viewBox="0 0 528 34" fill="none" xmlns="http://www.w3.org/2000/svg">
<path d="M31.32 22.32H10.64V5.68H31.32V22.32ZM41.76 -1.90735e-06H0.2V28H41.76V-1.90735e-06ZM89.6888 -1.90735e-06H79.2488V11.08H58.6088V-1.90735e-06H48.1688V28H58.6088V16.76H79.2488V28H89.6888V-1.90735e-06ZM139.763 -1.90735e-06V9.96L129.323 5.8V-1.90735e-06H118.883V9.4L131.923 14.4L125.123 22H118.883V28H131.523L139.763 17.72V28H150.203V17.72L158.443 28H171.083V22H164.843L158.043 14.4L171.083 9.4V-1.90735e-06H160.643V5.8L150.203 9.96V-1.90735e-06H139.763ZM198.014 5.68H205.934V22.32H190.774L198.014 5.68ZM216.374 22.32V-1.90735e-06H189.654L179.974 22.32H173.094V33.64H183.534V28H223.054V22.32H216.374ZM257.375 5.68V9.28L236.695 12.76V5.68H257.375ZM236.695 19.04L267.815 13.8V-1.90735e-06H226.255V28H267.815V19.08L257.375 20.16V22.32H236.695V19.04ZM271.823 -1.90735e-06V11.2L282.263 9.76V5.68H288.983V28H299.423V5.68H306.143V9.76L316.583 11.2V-1.90735e-06H271.823ZM342.175 -1.90735e-06V11.2L352.615 9.76V5.68H359.335V28H369.775V5.68H376.495V9.76L386.935 11.2V-1.90735e-06H342.175ZM422.062 5.68V9.28L401.382 12.76V5.68H422.062ZM401.382 19.04L432.502 13.8V-1.90735e-06H390.942V28H432.502V19.08L422.062 20.16V22.32H401.382V19.04ZM470.031 22.32H449.351V15.24L470.031 18.72V22.32ZM449.351 8.96V5.68H470.031V7.84L480.471 8.92V-1.90735e-06H438.911V28H480.471V14.2L449.351 8.96ZM496.56 5.68H517.24V12.72L496.56 9.24V5.68ZM486.12 -1.90735e-06V13.76L498.2 15.8L484.48 28H498.92L510.32 17.84L517.24 19V28H527.68V-1.90735e-06H486.12Z" fill="#E3E3E3"/>
</svg>
