<svg width="1342" height="93" viewBox="0 0 1342 93" fill="none" xmlns="http://www.w3.org/2000/svg">
<path d="M86.38 61.38H29.51V15.62H86.38V61.38ZM115.09 -5.24521e-06H0.800001V77H115.09V-5.24521e-06ZM246.894 -5.24521e-06H218.184V30.47H161.424V-5.24521e-06H132.714V77H161.424V46.09H218.184V77H246.894V-5.24521e-06ZM384.598 -5.24521e-06V27.39L355.888 15.95V-5.24521e-06H327.178V25.85L363.038 39.6L344.338 60.5H327.178V77H361.938L384.598 48.73V77H413.308V48.73L435.968 77H470.728V60.5H453.568L434.868 39.6L470.728 25.85V-5.24521e-06H442.018V15.95L413.308 27.39V-5.24521e-06H384.598ZM544.788 15.62H566.568V61.38H524.878L544.788 15.62ZM595.278 61.38V-5.24521e-06H521.798L495.178 61.38H476.258V92.51H504.968V77H613.648V61.38H595.278ZM708.03 15.62V25.52L651.16 35.09V15.62H708.03ZM651.16 52.36L736.74 37.95V-5.24521e-06H622.45V77H736.74V52.47L708.03 55.44V61.38H651.16V52.36ZM747.764 -5.24521e-06V30.8L776.474 26.84V15.62H794.954V77H823.664V15.62H842.144V26.84L870.854 30.8V-5.24521e-06H747.764ZM941.231 -5.24521e-06V30.8L969.941 26.84V15.62H988.421V77H1017.13V15.62H1035.61V26.84L1064.32 30.8V-5.24521e-06H941.231ZM1160.92 15.62V25.52L1104.05 35.09V15.62H1160.92ZM1104.05 52.36L1189.63 37.95V-5.24521e-06H1075.34V77H1189.63V52.47L1160.92 55.44V61.38H1104.05V52.36ZM1292.84 61.38H1235.97V41.91L1292.84 51.48V61.38ZM1235.97 24.64V15.62H1292.84V21.56L1321.55 24.53V-5.24521e-06H1207.26V77H1321.55V39.05L1235.97 24.64ZM1365.79 15.62H1422.66V34.98L1365.79 25.41V15.62ZM1337.08 -5.24521e-06V37.84L1370.3 43.45L1332.57 77H1372.28L1403.63 49.06L1422.66 52.25V77H1451.37V-5.24521e-06H1337.08Z" fill="#191919"/>
</svg>
