<svg width="398" height="28" viewBox="0 0 398 28" fill="none" xmlns="http://www.w3.org/2000/svg">
<path d="M41.72 -1.90735e-06H31.28V11.08H10.64V-1.90735e-06H0.2V28H10.64V16.76H31.28V28H41.72V-1.90735e-06ZM65.5297 5.68H69.1297L73.3697 15.32H61.2897L65.5297 5.68ZM77.5297 -1.90735e-06H49.7297V5.68H54.6897L44.9297 28H55.7697L58.8097 21H75.8497L78.8897 28H89.6897L77.5297 -1.90735e-06ZM132.415 -1.90735e-06V22.32H123.095V-1.90735e-06H112.655V22.32H103.335V-1.90735e-06H92.8953V28H142.855V-1.90735e-06H132.415ZM210.687 10.92V-1.90735e-06H173.247V28H183.687V5.68H200.247V9.48L210.687 10.92ZM229.709 5.68H233.309L237.549 15.32H225.469L229.709 5.68ZM241.709 -1.90735e-06H213.909V5.68H218.869L209.109 28H219.949L222.989 21H240.029L243.069 28H253.869L241.709 -1.90735e-06ZM288.195 9.96L267.515 13.44V5.68H288.195V9.96ZM257.075 -1.90735e-06V28H267.515V19.72L298.635 14.48V-1.90735e-06H257.075ZM318.85 5.68H322.45L326.69 15.32H314.61L318.85 5.68ZM330.85 -1.90735e-06H303.05V5.68H308.01L298.25 28H309.09L312.13 21H329.17L332.21 28H343.01L330.85 -1.90735e-06ZM365.896 -1.90735e-06V9.96L355.456 5.8V-1.90735e-06H345.016V9.4L358.056 14.4L351.256 22H345.016V28H357.656L365.896 17.72V28H376.336V17.72L384.576 28H397.216V22H390.976L384.176 14.4L397.216 9.4V-1.90735e-06H386.776V5.8L376.336 9.96V-1.90735e-06H365.896Z" fill="#E3E3E3"/>
</svg>
