<svg width="1093" height="77" viewBox="0 0 1093 77" fill="none" xmlns="http://www.w3.org/2000/svg">
<path d="M114.98 -5.24521e-06H86.27V30.47H29.51V-5.24521e-06H0.800001V77H29.51V46.09H86.27V77H114.98V-5.24521e-06ZM180.457 15.62H190.357L202.017 42.13H168.797L180.457 15.62ZM213.457 -5.24521e-06H137.007V15.62H150.647L123.807 77H153.617L161.977 57.75H208.837L217.197 77H246.897L213.457 -5.24521e-06ZM364.392 -5.24521e-06V61.38H338.762V-5.24521e-06H310.052V61.38H284.422V-5.24521e-06H255.712V77H393.102V-5.24521e-06H364.392ZM579.639 30.03V-5.24521e-06H476.679V77H505.389V15.62H550.929V26.07L579.639 30.03ZM631.951 15.62H641.851L653.511 42.13H620.291L631.951 15.62ZM664.951 -5.24521e-06H588.501V15.62H602.141L575.301 77H605.111L613.471 57.75H660.331L668.691 77H698.391L664.951 -5.24521e-06ZM792.786 27.39L735.916 36.96V15.62H792.786V27.39ZM707.206 -5.24521e-06V77H735.916V54.23L821.496 39.82V-5.24521e-06H707.206ZM877.088 15.62H886.988L898.648 42.13H865.428L877.088 15.62ZM910.088 -5.24521e-06H833.638V15.62H847.278L820.438 77H850.248L858.608 57.75H905.468L913.828 77H943.528L910.088 -5.24521e-06ZM1006.46 -5.24521e-06V27.39L977.753 15.95V-5.24521e-06H949.043V25.85L984.903 39.6L966.203 60.5H949.043V77H983.803L1006.46 48.73V77H1035.17V48.73L1057.83 77H1092.59V60.5H1075.43L1056.73 39.6L1092.59 25.85V-5.24521e-06H1063.88V15.95L1035.17 27.39V-5.24521e-06H1006.46Z" fill="#191919"/>
</svg>
