<svg width="241" height="54" viewBox="0 0 241 54" fill="none" xmlns="http://www.w3.org/2000/svg">
<path d="M0.32 18.952H-0.68V20.1979L0.536372 19.9283L0.32 18.952ZM13.64 16H14.64V14.7541L13.4236 15.0237L13.64 16ZM13.64 52H12.64V53H13.64V52ZM28.76 52V53H29.76V52H28.76ZM28.76 0.519997H29.76V-0.681747L28.5783 -0.46335L28.76 0.519997ZM0.32 5.776L0.138268 4.79265L-0.68 4.94387V5.776H0.32ZM0.536372 19.9283L13.8564 16.9763L13.4236 15.0237L0.103629 17.9757L0.536372 19.9283ZM12.64 16V52H14.64V16H12.64ZM13.64 53H28.76V51H13.64V53ZM29.76 52V0.519997H27.76V52H29.76ZM28.5783 -0.46335L0.138268 4.79265L0.501733 6.75935L28.9417 1.50335L28.5783 -0.46335ZM-0.68 5.776V18.952H1.32V5.776H-0.68ZM55.5384 21.4L54.565 21.171L54.5624 21.1817L54.5601 21.1925L55.5384 21.4ZM57.0504 17.296L56.1865 16.7921L56.1798 16.8039L57.0504 17.296ZM59.3544 14.704L59.9091 15.536H59.9091L59.3544 14.704ZM65.1144 14.704L64.5597 15.536L65.1144 14.704ZM67.3464 17.296L66.4671 17.7723L66.4791 17.7944L66.4922 17.8159L67.3464 17.296ZM68.8584 21.4L67.8789 21.6017L67.8824 21.6187L67.8865 21.6356L68.8584 21.4ZM68.8584 32.272L67.885 32.043L67.8824 32.0537L67.8801 32.0645L68.8584 32.272ZM67.3464 36.376L66.4825 35.8721L66.4758 35.8839L67.3464 36.376ZM65.1144 38.896L64.5597 38.0639L65.1144 38.896ZM59.3544 38.896L58.7997 39.7281L59.3544 38.896ZM57.0504 36.376L56.1711 36.8523L56.1831 36.8744L56.1962 36.8959L57.0504 36.376ZM55.5384 32.272L54.5589 32.4737L54.5624 32.4907L54.5665 32.5076L55.5384 32.272ZM42.7224 41.272L41.8214 41.7058L42.7224 41.272ZM50.5704 50.128L50.0559 50.9855L50.065 50.9909L50.5704 50.128ZM74.1864 50.128L74.6972 50.9877L74.7009 50.9855L74.1864 50.128ZM81.8904 12.328L80.9808 12.7435L81.8904 12.328ZM74.1864 3.544L73.6664 4.3982L73.6737 4.4026L73.681 4.40688L74.1864 3.544ZM50.5704 3.544L51.0758 4.40693L51.0849 4.40149L50.5704 3.544ZM42.7224 12.328L43.6234 12.7618L42.7224 12.328ZM56.0344 26.8C56.0344 24.8376 56.1981 23.1091 56.5166 21.6075L54.5601 21.1925C54.2067 22.8589 54.0344 24.7304 54.0344 26.8H56.0344ZM56.5118 21.629C56.8806 20.0614 57.3557 18.7881 57.9209 17.7881L56.1798 16.8039C55.4971 18.0119 54.9641 19.4746 54.565 21.171L56.5118 21.629ZM57.9142 17.7999C58.5305 16.7432 59.2025 16.0071 59.9091 15.536L58.7997 13.8719C57.7783 14.5529 56.9142 15.5448 56.1866 16.7921L57.9142 17.7999ZM59.9091 15.536C60.6059 15.0715 61.3722 14.84 62.2344 14.84V12.84C60.9845 12.84 59.8309 13.1845 58.7997 13.8719L59.9091 15.536ZM62.2344 14.84C63.0965 14.84 63.8629 15.0715 64.5597 15.536L65.6691 13.8719C64.6379 13.1845 63.4842 12.84 62.2344 12.84V14.84ZM64.5597 15.536C65.2572 16.0011 65.9008 16.7269 66.4671 17.7723L68.2257 16.8197C67.5439 15.5611 66.6995 14.5589 65.6691 13.8719L64.5597 15.536ZM66.4922 17.8159C67.09 18.7981 67.5597 20.0513 67.8789 21.6017L69.8378 21.1983C69.485 19.4847 68.9468 18.0019 68.2006 16.7761L66.4922 17.8159ZM67.8865 21.6356C68.248 23.1268 68.4344 24.8455 68.4344 26.8H70.4344C70.4344 24.7225 70.2367 22.8412 69.8302 21.1644L67.8865 21.6356ZM68.4344 26.8C68.4344 28.7539 68.2482 30.4993 67.885 32.043L69.8318 32.501C70.2366 30.7807 70.4344 28.8781 70.4344 26.8H68.4344ZM67.8801 32.0645C67.5617 33.5658 67.0908 34.8295 66.4826 35.8721L68.2102 36.8799C68.9459 35.6185 69.4831 34.1462 69.8366 32.4795L67.8801 32.0645ZM66.4758 35.8839C65.9122 36.8812 65.2674 37.5921 64.5597 38.0639L65.6691 39.7281C66.6893 39.0479 67.5326 38.0788 68.2169 36.8681L66.4758 35.8839ZM64.5597 38.0639C63.8629 38.5285 63.0965 38.76 62.2344 38.76V40.76C63.4842 40.76 64.6379 40.4155 65.6691 39.7281L64.5597 38.0639ZM62.2344 38.76C61.3722 38.76 60.6059 38.5285 59.9091 38.0639L58.7997 39.7281C59.8309 40.4155 60.9845 40.76 62.2344 40.76V38.76ZM59.9091 38.0639C59.1924 37.5862 58.5188 36.8651 57.9046 35.8561L56.1962 36.8959C56.926 38.0949 57.7883 39.0538 58.7997 39.7281L59.9091 38.0639ZM57.9297 35.8997C57.3553 34.8394 56.8786 33.556 56.5102 32.0364L54.5665 32.5076C54.9661 34.156 55.4974 35.6086 56.1711 36.8523L57.9297 35.8997ZM56.5178 32.0703C56.198 30.5168 56.0344 28.7618 56.0344 26.8H54.0344C54.0344 28.8702 54.2068 30.7632 54.5589 32.4737L56.5178 32.0703ZM38.9144 26.8C38.9144 32.6623 39.8662 37.6451 41.8214 41.7058L43.6234 40.8382C41.8346 37.1229 40.9144 32.4577 40.9144 26.8H38.9144ZM41.8214 41.7058C43.7692 45.7512 46.5116 48.859 50.0559 50.9855L51.0849 49.2705C47.9091 47.3651 45.4196 44.5688 43.6234 40.8382L41.8214 41.7058ZM50.065 50.9909C53.5979 53.0602 57.665 54.08 62.2344 54.08V52.08C57.9717 52.08 54.2628 51.1318 51.0758 49.2651L50.065 50.9909ZM62.2344 54.08C67.0326 54.08 71.2013 53.065 74.6972 50.9877L73.6756 49.2683C70.5475 51.127 66.7481 52.08 62.2344 52.08V54.08ZM74.7009 50.9855C78.25 48.856 80.948 45.7419 82.8 41.6875L80.9808 40.8565C79.2808 44.5781 76.8427 47.368 73.6719 49.2705L74.7009 50.9855ZM82.8 41.6875C84.6525 37.6321 85.5544 32.6562 85.5544 26.8H83.5544C83.5544 32.4638 82.6803 37.1359 80.9808 40.8565L82.8 41.6875ZM85.5544 26.8C85.5544 20.9438 84.6525 15.9679 82.8 11.9125L80.9808 12.7435C82.6803 16.4641 83.5544 21.1362 83.5544 26.8H85.5544ZM82.8 11.9125C80.9472 7.85651 78.2467 4.76327 74.6918 2.68111L73.681 4.40688C76.8461 6.26072 79.2815 9.02349 80.9808 12.7435L82.8 11.9125ZM74.7063 2.6898C71.2088 0.56086 67.0367 -0.480003 62.2344 -0.480003V1.52C66.744 1.52 70.54 2.49514 73.6664 4.3982L74.7063 2.6898ZM62.2344 -0.480003C57.6607 -0.480003 53.5903 0.565836 50.0559 2.6865L51.0849 4.40149C54.2704 2.49016 57.9761 1.52 62.2344 1.52V-0.480003ZM50.065 2.68111C46.515 4.76037 43.7699 7.84717 41.8214 11.8942L43.6234 12.7618C45.4188 9.03283 47.9057 6.26363 51.0758 4.40688L50.065 2.68111ZM41.8214 11.8942C39.8662 15.9549 38.9144 20.9377 38.9144 26.8H40.9144C40.9144 21.1423 41.8346 16.4771 43.6234 12.7618L41.8214 11.8942ZM107.752 21.4L106.779 21.171L106.776 21.1817L106.774 21.1925L107.752 21.4ZM109.264 17.296L108.401 16.7921L108.394 16.8039L109.264 17.296ZM111.568 14.704L112.123 15.536L111.568 14.704ZM117.328 14.704L116.774 15.536L117.328 14.704ZM119.56 17.296L118.681 17.7723L118.693 17.7944L118.706 17.8159L119.56 17.296ZM121.072 21.4L120.093 21.6017L120.096 21.6187L120.101 21.6356L121.072 21.4ZM121.072 32.272L120.099 32.043L120.096 32.0537L120.094 32.0645L121.072 32.272ZM119.56 36.376L118.697 35.8721L118.69 35.8839L119.56 36.376ZM117.328 38.896L116.774 38.0639L117.328 38.896ZM111.568 38.896L111.014 39.7281L111.568 38.896ZM109.264 36.376L108.385 36.8523L108.397 36.8744L108.41 36.8959L109.264 36.376ZM107.752 32.272L106.773 32.4737L106.776 32.4907L106.781 32.5076L107.752 32.272ZM94.9364 41.272L94.0354 41.7058L94.9364 41.272ZM102.784 50.128L102.27 50.9855L102.279 50.9909L102.784 50.128ZM126.4 50.128L126.911 50.9877L126.915 50.9855L126.4 50.128ZM134.104 12.328L133.195 12.7435L134.104 12.328ZM126.4 3.544L125.88 4.3982L125.888 4.4026L125.895 4.40688L126.4 3.544ZM102.784 3.544L103.29 4.40693L103.299 4.40149L102.784 3.544ZM94.9364 12.328L95.8374 12.7618L94.9364 12.328ZM108.248 26.8C108.248 24.8376 108.412 23.1091 108.731 21.6075L106.774 21.1925C106.421 22.8589 106.248 24.7304 106.248 26.8H108.248ZM108.726 21.629C109.095 20.0614 109.57 18.7881 110.135 17.7881L108.394 16.8039C107.711 18.0119 107.178 19.4746 106.779 21.171L108.726 21.629ZM110.128 17.7999C110.745 16.7432 111.417 16.0071 112.123 15.536L111.014 13.8719C109.992 14.5529 109.128 15.5448 108.401 16.7921L110.128 17.7999ZM112.123 15.536C112.82 15.0715 113.586 14.84 114.448 14.84V12.84C113.199 12.84 112.045 13.1845 111.014 13.8719L112.123 15.536ZM114.448 14.84C115.311 14.84 116.077 15.0715 116.774 15.536L117.883 13.8719C116.852 13.1845 115.698 12.84 114.448 12.84V14.84ZM116.774 15.536C117.471 16.0011 118.115 16.7269 118.681 17.7723L120.44 16.8197C119.758 15.5611 118.914 14.5589 117.883 13.8719L116.774 15.536ZM118.706 17.8159C119.304 18.7981 119.774 20.0513 120.093 21.6017L122.052 21.1983C121.699 19.4847 121.161 18.0019 120.415 16.7761L118.706 17.8159ZM120.101 21.6356C120.462 23.1268 120.648 24.8455 120.648 26.8H122.648C122.648 24.7225 122.451 22.8412 122.044 21.1644L120.101 21.6356ZM120.648 26.8C120.648 28.7539 120.462 30.4993 120.099 32.043L122.046 32.501C122.451 30.7807 122.648 28.8781 122.648 26.8H120.648ZM120.094 32.0645C119.776 33.5658 119.305 34.8295 118.697 35.8721L120.424 36.8799C121.16 35.6185 121.697 34.1462 122.051 32.4795L120.094 32.0645ZM118.69 35.8839C118.126 36.8812 117.482 37.5921 116.774 38.0639L117.883 39.7281C118.903 39.0479 119.747 38.0788 120.431 36.8681L118.69 35.8839ZM116.774 38.0639C116.077 38.5285 115.311 38.76 114.448 38.76V40.76C115.698 40.76 116.852 40.4155 117.883 39.7281L116.774 38.0639ZM114.448 38.76C113.586 38.76 112.82 38.5285 112.123 38.0639L111.014 39.7281C112.045 40.4155 113.199 40.76 114.448 40.76V38.76ZM112.123 38.0639C111.406 37.5862 110.733 36.8651 110.119 35.8561L108.41 36.8959C109.14 38.0949 110.002 39.0538 111.014 39.7281L112.123 38.0639ZM110.144 35.8997C109.569 34.8394 109.093 33.556 108.724 32.0364L106.781 32.5076C107.18 34.156 107.711 35.6086 108.385 36.8523L110.144 35.8997ZM108.732 32.0703C108.412 30.5168 108.248 28.7618 108.248 26.8H106.248C106.248 28.8702 106.421 30.7632 106.773 32.4737L108.732 32.0703ZM91.1284 26.8C91.1284 32.6623 92.0803 37.6451 94.0354 41.7058L95.8374 40.8382C94.0486 37.1229 93.1284 32.4577 93.1284 26.8H91.1284ZM94.0354 41.7058C95.9832 45.7512 98.7257 48.859 102.27 50.9855L103.299 49.2705C100.123 47.3651 97.6337 44.5688 95.8374 40.8382L94.0354 41.7058ZM102.279 50.9909C105.812 53.0602 109.879 54.08 114.448 54.08V52.08C110.186 52.08 106.477 51.1318 103.29 49.2651L102.279 50.9909ZM114.448 54.08C119.247 54.08 123.415 53.065 126.911 50.9877L125.89 49.2683C122.762 51.127 118.962 52.08 114.448 52.08V54.08ZM126.915 50.9855C130.464 48.856 133.162 45.7419 135.014 41.6875L133.195 40.8565C131.495 44.5781 129.057 47.368 125.886 49.2705L126.915 50.9855ZM135.014 41.6875C136.867 37.6321 137.768 32.6562 137.768 26.8H135.768C135.768 32.4638 134.894 37.1359 133.195 40.8565L135.014 41.6875ZM137.768 26.8C137.768 20.9438 136.867 15.9679 135.014 11.9125L133.195 12.7435C134.894 16.4641 135.768 21.1362 135.768 26.8H137.768ZM135.014 11.9125C133.161 7.85651 130.461 4.76327 126.906 2.68111L125.895 4.40688C129.06 6.26072 131.496 9.02349 133.195 12.7435L135.014 11.9125ZM126.92 2.6898C123.423 0.56086 119.251 -0.480003 114.448 -0.480003V1.52C118.958 1.52 122.754 2.49514 125.88 4.3982L126.92 2.6898ZM114.448 -0.480003C109.875 -0.480003 105.804 0.565836 102.27 2.6865L103.299 4.40149C106.484 2.49016 110.19 1.52 114.448 1.52V-0.480003ZM102.279 2.68111C98.7291 4.76037 95.984 7.84717 94.0354 11.8942L95.8374 12.7618C97.6329 9.03283 100.12 6.26363 103.29 4.40688L102.279 2.68111ZM94.0354 11.8942C92.0803 15.9549 91.1284 20.9377 91.1284 26.8H93.1284C93.1284 21.1423 94.0486 16.4771 95.8374 12.7618L94.0354 11.8942ZM159.966 21.4L158.993 21.171L158.991 21.1817L158.988 21.1925L159.966 21.4ZM161.479 17.296L160.615 16.7921L160.608 16.8039L161.479 17.296ZM163.783 14.704L164.337 15.536L163.783 14.704ZM169.542 14.704L168.988 15.536L169.542 14.704ZM171.774 17.296L170.895 17.7723L170.907 17.7944L170.92 17.8159L171.774 17.296ZM173.286 21.4L172.307 21.6017L172.311 21.6187L172.315 21.6356L173.286 21.4ZM173.286 32.272L172.313 32.043L172.311 32.0537L172.308 32.0645L173.286 32.272ZM171.774 36.376L170.911 35.8721L170.904 35.8839L171.774 36.376ZM169.542 38.896L168.988 38.0639L169.542 38.896ZM163.783 38.896L163.228 39.7281L163.783 38.896ZM161.479 36.376L160.599 36.8523L160.611 36.8744L160.624 36.8959L161.479 36.376ZM159.966 32.272L158.987 32.4737L158.991 32.4907L158.995 32.5076L159.966 32.272ZM147.15 41.272L146.249 41.7058L147.15 41.272ZM154.998 50.128L154.484 50.9855L154.493 50.9909L154.998 50.128ZM178.615 50.128L179.125 50.9877L179.129 50.9855L178.615 50.128ZM186.318 12.328L185.409 12.7435L186.318 12.328ZM178.615 3.544L178.095 4.3982L178.102 4.4026L178.109 4.40688L178.615 3.544ZM154.998 3.544L155.504 4.40693L155.513 4.40149L154.998 3.544ZM147.15 12.328L148.051 12.7618L147.15 12.328ZM160.462 26.8C160.462 24.8376 160.626 23.1091 160.945 21.6075L158.988 21.1925C158.635 22.8589 158.462 24.7304 158.462 26.8H160.462ZM160.94 21.629C161.309 20.0614 161.784 18.7881 162.349 17.7881L160.608 16.8039C159.925 18.0119 159.392 19.4746 158.993 21.171L160.94 21.629ZM162.342 17.7999C162.959 16.7432 163.631 16.0071 164.337 15.536L163.228 13.8719C162.206 14.5529 161.342 15.5448 160.615 16.7921L162.342 17.7999ZM164.337 15.536C165.034 15.0715 165.8 14.84 166.662 14.84V12.84C165.413 12.84 164.259 13.1845 163.228 13.8719L164.337 15.536ZM166.662 14.84C167.525 14.84 168.291 15.0715 168.988 15.536L170.097 13.8719C169.066 13.1845 167.912 12.84 166.662 12.84V14.84ZM168.988 15.536C169.685 16.0011 170.329 16.7269 170.895 17.7723L172.654 16.8197C171.972 15.5611 171.128 14.5589 170.097 13.8719L168.988 15.536ZM170.92 17.8159C171.518 18.7981 171.988 20.0513 172.307 21.6017L174.266 21.1983C173.913 19.4847 173.375 18.0019 172.629 16.7761L170.92 17.8159ZM172.315 21.6356C172.676 23.1268 172.862 24.8455 172.862 26.8H174.862C174.862 24.7225 174.665 22.8412 174.258 21.1644L172.315 21.6356ZM172.862 26.8C172.862 28.7539 172.676 30.4993 172.313 32.043L174.26 32.501C174.665 30.7807 174.862 28.8781 174.862 26.8H172.862ZM172.308 32.0645C171.99 33.5658 171.519 34.8295 170.911 35.8721L172.638 36.8799C173.374 35.6185 173.911 34.1462 174.265 32.4795L172.308 32.0645ZM170.904 35.8839C170.34 36.8812 169.696 37.5921 168.988 38.0639L170.097 39.7281C171.117 39.0479 171.961 38.0788 172.645 36.8681L170.904 35.8839ZM168.988 38.0639C168.291 38.5285 167.525 38.76 166.662 38.76V40.76C167.912 40.76 169.066 40.4155 170.097 39.7281L168.988 38.0639ZM166.662 38.76C165.8 38.76 165.034 38.5285 164.337 38.0639L163.228 39.7281C164.259 40.4155 165.413 40.76 166.662 40.76V38.76ZM164.337 38.0639C163.621 37.5862 162.947 36.8651 162.333 35.8561L160.624 36.8959C161.354 38.0949 162.216 39.0538 163.228 39.7281L164.337 38.0639ZM162.358 35.8997C161.783 34.8394 161.307 33.556 160.938 32.0364L158.995 32.5076C159.394 34.156 159.926 35.6086 160.599 36.8523L162.358 35.8997ZM160.946 32.0703C160.626 30.5168 160.462 28.7618 160.462 26.8H158.462C158.462 28.8702 158.635 30.7632 158.987 32.4737L160.946 32.0703ZM143.342 26.8C143.342 32.6623 144.294 37.6451 146.249 41.7058L148.051 40.8382C146.263 37.1229 145.342 32.4577 145.342 26.8H143.342ZM146.249 41.7058C148.197 45.7512 150.94 48.859 154.484 50.9855L155.513 49.2705C152.337 47.3651 149.848 44.5688 148.051 40.8382L146.249 41.7058ZM154.493 50.9909C158.026 53.0602 162.093 54.08 166.662 54.08V52.08C162.4 52.08 158.691 51.1318 155.504 49.2651L154.493 50.9909ZM166.662 54.08C171.461 54.08 175.629 53.065 179.125 50.9877L178.104 49.2683C174.976 51.127 171.176 52.08 166.662 52.08V54.08ZM179.129 50.9855C182.678 48.856 185.376 45.7419 187.228 41.6875L185.409 40.8565C183.709 44.5781 181.271 47.368 178.1 49.2705L179.129 50.9855ZM187.228 41.6875C189.081 37.6321 189.982 32.6562 189.982 26.8H187.982C187.982 32.4638 187.108 37.1359 185.409 40.8565L187.228 41.6875ZM189.982 26.8C189.982 20.9438 189.081 15.9679 187.228 11.9125L185.409 12.7435C187.108 16.4641 187.982 21.1362 187.982 26.8H189.982ZM187.228 11.9125C185.375 7.85651 182.675 4.76327 179.12 2.68111L178.109 4.40688C181.274 6.26072 183.71 9.02349 185.409 12.7435L187.228 11.9125ZM179.134 2.6898C175.637 0.56086 171.465 -0.480003 166.662 -0.480003V1.52C171.172 1.52 174.968 2.49514 178.095 4.3982L179.134 2.6898ZM166.662 -0.480003C162.089 -0.480003 158.018 0.565836 154.484 2.6865L155.513 4.40149C158.699 2.49016 162.404 1.52 166.662 1.52V-0.480003ZM154.493 2.68111C150.943 4.76037 148.198 7.84717 146.249 11.8942L148.051 12.7618C149.847 9.03283 152.334 6.26363 155.504 4.40688L154.493 2.68111ZM146.249 11.8942C144.294 15.9549 143.342 20.9377 143.342 26.8H145.342C145.342 21.1423 146.263 16.4771 148.051 12.7618L146.249 11.8942ZM198.357 38.68H197.357V39.68H198.357V38.68ZM240.117 38.68V39.68H241.117V38.68H240.117ZM240.117 25.36H241.117V24.36H240.117V25.36ZM198.357 25.36V24.36H197.357V25.36H198.357ZM212.037 11.32V10.32H211.037V11.32H212.037ZM212.037 52.72H211.037V53.72H212.037V52.72ZM226.437 52.72V53.72H227.437V52.72H226.437ZM226.437 11.32H227.437V10.32H226.437V11.32ZM198.357 39.68H240.117V37.68H198.357V39.68ZM241.117 38.68V25.36H239.117V38.68H241.117ZM240.117 24.36H198.357V26.36H240.117V24.36ZM197.357 25.36V38.68H199.357V25.36H197.357ZM211.037 11.32V52.72H213.037V11.32H211.037ZM212.037 53.72H226.437V51.72H212.037V53.72ZM227.437 52.72V11.32H225.437V52.72H227.437ZM226.437 10.32H212.037V12.32H226.437V10.32Z" fill="#FCD702"/>
</svg>
