<svg width="240" height="54" viewBox="0 0 240 54" fill="none" xmlns="http://www.w3.org/2000/svg">
<path d="M0.32 18.952H-0.68V20.1979L0.536372 19.9283L0.32 18.952ZM13.64 16H14.64V14.7541L13.4236 15.0237L13.64 16ZM13.64 52H12.64V53H13.64V52ZM28.76 52V53H29.76V52H28.76ZM28.76 0.519997H29.76V-0.681747L28.5783 -0.46335L28.76 0.519997ZM0.32 5.776L0.138268 4.79265L-0.68 4.94387V5.776H0.32ZM0.536372 19.9283L13.8564 16.9763L13.4236 15.0237L0.103629 17.9757L0.536372 19.9283ZM12.64 16V52H14.64V16H12.64ZM13.64 53H28.76V51H13.64V53ZM29.76 52V0.519997H27.76V52H29.76ZM28.5783 -0.46335L0.138268 4.79265L0.501733 6.75935L28.9417 1.50335L28.5783 -0.46335ZM-0.68 5.776V18.952H1.32V5.776H-0.68ZM81.8184 27.16L82.6607 26.6209H82.6606L81.8184 27.16ZM75.9864 21.76L75.5319 22.6508L75.9864 21.76ZM63.5304 20.32L63.6507 21.3127L63.6633 21.3112L63.6759 21.3094L63.5304 20.32ZM59.0664 21.616L58.1372 21.2464L57.1878 23.6333L59.5011 22.5166L59.0664 21.616ZM61.5864 15.28V14.28H60.9079L60.6572 14.9104L61.5864 15.28ZM82.5384 15.28V16.28H83.5384V15.28H82.5384ZM82.5384 1.6H83.5384V0.599997H82.5384V1.6ZM50.1384 1.6V0.599997H49.349L49.1657 1.36775L50.1384 1.6ZM42.8664 32.056L41.8937 31.8238L41.4506 33.6795L43.2288 32.988L42.8664 32.056ZM48.2664 30.544L48.0897 29.5597L48.2664 30.544ZM53.5944 29.896L53.6514 30.8944L53.6644 30.8936L53.6774 30.8925L53.5944 29.896ZM61.8744 30.04L61.6986 31.0244L61.7157 31.0275L61.733 31.0299L61.8744 30.04ZM65.2584 31.264L64.6937 32.0893L64.7089 32.0997L64.7244 32.1095L65.2584 31.264ZM65.5464 36.88L66.2287 37.6111L66.2413 37.5993L66.2535 37.5871L65.5464 36.88ZM62.5224 38.32L62.7045 39.3033L62.7219 39.3L62.7393 39.2962L62.5224 38.32ZM54.5304 38.392L54.3546 39.3764L54.3717 39.3795L54.389 39.382L54.5304 38.392ZM50.0664 37.24L49.7501 38.1887L49.7586 38.1914L50.0664 37.24ZM45.0984 35.008L45.584 34.1338L44.5173 33.5412L44.1458 34.7036L45.0984 35.008ZM40.6344 48.976L39.6818 48.6716L39.3971 49.5627L40.2672 49.9062L40.6344 48.976ZM46.5384 50.992L46.255 51.951L46.2608 51.9527L46.5384 50.992ZM53.6664 52.504L53.5198 53.4932L53.6664 52.504ZM69.6504 52.144L69.4163 51.1718L69.4122 51.1728L69.6504 52.144ZM76.7784 49.192L76.2584 48.3378L76.2501 48.3429L76.7784 49.192ZM85.1224 36.16C85.1224 32.419 84.3236 29.2194 82.6607 26.6209L80.9761 27.6991C82.3851 29.9006 83.1224 32.701 83.1224 36.16H85.1224ZM82.6606 26.6209C81.0367 24.0836 78.9635 22.1563 76.4408 20.8692L75.5319 22.6508C77.7132 23.7637 79.528 25.4364 80.9761 27.6991L82.6606 26.6209ZM76.4408 20.8692C73.9536 19.6002 71.3504 18.96 68.6424 18.96V20.96C71.0223 20.96 73.3151 21.5198 75.5319 22.6508L76.4408 20.8692ZM68.6424 18.96C66.8214 18.96 65.0686 19.083 63.3849 19.3306L63.6759 21.3094C65.2562 21.077 66.9114 20.96 68.6424 20.96V18.96ZM63.41 19.3273C61.7205 19.5321 60.1258 19.9941 58.6316 20.7154L59.5011 22.5166C60.7909 21.8939 62.1723 21.4919 63.6507 21.3127L63.41 19.3273ZM59.9956 21.9856L62.5156 15.6496L60.6572 14.9104L58.1372 21.2464L59.9956 21.9856ZM61.5864 16.28H82.5384V14.28H61.5864V16.28ZM83.5384 15.28V1.6H81.5384V15.28H83.5384ZM82.5384 0.599997H50.1384V2.6H82.5384V0.599997ZM49.1657 1.36775L41.8937 31.8238L43.839 32.2882L51.111 1.83224L49.1657 1.36775ZM43.2288 32.988C44.8952 32.34 46.6329 31.8532 48.443 31.5283L48.0897 29.5597C46.1559 29.9068 44.2936 30.428 42.5039 31.124L43.2288 32.988ZM48.443 31.5283C50.2805 31.1985 52.0163 30.9878 53.6514 30.8944L53.5373 28.8976C51.8124 28.9962 49.9963 29.2175 48.0897 29.5597L48.443 31.5283ZM53.6774 30.8925C55.3914 30.7497 56.777 30.68 57.8424 30.68V28.68C56.6997 28.68 55.2533 28.7543 53.5113 28.8995L53.6774 30.8925ZM57.8424 30.68C59.1265 30.68 60.4117 30.7946 61.6986 31.0244L62.0502 29.0556C60.6491 28.8054 59.2462 28.68 57.8424 28.68V30.68ZM61.733 31.0299C62.9592 31.2051 63.9339 31.5695 64.6937 32.0893L65.8231 30.4387C64.7588 29.7105 63.4776 29.2589 62.0158 29.05L61.733 31.0299ZM64.7244 32.1095C65.2966 32.4709 65.6264 33.0319 65.6264 34H67.6264C67.6264 32.4721 67.0442 31.2091 65.7924 30.4185L64.7244 32.1095ZM65.6264 34C65.6264 34.9857 65.3385 35.6736 64.8393 36.1729L66.2535 37.5871C67.1942 36.6464 67.6264 35.4143 67.6264 34H65.6264ZM64.8641 36.1489C64.3123 36.6639 63.4857 37.0815 62.3054 37.3438L62.7393 39.2962C64.151 38.9825 65.3405 38.4401 66.2287 37.6111L64.8641 36.1489ZM62.3403 37.3367C61.1222 37.5623 59.6267 37.68 57.8424 37.68V39.68C59.7061 39.68 61.3305 39.5577 62.7045 39.3033L62.3403 37.3367ZM57.8424 37.68C57.0445 37.68 55.9922 37.5907 54.6718 37.4021L54.389 39.382C55.7566 39.5773 56.9123 39.68 57.8424 39.68V37.68ZM54.7062 37.4076C53.4165 37.1773 51.9734 36.8059 50.3742 36.2886L49.7586 38.1914C51.4234 38.7301 52.9563 39.1267 54.3546 39.3764L54.7062 37.4076ZM50.3826 36.2913C48.8668 35.786 47.2675 35.0691 45.584 34.1338L44.6127 35.8822C46.3852 36.8669 48.098 37.638 49.7501 38.1887L50.3826 36.2913ZM44.1458 34.7036L39.6818 48.6716L41.5869 49.2804L46.0509 35.3124L44.1458 34.7036ZM40.2672 49.9062C42.1218 50.6382 44.1181 51.3196 46.255 51.951L46.8217 50.033C44.7347 49.4164 42.7949 48.7538 41.0015 48.0458L40.2672 49.9062ZM46.2608 51.9527C48.4701 52.591 50.8906 53.1037 53.5198 53.4932L53.8129 51.5148C51.2581 51.1363 48.9266 50.641 46.8159 50.0313L46.2608 51.9527ZM53.5198 53.4932C56.1678 53.8855 59.0495 54.08 62.1624 54.08V52.08C59.1313 52.08 56.349 51.8905 53.8129 51.5148L53.5198 53.4932ZM62.1624 54.08C64.696 54.08 67.2721 53.757 69.8886 53.1152L69.4122 51.1728C66.9407 51.779 64.5247 52.08 62.1624 52.08V54.08ZM69.8844 53.1162C72.5754 52.4684 75.0515 51.4443 77.3067 50.0411L76.2501 48.3429C74.1852 49.6277 71.9093 50.5716 69.4163 51.1718L69.8844 53.1162ZM77.2983 50.0462C79.6378 48.6222 81.5274 46.7594 82.9554 44.4643L81.2573 43.4077C79.9974 45.4326 78.335 47.0738 76.2584 48.3378L77.2983 50.0462ZM82.9554 44.4643C84.4154 42.118 85.1224 39.3351 85.1224 36.16H83.1224C83.1224 39.0329 82.4854 41.434 81.2573 43.4077L82.9554 44.4643ZM107.331 21.4L106.357 21.171L106.355 21.1817L106.352 21.1925L107.331 21.4ZM108.843 17.296L107.979 16.7921L107.972 16.8039L108.843 17.296ZM111.147 14.704L111.701 15.536L111.147 14.704ZM116.907 14.704L116.352 15.536L116.907 14.704ZM119.139 17.296L118.259 17.7723L118.271 17.7944L118.284 17.8159L119.139 17.296ZM120.651 21.4L119.671 21.6017L119.675 21.6187L119.679 21.6356L120.651 21.4ZM120.651 32.272L119.677 32.043L119.675 32.0537L119.672 32.0645L120.651 32.272ZM119.139 36.376L118.275 35.8721L118.268 35.8839L119.139 36.376ZM116.907 38.896L116.352 38.0639L116.907 38.896ZM111.147 38.896L110.592 39.7281L111.147 38.896ZM108.843 36.376L107.963 36.8523L107.975 36.8744L107.988 36.8959L108.843 36.376ZM107.331 32.272L106.351 32.4737L106.355 32.4907L106.359 32.5076L107.331 32.272ZM94.5146 41.272L93.6136 41.7058L94.5146 41.272ZM102.363 50.128L101.848 50.9855L101.857 50.9909L102.363 50.128ZM125.979 50.128L126.489 50.9877L126.493 50.9855L125.979 50.128ZM133.683 12.328L132.773 12.7435L133.683 12.328ZM125.979 3.544L125.459 4.3982L125.466 4.4026L125.473 4.40688L125.979 3.544ZM102.363 3.544L102.868 4.40693L102.877 4.40149L102.363 3.544ZM94.5146 12.328L95.4156 12.7618L94.5146 12.328ZM107.827 26.8C107.827 24.8376 107.99 23.1091 108.309 21.6075L106.352 21.1925C105.999 22.8589 105.827 24.7304 105.827 26.8H107.827ZM108.304 21.629C108.673 20.0614 109.148 18.7881 109.713 17.7881L107.972 16.8039C107.289 18.0119 106.756 19.4746 106.357 21.171L108.304 21.629ZM109.706 17.7999C110.323 16.7432 110.995 16.0071 111.701 15.536L110.592 13.8719C109.57 14.5529 108.706 15.5448 107.979 16.7921L109.706 17.7999ZM111.701 15.536C112.398 15.0715 113.164 14.84 114.027 14.84V12.84C112.777 12.84 111.623 13.1845 110.592 13.8719L111.701 15.536ZM114.027 14.84C114.889 14.84 115.655 15.0715 116.352 15.536L117.461 13.8719C116.43 13.1845 115.276 12.84 114.027 12.84V14.84ZM116.352 15.536C117.049 16.0011 117.693 16.7269 118.259 17.7723L120.018 16.8197C119.336 15.5611 118.492 14.5589 117.461 13.8719L116.352 15.536ZM118.284 17.8159C118.882 18.7981 119.352 20.0513 119.671 21.6017L121.63 21.1983C121.277 19.4847 120.739 18.0019 119.993 16.7761L118.284 17.8159ZM119.679 21.6356C120.04 23.1268 120.227 24.8455 120.227 26.8H122.227C122.227 24.7225 122.029 22.8412 121.622 21.1644L119.679 21.6356ZM120.227 26.8C120.227 28.7539 120.04 30.4993 119.677 32.043L121.624 32.501C122.029 30.7807 122.227 28.8781 122.227 26.8H120.227ZM119.672 32.0645C119.354 33.5658 118.883 34.8295 118.275 35.8721L120.002 36.8799C120.738 35.6185 121.275 34.1462 121.629 32.4795L119.672 32.0645ZM118.268 35.8839C117.704 36.8812 117.06 37.5921 116.352 38.0639L117.461 39.7281C118.481 39.0479 119.325 38.0788 120.009 36.8681L118.268 35.8839ZM116.352 38.0639C115.655 38.5285 114.889 38.76 114.027 38.76V40.76C115.276 40.76 116.43 40.4155 117.461 39.7281L116.352 38.0639ZM114.027 38.76C113.164 38.76 112.398 38.5285 111.701 38.0639L110.592 39.7281C111.623 40.4155 112.777 40.76 114.027 40.76V38.76ZM111.701 38.0639C110.985 37.5862 110.311 36.8651 109.697 35.8561L107.988 36.8959C108.718 38.0949 109.581 39.0538 110.592 39.7281L111.701 38.0639ZM109.722 35.8997C109.148 34.8394 108.671 33.556 108.302 32.0364L106.359 32.5076C106.758 34.156 107.29 35.6086 107.963 36.8523L109.722 35.8997ZM108.31 32.0703C107.99 30.5168 107.827 28.7618 107.827 26.8H105.827C105.827 28.8702 105.999 30.7632 106.351 32.4737L108.31 32.0703ZM90.7066 26.8C90.7066 32.6623 91.6584 37.6451 93.6136 41.7058L95.4156 40.8382C93.6267 37.1229 92.7066 32.4577 92.7066 26.8H90.7066ZM93.6136 41.7058C95.5613 45.7512 98.3038 48.859 101.848 50.9855L102.877 49.2705C99.7013 47.3651 97.2118 44.5688 95.4156 40.8382L93.6136 41.7058ZM101.857 50.9909C105.39 53.0602 109.457 54.08 114.027 54.08V52.08C109.764 52.08 106.055 51.1318 102.868 49.2651L101.857 50.9909ZM114.027 54.08C118.825 54.08 122.993 53.065 126.489 50.9877L125.468 49.2683C122.34 51.127 118.54 52.08 114.027 52.08V54.08ZM126.493 50.9855C130.042 48.856 132.74 45.7419 134.592 41.6875L132.773 40.8565C131.073 44.5781 128.635 47.368 125.464 49.2705L126.493 50.9855ZM134.592 41.6875C136.445 37.6321 137.347 32.6562 137.347 26.8H135.347C135.347 32.4638 134.472 37.1359 132.773 40.8565L134.592 41.6875ZM137.347 26.8C137.347 20.9438 136.445 15.9679 134.592 11.9125L132.773 12.7435C134.472 16.4641 135.347 21.1362 135.347 26.8H137.347ZM134.592 11.9125C132.739 7.85651 130.039 4.76327 126.484 2.68111L125.473 4.40688C128.638 6.26072 131.074 9.02349 132.773 12.7435L134.592 11.9125ZM126.499 2.6898C123.001 0.56086 118.829 -0.480003 114.027 -0.480003V1.52C118.536 1.52 122.332 2.49514 125.459 4.3982L126.499 2.6898ZM114.027 -0.480003C109.453 -0.480003 105.383 0.565836 101.848 2.6865L102.877 4.40149C106.063 2.49016 109.768 1.52 114.027 1.52V-0.480003ZM101.857 2.68111C98.3072 4.76037 95.5621 7.84717 93.6136 11.8942L95.4156 12.7618C97.211 9.03283 99.6979 6.26363 102.868 4.40688L101.857 2.68111ZM93.6136 11.8942C91.6584 15.9549 90.7066 20.9377 90.7066 26.8H92.7066C92.7066 21.1423 93.6267 16.4771 95.4156 12.7618L93.6136 11.8942ZM159.545 21.4L158.571 21.171L158.569 21.1817L158.566 21.1925L159.545 21.4ZM161.057 17.296L160.193 16.7921L160.186 16.8039L161.057 17.296ZM163.361 14.704L163.915 15.536L163.361 14.704ZM169.121 14.704L168.566 15.536L169.121 14.704ZM171.353 17.296L170.473 17.7723L170.485 17.7944L170.498 17.8159L171.353 17.296ZM172.865 21.4L171.885 21.6017L171.889 21.6187L171.893 21.6356L172.865 21.4ZM172.865 32.272L171.891 32.043L171.889 32.0537L171.886 32.0645L172.865 32.272ZM171.353 36.376L170.489 35.8721L170.482 35.8839L171.353 36.376ZM169.121 38.896L168.566 38.0639L169.121 38.896ZM163.361 38.896L162.806 39.7281L163.361 38.896ZM161.057 36.376L160.177 36.8523L160.189 36.8744L160.202 36.8959L161.057 36.376ZM159.545 32.272L158.565 32.4737L158.569 32.4907L158.573 32.5076L159.545 32.272ZM146.729 41.272L145.828 41.7058L146.729 41.272ZM154.577 50.128L154.062 50.9855L154.071 50.9909L154.577 50.128ZM178.193 50.128L178.703 50.9877L178.707 50.9855L178.193 50.128ZM185.897 12.328L184.987 12.7435L185.897 12.328ZM178.193 3.544L177.673 4.3982L177.68 4.4026L177.687 4.40688L178.193 3.544ZM154.577 3.544L155.082 4.40693L155.091 4.40149L154.577 3.544ZM146.729 12.328L147.63 12.7618L146.729 12.328ZM160.041 26.8C160.041 24.8376 160.204 23.1091 160.523 21.6075L158.566 21.1925C158.213 22.8589 158.041 24.7304 158.041 26.8H160.041ZM160.518 21.629C160.887 20.0614 161.362 18.7881 161.927 17.7881L160.186 16.8039C159.503 18.0119 158.97 19.4746 158.571 21.171L160.518 21.629ZM161.92 17.7999C162.537 16.7432 163.209 16.0071 163.915 15.536L162.806 13.8719C161.785 14.5529 160.92 15.5448 160.193 16.7921L161.92 17.7999ZM163.915 15.536C164.612 15.0715 165.378 14.84 166.241 14.84V12.84C164.991 12.84 163.837 13.1845 162.806 13.8719L163.915 15.536ZM166.241 14.84C167.103 14.84 167.869 15.0715 168.566 15.536L169.675 13.8719C168.644 13.1845 167.49 12.84 166.241 12.84V14.84ZM168.566 15.536C169.263 16.0011 169.907 16.7269 170.473 17.7723L172.232 16.8197C171.55 15.5611 170.706 14.5589 169.675 13.8719L168.566 15.536ZM170.498 17.8159C171.096 18.7981 171.566 20.0513 171.885 21.6017L173.844 21.1983C173.491 19.4847 172.953 18.0019 172.207 16.7761L170.498 17.8159ZM171.893 21.6356C172.254 23.1268 172.441 24.8455 172.441 26.8H174.441C174.441 24.7225 174.243 22.8412 173.836 21.1644L171.893 21.6356ZM172.441 26.8C172.441 28.7539 172.254 30.4993 171.891 32.043L173.838 32.501C174.243 30.7807 174.441 28.8781 174.441 26.8H172.441ZM171.886 32.0645C171.568 33.5658 171.097 34.8295 170.489 35.8721L172.216 36.8799C172.952 35.6185 173.489 34.1462 173.843 32.4795L171.886 32.0645ZM170.482 35.8839C169.918 36.8812 169.274 37.5921 168.566 38.0639L169.675 39.7281C170.696 39.0479 171.539 38.0788 172.223 36.8681L170.482 35.8839ZM168.566 38.0639C167.869 38.5285 167.103 38.76 166.241 38.76V40.76C167.49 40.76 168.644 40.4155 169.675 39.7281L168.566 38.0639ZM166.241 38.76C165.378 38.76 164.612 38.5285 163.915 38.0639L162.806 39.7281C163.837 40.4155 164.991 40.76 166.241 40.76V38.76ZM163.915 38.0639C163.199 37.5862 162.525 36.8651 161.911 35.8561L160.202 36.8959C160.932 38.0949 161.795 39.0538 162.806 39.7281L163.915 38.0639ZM161.936 35.8997C161.362 34.8394 160.885 33.556 160.516 32.0364L158.573 32.5076C158.972 34.156 159.504 35.6086 160.177 36.8523L161.936 35.8997ZM160.524 32.0703C160.204 30.5168 160.041 28.7618 160.041 26.8H158.041C158.041 28.8702 158.213 30.7632 158.565 32.4737L160.524 32.0703ZM142.921 26.8C142.921 32.6623 143.872 37.6451 145.828 41.7058L147.63 40.8382C145.841 37.1229 144.921 32.4577 144.921 26.8H142.921ZM145.828 41.7058C147.775 45.7512 150.518 48.859 154.062 50.9855L155.091 49.2705C151.915 47.3651 149.426 44.5688 147.63 40.8382L145.828 41.7058ZM154.071 50.9909C157.604 53.0602 161.671 54.08 166.241 54.08V52.08C161.978 52.08 158.269 51.1318 155.082 49.2651L154.071 50.9909ZM166.241 54.08C171.039 54.08 175.208 53.065 178.703 50.9877L177.682 49.2683C174.554 51.127 170.754 52.08 166.241 52.08V54.08ZM178.707 50.9855C182.256 48.856 184.954 45.7419 186.806 41.6875L184.987 40.8565C183.287 44.5781 180.849 47.368 177.678 49.2705L178.707 50.9855ZM186.806 41.6875C188.659 37.6321 189.561 32.6562 189.561 26.8H187.561C187.561 32.4638 186.687 37.1359 184.987 40.8565L186.806 41.6875ZM189.561 26.8C189.561 20.9438 188.659 15.9679 186.806 11.9125L184.987 12.7435C186.687 16.4641 187.561 21.1362 187.561 26.8H189.561ZM186.806 11.9125C184.953 7.85651 182.253 4.76327 178.698 2.68111L177.687 4.40688C180.852 6.26072 183.288 9.02349 184.987 12.7435L186.806 11.9125ZM178.713 2.6898C175.215 0.56086 171.043 -0.480003 166.241 -0.480003V1.52C170.75 1.52 174.546 2.49514 177.673 4.3982L178.713 2.6898ZM166.241 -0.480003C161.667 -0.480003 157.597 0.565836 154.062 2.6865L155.091 4.40149C158.277 2.49016 161.982 1.52 166.241 1.52V-0.480003ZM154.071 2.68111C150.521 4.76037 147.776 7.84717 145.828 11.8942L147.63 12.7618C149.425 9.03283 151.912 6.26363 155.082 4.40688L154.071 2.68111ZM145.828 11.8942C143.872 15.9549 142.921 20.9377 142.921 26.8H144.921C144.921 21.1423 145.841 16.4771 147.63 12.7618L145.828 11.8942ZM197.935 38.68H196.935V39.68H197.935V38.68ZM239.695 38.68V39.68H240.695V38.68H239.695ZM239.695 25.36H240.695V24.36H239.695V25.36ZM197.935 25.36V24.36H196.935V25.36H197.935ZM211.615 11.32V10.32H210.615V11.32H211.615ZM211.615 52.72H210.615V53.72H211.615V52.72ZM226.015 52.72V53.72H227.015V52.72H226.015ZM226.015 11.32H227.015V10.32H226.015V11.32ZM197.935 39.68H239.695V37.68H197.935V39.68ZM240.695 38.68V25.36H238.695V38.68H240.695ZM239.695 24.36H197.935V26.36H239.695V24.36ZM196.935 25.36V38.68H198.935V25.36H196.935ZM210.615 11.32V52.72H212.615V11.32H210.615ZM211.615 53.72H226.015V51.72H211.615V53.72ZM227.015 52.72V11.32H225.015V52.72H227.015ZM226.015 10.32H211.615V12.32H226.015V10.32Z" fill="#FCD702"/>
</svg>
