<svg width="133" height="54" viewBox="0 0 133 54" fill="none" xmlns="http://www.w3.org/2000/svg">
<path d="M0.32 18.952H-0.68V20.1979L0.536372 19.9283L0.32 18.952ZM13.64 16H14.64V14.7541L13.4236 15.0237L13.64 16ZM13.64 52H12.64V53H13.64V52ZM28.76 52V53H29.76V52H28.76ZM28.76 0.519997H29.76V-0.681747L28.5783 -0.46335L28.76 0.519997ZM0.32 5.776L0.138268 4.79265L-0.68 4.94387V5.776H0.32ZM0.536372 19.9283L13.8564 16.9763L13.4236 15.0237L0.103629 17.9757L0.536372 19.9283ZM12.64 16V52H14.64V16H12.64ZM13.64 53H28.76V51H13.64V53ZM29.76 52V0.519997H27.76V52H29.76ZM28.5783 -0.46335L0.138268 4.79265L0.501733 6.75935L28.9417 1.50335L28.5783 -0.46335ZM-0.68 5.776V18.952H1.32V5.776H-0.68ZM57.7704 27.88H56.7704V28.88H57.7704V27.88ZM69.9384 26.656L70.1567 27.6319L70.166 27.6297L69.9384 26.656ZM78.7944 22.552L79.4411 23.3148L79.4506 23.3066L78.7944 22.552ZM73.0344 2.392L72.6476 3.31419H72.6477L73.0344 2.392ZM51.4344 2.824L50.9815 1.9324L50.9757 1.93538L51.4344 2.824ZM44.5224 9.016L45.3686 9.54881L44.5224 9.016ZM42.0744 17.728H41.0744V18.728H42.0744V17.728ZM56.5464 17.728V18.728H57.5464V17.728H56.5464ZM64.5384 13.192L64.1193 14.1L64.1599 14.1187L64.202 14.1337L64.5384 13.192ZM66.0504 14.272L66.8696 13.6985V13.6985L66.0504 14.272ZM64.0344 19.816L63.4911 18.9764L63.4794 18.984L63.4678 18.992L64.0344 19.816ZM61.2264 21.04L60.9739 20.0723L60.9633 20.0752L61.2264 21.04ZM57.7704 21.472V20.472H56.7704V21.472H57.7704ZM73.4664 51.424L73.0904 50.4974L73.0856 50.4993L73.4664 51.424ZM80.9544 45.952L80.1485 45.3599L80.1464 45.3628L80.9544 45.952ZM81.6744 31.336L80.8325 31.8757L80.8406 31.8883L80.8491 31.9007L81.6744 31.336ZM76.4184 26.728L75.9487 27.6109L75.9564 27.6149L76.4184 26.728ZM68.2824 24.136L68.1008 25.1194L68.1094 25.121L68.118 25.1224L68.2824 24.136ZM57.7704 23.272V22.272H56.7704V23.272H57.7704ZM57.7704 30.76H56.7704V31.76H57.7704V30.76ZM62.6664 31.264L62.4154 32.232L62.436 32.2373L62.4568 32.2418L62.6664 31.264ZM65.8344 32.56L65.2344 33.36L65.2509 33.3724L65.2678 33.384L65.8344 32.56ZM67.4904 34.432L66.5842 34.8549L66.5899 34.8671L66.5959 34.8792L67.4904 34.432ZM67.2024 39.4L67.9887 40.0178L67.999 40.0048L68.0088 39.9914L67.2024 39.4ZM65.0424 40.84L65.31 41.8035L65.3269 41.7988L65.3435 41.7936L65.0424 40.84ZM58.9224 40.552L58.5285 41.4711L58.5361 41.4744L58.5437 41.4775L58.9224 40.552ZM56.4024 38.392L55.5521 38.9184L55.561 38.9327L55.5703 38.9467L56.4024 38.392ZM55.4664 34.36H56.4664V33.36H55.4664V34.36ZM39.9144 34.36V33.36H38.9144V34.36H39.9144ZM41.3544 41.416L40.4313 41.8006L40.4342 41.8076L41.3544 41.416ZM45.5304 47.536L46.2375 46.8289L45.5304 47.536ZM52.2264 51.856L51.855 52.7845L51.8607 52.7868L52.2264 51.856ZM57.7704 28.88C62.2941 28.88 66.4248 28.4666 70.1567 27.6319L69.7201 25.6801C66.156 26.4774 62.1746 26.88 57.7704 26.88V28.88ZM70.166 27.6297C73.9701 26.7405 77.0804 25.3162 79.4411 23.3148L78.1477 21.7892C76.0924 23.5318 73.2986 24.8435 69.7107 25.6823L70.166 27.6297ZM79.4506 23.3066C81.9002 21.1765 83.1064 18.3212 83.1064 14.848H81.1064C81.1064 17.8068 80.1046 20.0875 78.1382 21.7974L79.4506 23.3066ZM83.1064 14.848C83.1064 11.9114 82.2778 9.25948 80.6173 6.92447L78.9874 8.08352C80.399 10.0685 81.1064 12.3125 81.1064 14.848H83.1064ZM80.6173 6.92447C78.9519 4.58252 76.5315 2.77415 73.4211 1.4698L72.6477 3.31419C75.4893 4.50584 77.5808 6.10547 78.9874 8.08352L80.6173 6.92447ZM73.4211 1.4698C70.2888 0.156239 66.5007 -0.480003 62.0904 -0.480003V1.52C66.3201 1.52 69.828 2.13176 72.6476 3.31419L73.4211 1.4698ZM62.0904 -0.480003C57.8846 -0.480003 54.1715 0.312086 50.9815 1.93242L51.8872 3.71558C54.7452 2.26391 58.1361 1.52 62.0904 1.52V-0.480003ZM50.9757 1.93538C47.8564 3.54538 45.412 5.72621 43.6761 8.48318L45.3686 9.54881C46.8967 7.12179 49.0604 5.17462 51.893 3.71262L50.9757 1.93538ZM43.6761 8.48318C41.9385 11.2429 41.0744 14.3333 41.0744 17.728H43.0744C43.0744 14.6907 43.8422 11.9731 45.3686 9.54881L43.6761 8.48318ZM42.0744 18.728H56.5464V16.728H42.0744V18.728ZM57.5464 17.728C57.5464 16.4927 57.952 15.5728 58.7293 14.8695L57.3875 13.3865C56.1487 14.5072 55.5464 15.9873 55.5464 17.728H57.5464ZM58.7293 14.8695C59.5179 14.156 60.5819 13.76 62.0184 13.76V11.76C60.1909 11.76 58.6148 12.276 57.3875 13.3865L58.7293 14.8695ZM62.0184 13.76C62.9997 13.76 63.6781 13.8963 64.1193 14.1L64.9574 12.284C64.1506 11.9117 63.149 11.76 62.0184 11.76V13.76ZM64.202 14.1337C64.7221 14.3195 65.0379 14.5694 65.2311 14.8455L66.8696 13.6985C66.3908 13.0146 65.6987 12.5445 64.8747 12.2503L64.202 14.1337ZM65.2311 14.8455C65.4417 15.1462 65.5544 15.4951 65.5544 15.928H67.5544C67.5544 15.1129 67.3311 14.3578 66.8696 13.6985L65.2311 14.8455ZM65.5544 15.928C65.5544 16.4356 65.4053 16.9462 65.0652 17.4752L66.7476 18.5568C67.2715 17.7417 67.5544 16.8604 67.5544 15.928H65.5544ZM65.0652 17.4752C64.7249 18.0046 64.213 18.5093 63.4911 18.9764L64.5776 20.6556C65.4877 20.0667 66.2238 19.3714 66.7476 18.5568L65.0652 17.4752ZM63.4678 18.992C62.8141 19.4414 61.99 19.8073 60.974 20.0724L61.4788 22.0076C62.6707 21.6967 63.7186 21.2466 64.6009 20.64L63.4678 18.992ZM60.9633 20.0752C60.004 20.3368 58.9417 20.472 57.7704 20.472V22.472C59.0951 22.472 60.3367 22.3192 61.4895 22.0048L60.9633 20.0752ZM56.7704 21.472V27.88H58.7704V21.472H56.7704ZM61.3704 54.44C66.2569 54.44 70.4273 53.7568 73.8471 52.3487L73.0856 50.4993C69.9774 51.7792 66.0839 52.44 61.3704 52.44V54.44ZM73.8424 52.3506C77.2835 50.9542 79.9479 49.0296 81.7624 46.5412L80.1464 45.3628C78.6008 47.4824 76.2732 49.2058 73.0904 50.4974L73.8424 52.3506ZM81.7603 46.5441C83.617 44.0168 84.5464 41.1445 84.5464 37.96H82.5464C82.5464 40.7275 81.7477 43.1832 80.1485 45.3599L81.7603 46.5441ZM84.5464 37.96C84.5464 35.2022 83.8801 32.7888 82.4997 30.7713L80.8491 31.9007C81.9647 33.5312 82.5464 35.5338 82.5464 37.96H84.5464ZM82.5163 30.7963C81.2073 28.7543 79.3128 27.108 76.8803 25.8411L75.9564 27.6149C78.1319 28.748 79.7415 30.1737 80.8325 31.8757L82.5163 30.7963ZM76.888 25.8451C74.5156 24.5832 71.6953 23.691 68.4468 23.1496L68.118 25.1224C71.2055 25.637 73.8091 26.4728 75.9488 27.6109L76.888 25.8451ZM68.4639 23.1526C65.2724 22.5634 61.7062 22.272 57.7704 22.272V24.272C61.6105 24.272 65.0523 24.5566 68.1008 25.1194L68.4639 23.1526ZM56.7704 23.272V30.76H58.7704V23.272H56.7704ZM57.7704 31.76C59.6894 31.76 61.2299 31.9246 62.4154 32.232L62.9173 30.296C61.5108 29.9314 59.7873 29.76 57.7704 29.76V31.76ZM62.4568 32.2418C63.716 32.5116 64.6209 32.8999 65.2344 33.36L66.4344 31.76C65.5118 31.0681 64.3048 30.5924 62.8759 30.2862L62.4568 32.2418ZM65.2678 33.384C65.9146 33.8287 66.3358 34.3226 66.5842 34.8549L68.3966 34.0091C67.973 33.1014 67.2902 32.3473 66.4009 31.736L65.2678 33.384ZM66.5959 34.8792C66.8656 35.4186 66.9944 35.9621 66.9944 36.52H68.9944C68.9944 35.6379 68.7871 34.7894 68.3848 33.9848L66.5959 34.8792ZM66.9944 36.52C66.9944 37.5796 66.7613 38.3105 66.396 38.8086L68.0088 39.9914C68.6995 39.0495 68.9944 37.8604 68.9944 36.52H66.9944ZM66.4161 38.7822C66.0269 39.2775 65.4852 39.6515 64.7412 39.8864L65.3435 41.7936C66.4236 41.4525 67.3219 40.8665 67.9887 40.0178L66.4161 38.7822ZM64.7747 39.8765C64.0152 40.0874 63.1239 40.2 62.0904 40.2V42.2C63.2648 42.2 64.3415 42.0725 65.31 41.8035L64.7747 39.8765ZM62.0904 40.2C61.1744 40.2 60.2466 40.0133 59.301 39.6265L58.5437 41.4775C59.7102 41.9547 60.8944 42.2 62.0904 42.2V40.2ZM59.3163 39.6329C58.505 39.2852 57.8105 38.7014 57.2344 37.8373L55.5703 38.9467C56.3382 40.0986 57.3237 40.9548 58.5285 41.4711L59.3163 39.6329ZM57.2526 37.8656C56.7592 37.0686 56.4664 35.9279 56.4664 34.36H54.4664C54.4664 36.1521 54.7975 37.6994 55.5521 38.9184L57.2526 37.8656ZM55.4664 33.36H39.9144V35.36H55.4664V33.36ZM38.9144 34.36C38.9144 36.8973 39.4226 39.3797 40.4313 41.8006L42.2775 41.0314C41.3662 38.8443 40.9144 36.6227 40.9144 34.36H38.9144ZM40.4342 41.8076C41.447 44.1875 42.9135 46.3333 44.8233 48.2431L46.2375 46.8289C44.4993 45.0907 43.1818 43.1565 42.2745 41.0244L40.4342 41.8076ZM44.8233 48.2431C46.7524 50.1722 49.1022 51.6833 51.855 52.7845L52.5978 50.9275C50.0706 49.9166 47.9563 48.5478 46.2375 46.8289L44.8233 48.2431ZM51.8607 52.7868C54.6841 53.896 57.8593 54.44 61.3704 54.44V52.44C58.0654 52.44 55.1446 51.928 52.592 50.9252L51.8607 52.7868ZM87.8928 16.36H86.8928V17.36H87.8928V16.36ZM109.421 16.36L110.308 16.8222L111.07 15.36H109.421V16.36ZM90.8448 52L89.958 51.5378L89.1959 53H90.8448V52ZM108.053 52V53H108.679L108.952 52.4369L108.053 52ZM132.533 1.6L133.432 2.0369L134.13 0.599997H132.533V1.6ZM87.8928 1.6V0.599997H86.8928V1.6H87.8928ZM87.8928 17.36H109.421V15.36H87.8928V17.36ZM108.534 15.8978L89.958 51.5378L91.7316 52.4622L110.308 16.8222L108.534 15.8978ZM90.8448 53H108.053V51H90.8448V53ZM108.952 52.4369L133.432 2.0369L131.633 1.16309L107.153 51.5631L108.952 52.4369ZM132.533 0.599997H87.8928V2.6H132.533V0.599997ZM86.8928 1.6V16.36H88.8928V1.6H86.8928Z" fill="#FCD702"/>
</svg>
