<svg width="458" height="28" viewBox="0 0 458 28" fill="none" xmlns="http://www.w3.org/2000/svg">
<path d="M31.32 19.12V22.32H10.64V5.68H31.32V8.88L41.76 10.32V-1.90735e-06H0.2V28H41.76V17.68L31.32 19.12ZM44.9484 -1.90735e-06V11.2L55.3884 9.76V5.68H62.1084V28H72.5484V5.68H79.2684V9.76L89.7084 11.2V-1.90735e-06H44.9484ZM108.733 5.68H112.333L116.573 15.32H104.493L108.733 5.68ZM120.733 -1.90735e-06H92.9328V5.68H97.8928L88.1328 28H98.9728L102.013 21H119.053L122.093 28H132.893L120.733 -1.90735e-06ZM130.495 -1.90735e-06V11.2L140.935 9.76V5.68H147.655V28H158.095V5.68H164.815V9.76L175.255 11.2V-1.90735e-06H130.495ZM210.383 -1.90735e-06V5.6L189.703 15.6V-1.90735e-06H179.263V28H189.703V23.08L210.383 13.08V28H220.823V-1.90735e-06H210.383ZM258.351 19.12V22.32H237.671V5.68H258.351V8.88L268.791 10.32V-1.90735e-06H227.231V28H268.791V17.68L258.351 19.12ZM271.98 -1.90735e-06V11.2L282.42 9.76V5.68H289.14V28H299.58V5.68H306.3V9.76L316.74 11.2V-1.90735e-06H271.98ZM351.867 -1.90735e-06V5.6L331.187 15.6V-1.90735e-06H320.747V28H331.187V23.08L351.867 13.08V28H362.307V-1.90735e-06H351.867ZM403.356 22L393.916 14.2L410.036 9.84V-1.90735e-06H399.596V5.48L379.156 11V-1.90735e-06H368.716V28H379.156V18.16L383.996 16.84L397.156 28H410.276V22H403.356ZM432.873 5.68H436.473L440.713 15.32H428.633L432.873 5.68ZM444.873 -1.90735e-06H417.073V5.68H422.033L412.273 28H423.113L426.153 21H443.193L446.233 28H457.033L444.873 -1.90735e-06Z" fill="#E3E3E3"/>
</svg>
