<svg width="1258" height="77" viewBox="0 0 1258 77" fill="none" xmlns="http://www.w3.org/2000/svg">
<path d="M86.38 52.58V61.38H29.51V15.62H86.38V24.42L115.09 28.38V-5.24521e-06H0.800001V77H115.09V48.62L86.38 52.58ZM123.858 -5.24521e-06V30.8L152.568 26.84V15.62H171.048V77H199.758V15.62H218.238V26.84L246.948 30.8V-5.24521e-06H123.858ZM299.265 15.62H309.165L320.825 42.13H287.605L299.265 15.62ZM332.265 -5.24521e-06H255.815V15.62H269.455L242.615 77H272.425L280.785 57.75H327.645L336.005 77H365.705L332.265 -5.24521e-06ZM359.112 -5.24521e-06V30.8L387.822 26.84V15.62H406.302V77H435.012V15.62H453.492V26.84L482.202 30.8V-5.24521e-06H359.112ZM578.802 -5.24521e-06V15.4L521.932 42.9V-5.24521e-06H493.222V77H521.932V63.47L578.802 35.97V77H607.512V-5.24521e-06H578.802ZM710.716 52.58V61.38H653.846V15.62H710.716V24.42L739.426 28.38V-5.24521e-06H625.136V77H739.426V48.62L710.716 52.58ZM748.194 -5.24521e-06V30.8L776.904 26.84V15.62H795.384V77H824.094V15.62H842.574V26.84L871.284 30.8V-5.24521e-06H748.194ZM967.884 -5.24521e-06V15.4L911.014 42.9V-5.24521e-06H882.304V77H911.014V63.47L967.884 35.97V77H996.594V-5.24521e-06H967.884ZM1109.48 60.5L1083.52 39.05L1127.85 27.06V-5.24521e-06H1099.14V15.07L1042.93 30.25V-5.24521e-06H1014.22V77H1042.93V49.94L1056.24 46.31L1092.43 77H1128.51V60.5H1109.48ZM1190.65 15.62H1200.55L1212.21 42.13H1178.99L1190.65 15.62ZM1223.65 -5.24521e-06H1147.2V15.62H1160.84L1134 77H1163.81L1172.17 57.75H1219.03L1227.39 77H1257.09L1223.65 -5.24521e-06Z" fill="#191919"/>
</svg>
