<svg width="852" height="77" viewBox="0 0 852 77" fill="none" xmlns="http://www.w3.org/2000/svg">
<path d="M86.38 61.38H29.51V15.62H86.38V61.38ZM115.09 -5.24521e-06H0.800001V77H115.09V-5.24521e-06ZM126.114 -5.24521e-06V30.8L154.824 26.84V15.62H173.304V77H202.014V15.62H220.494V26.84L249.204 30.8V-5.24521e-06H126.114ZM342.944 15.62V21.23L321.384 30.69H296.744V46.31H321.384L342.944 55.77V61.38H286.734V52.36L258.024 50.05V77H371.654V46.75L346.464 38.5L371.654 30.25V-5.24521e-06H258.024V26.95L286.734 24.64V15.62H342.944ZM545.548 77V-5.24521e-06H516.838V77H545.548ZM474.818 61.38H417.948V42.02L474.818 51.59V61.38ZM417.948 24.75V-5.24521e-06H389.238V77H503.528V39.16L417.948 24.75ZM627.064 46.31L648.734 55.77V61.38H591.864V46.31H627.064ZM563.154 -5.24521e-06V77H677.444V46.75L652.254 38.5L677.444 30.25V-5.24521e-06H563.154ZM591.864 30.69V15.62H648.734V21.23L627.064 30.69H591.864ZM851.378 77V-5.24521e-06H822.668V77H851.378ZM780.648 61.38H723.778V42.02L780.648 51.59V61.38ZM723.778 24.75V-5.24521e-06H695.068V77H809.358V39.16L723.778 24.75Z" fill="#191919"/>
</svg>
