<svg width="207" height="28" viewBox="0 0 207 28" fill="none" xmlns="http://www.w3.org/2000/svg">
<path d="M31.32 22.32H10.64V5.68H31.32V22.32ZM41.76 -1.90735e-06H0.2V28H41.76V-1.90735e-06ZM113.673 -1.90735e-06H103.233V11.08H82.5931V-1.90735e-06H72.1531V28H82.5931V16.76H103.233V28H113.673V-1.90735e-06ZM137.483 5.68H141.083L145.323 15.32H133.243L137.483 5.68ZM149.483 -1.90735e-06H121.683V5.68H126.643L116.883 28H127.723L130.763 21H147.803L150.843 28H161.643L149.483 -1.90735e-06ZM195.968 19.12V22.32H175.288V5.68H195.968V8.88L206.408 10.32V-1.90735e-06H164.848V28H206.408V17.68L195.968 19.12Z" fill="#E3E3E3"/>
</svg>
