<svg width="568" height="77" viewBox="0 0 568 77" fill="none" xmlns="http://www.w3.org/2000/svg">
<path d="M86.38 61.38H29.51V15.62H86.38V61.38ZM115.09 -5.24521e-06H0.800001V77H115.09V-5.24521e-06ZM312.851 -5.24521e-06H284.141V30.47H227.381V-5.24521e-06H198.671V77H227.381V46.09H284.141V77H312.851V-5.24521e-06ZM378.328 15.62H388.228L399.888 42.13H366.668L378.328 15.62ZM411.328 -5.24521e-06H334.878V15.62H348.518L321.678 77H351.488L359.848 57.75H406.708L415.068 77H444.768L411.328 -5.24521e-06ZM539.163 52.58V61.38H482.293V15.62H539.163V24.42L567.873 28.38V-5.24521e-06H453.583V77H567.873V48.62L539.163 52.58Z" fill="#191919"/>
</svg>
