<svg width="1397" height="103" viewBox="0 0 1397 103" fill="none" xmlns="http://www.w3.org/2000/svg">
<path d="M79.12 27.73H100.13V73.38H79.12V27.73ZM50.41 73.38H29.51V27.73H50.41V73.38ZM128.84 12H79.23V0.339994H50.41V12H0.800001V89H50.41V102.86H79.12V89H128.84V12ZM232.044 73.38H175.174V27.62H232.044V73.38ZM260.754 12H146.464V89H260.754V12ZM271.778 12V42.8L300.488 38.84V27.62H318.968V89H347.678V27.62H366.158V38.84L394.868 42.8V12H271.778ZM491.468 73.38H434.598V27.62H491.468V73.38ZM520.178 12H405.888V89H520.178V12ZM640.762 42.03V12H537.802V89H566.512V27.62H612.052V38.07L640.762 42.03ZM693.074 27.62H702.974L714.634 54.13H681.414L693.074 27.62ZM726.074 12H649.624V27.62H663.264L636.424 89H666.234L674.594 69.75H721.454L729.814 89H759.514L726.074 12ZM816.179 27.62H826.079L852.919 89H882.619L849.179 12H772.729V27.62H786.369L759.529 89H789.339L816.179 27.62ZM977.015 27.62V37.52L920.145 47.09V27.62H977.015ZM920.145 64.36L1005.72 49.95V12H891.435V89H1005.72V64.47L977.015 67.44V73.38H920.145V64.36ZM1108.93 39.39L1052.06 48.96V27.62H1108.93V39.39ZM1023.35 12V89H1052.06V66.23L1137.64 51.82V12H1023.35ZM1237.51 27.62V37.52L1180.64 47.09V27.62H1237.51ZM1180.64 64.36L1266.22 49.95V12H1151.93V89H1266.22V64.47L1237.51 67.44V73.38H1180.64V64.36ZM1310.47 27.62H1367.34V46.98L1310.47 37.41V27.62ZM1281.76 12V49.84L1314.98 55.45L1277.25 89H1316.96L1348.31 61.06L1367.34 64.25V89H1396.05V12H1281.76Z" fill="#191919"/>
</svg>
