<svg width="508" height="39" viewBox="0 0 508 39" fill="none" xmlns="http://www.w3.org/2000/svg">
<path d="M28.68 10.72H36.32V27.32H28.68V10.72ZM18.24 27.32H10.64V10.72H18.24V27.32ZM46.76 5H28.72V0.759998H18.24V5H0.2V33H18.24V38.04H28.68V33H46.76V5ZM84.2888 27.32H63.6088V10.68H84.2888V27.32ZM94.7288 5H53.1688V33H94.7288V5ZM98.7375 5V16.2L109.178 14.76V10.68H115.898V33H126.338V10.68H133.058V14.76L143.498 16.2V5H98.7375ZM178.625 27.32H157.945V10.68H178.625V27.32ZM189.065 5H147.505V33H189.065V5ZM232.913 15.92V5H195.473V33H205.913V10.68H222.473V14.48L232.913 15.92ZM251.936 10.68H255.536L259.776 20.32H247.696L251.936 10.68ZM263.936 5H236.136V10.68H241.096L231.336 33H242.176L245.216 26H262.256L265.296 33H276.096L263.936 5ZM296.702 10.68H300.302L310.062 33H320.862L308.702 5H280.902V10.68H285.862L276.102 33H286.942L296.702 10.68ZM355.187 10.68V14.28L334.507 17.76V10.68H355.187ZM334.507 24.04L365.627 18.8V5H324.067V33H365.627V24.08L355.187 25.16V27.32H334.507V24.04ZM403.156 14.96L382.476 18.44V10.68H403.156V14.96ZM372.036 5V33H382.476V24.72L413.596 19.48V5H372.036ZM449.914 10.68V14.28L429.234 17.76V10.68H449.914ZM429.234 24.04L460.354 18.8V5H418.794V33H460.354V24.08L449.914 25.16V27.32H429.234V24.04ZM476.443 10.68H497.123V17.72L476.443 14.24V10.68ZM466.003 5V18.76L478.083 20.8L464.363 33H478.803L490.203 22.84L497.123 24V33H507.563V5H466.003Z" fill="#E3E3E3"/>
</svg>
