<svg width="871" height="97" viewBox="0 0 871 97" fill="none" xmlns="http://www.w3.org/2000/svg">
<path d="M82.5571 33.1L83.1686 33.8913L83.5477 33.5983L83.5569 33.1192L82.5571 33.1ZM83.1771 0.859997L84.1769 0.879227L84.2171 -1.20736L82.5657 0.0687141L83.1771 0.859997ZM1.33711 64.1L0.725662 63.3087L0.346508 63.6017L0.337295 64.0808L1.33711 64.1ZM0.71711 96.34L-0.282706 96.3208L-0.322833 98.4074L1.32856 97.1313L0.71711 96.34ZM26.7571 5.19999H27.7571V4.19999H26.7571V5.19999ZM0.71711 5.19999V4.19999H-0.282891V5.19999H0.71711ZM0.71711 96.34H-0.282891V98.6733L1.40676 97.0641L0.71711 96.34ZM26.7571 71.54L27.4468 72.2641L27.7571 71.9686V71.54H26.7571ZM83.1771 0.859997H84.1771V-1.55421L82.47 0.152893L83.1771 0.859997ZM57.1371 26.9L56.43 26.1929L56.1371 26.4858V26.9H57.1371ZM57.1371 92H56.1371V93H57.1371V92ZM83.1771 92V93H84.1771V92H83.1771ZM83.5569 33.1192L84.1769 0.879227L82.1773 0.840771L81.5573 33.0808L83.5569 33.1192ZM82.5657 0.0687141L0.725662 63.3087L1.94856 64.8913L83.7886 1.65128L82.5657 0.0687141ZM0.337295 64.0808L-0.282706 96.3208L1.71692 96.3592L2.33692 64.1192L0.337295 64.0808ZM1.32856 97.1313L83.1686 33.8913L81.9457 32.3087L0.105662 95.5487L1.32856 97.1313ZM26.7571 4.19999H0.71711V6.19999H26.7571V4.19999ZM-0.282891 5.19999V96.34H1.71711V5.19999H-0.282891ZM1.40676 97.0641L27.4468 72.2641L26.0675 70.8159L0.0274544 95.6159L1.40676 97.0641ZM27.7571 71.54V5.19999H25.7571V71.54H27.7571ZM82.47 0.152893L56.43 26.1929L57.8442 27.6071L83.8842 1.5671L82.47 0.152893ZM56.1371 26.9V92H58.1371V26.9H56.1371ZM57.1371 93H83.1771V91H57.1371V93ZM84.1771 92V0.859997H82.1771V92H84.1771ZM106.326 59.14H105.326V60.14H106.326V59.14ZM175.766 59.14V60.14H176.766V59.14H175.766ZM175.766 34.96H176.766V33.96H175.766V34.96ZM106.326 34.96V33.96H105.326V34.96H106.326ZM158.778 5.19999V4.19999H157.778V5.19999H158.778ZM158.778 92H157.778V93H158.778V92ZM186.058 92V93H187.058V92H186.058ZM186.058 5.19999H187.058V4.19999H186.058V5.19999ZM100.498 5.19999V4.19999H99.4984V5.19999H100.498ZM100.498 92H99.4984V93H100.498V92ZM127.778 92V93H128.778V92H127.778ZM127.778 5.19999H128.778V4.19999H127.778V5.19999ZM106.326 60.14H175.766V58.14H106.326V60.14ZM176.766 59.14V34.96H174.766V59.14H176.766ZM175.766 33.96H106.326V35.96H175.766V33.96ZM105.326 34.96V59.14H107.326V34.96H105.326ZM157.778 5.19999V92H159.778V5.19999H157.778ZM158.778 93H186.058V91H158.778V93ZM187.058 92V5.19999H185.058V92H187.058ZM186.058 4.19999H158.778V6.19999H186.058V4.19999ZM99.4984 5.19999V92H101.498V5.19999H99.4984ZM100.498 93H127.778V91H100.498V93ZM128.778 92V5.19999H126.778V92H128.778ZM127.778 4.19999H100.498V6.19999H127.778V4.19999ZM231.452 37.44L230.623 36.8801L230.62 36.8853L231.452 37.44ZM239.512 30.62L239.11 29.7043L239.102 29.7081L239.512 30.62ZM261.336 30L260.996 30.9406L261.008 30.9448L261.02 30.9487L261.336 30ZM269.148 33.968L268.553 34.7716L268.56 34.7767L268.567 34.7817L269.148 33.968ZM275.348 39.052L274.658 39.7754L276.348 41.389V39.052H275.348ZM275.348 11.028H276.348V10.5104L275.926 10.2116L275.348 11.028ZM264.188 5.076L263.82 6.00583L263.827 6.00836L264.188 5.076ZM228.104 5.944L228.432 6.88884L228.104 5.944ZM212.232 15.244L212.911 15.9783L212.232 15.244ZM202.064 67.448L202.984 67.0557L202.064 67.448ZM212.232 81.956L211.553 82.6903L212.232 81.956ZM228.104 91.256L228.432 90.3112L228.104 91.256ZM264.188 92L263.827 91.0676L263.815 91.0721L263.803 91.0769L264.188 92ZM275.348 86.172L275.912 86.9978L276.348 86.7V86.172H275.348ZM275.348 58.148H276.348V55.811L274.658 57.4246L275.348 58.148ZM269.148 63.232L269.724 64.0498L269.729 64.0457L269.148 63.232ZM261.336 67.2L260.996 66.2594L261.336 67.2ZM239.512 66.58L239.102 67.492L239.11 67.4956L239.512 66.58ZM231.452 59.884L230.613 60.4282L230.622 60.4414L230.631 60.4544L231.452 59.884ZM229.476 48.6C229.476 44.2843 230.434 40.7699 232.284 37.9947L230.62 36.8853C228.502 40.0621 227.476 43.9877 227.476 48.6H229.476ZM232.281 37.9999C234.245 35.0922 236.788 32.9422 239.922 31.5319L239.102 29.7081C235.622 31.2737 232.792 33.6705 230.623 36.8801L232.281 37.9999ZM239.914 31.5356C243.165 30.1083 246.747 29.388 250.672 29.388V27.388C246.496 27.388 242.638 28.1557 239.11 29.7044L239.914 31.5356ZM250.672 29.388C254.723 29.388 258.157 29.9152 260.996 30.9406L261.676 29.0594C258.563 27.9355 254.888 27.388 250.672 27.388V29.388ZM261.02 30.9487C263.909 31.9116 266.416 33.1885 268.553 34.7716L269.743 33.1644C267.416 31.4408 264.716 30.0724 261.652 29.0513L261.02 30.9487ZM268.567 34.7817C270.848 36.4111 272.877 38.0759 274.658 39.7754L276.039 38.3286C274.182 36.5561 272.078 34.8316 269.729 33.1543L268.567 34.7817ZM276.348 39.052V11.028H274.348V39.052H276.348ZM275.926 10.2116C272.466 7.76474 268.673 5.74257 264.55 4.14363L263.827 6.00836C267.804 7.55075 271.451 9.49659 274.771 11.8444L275.926 10.2116ZM264.556 4.14619C260.428 2.51221 255.123 1.72 248.688 1.72V3.72C254.983 3.72 260.012 4.49845 263.82 6.0058L264.556 4.14619ZM248.688 1.72C241.07 1.72 234.096 2.8084 227.777 4.99916L228.432 6.88884C234.512 4.78093 241.261 3.72 248.688 3.72V1.72ZM227.777 4.99916C221.459 7.18915 216.046 10.3564 211.553 14.5097L212.911 15.9783C217.181 12.0302 222.349 8.99751 228.432 6.88884L227.777 4.99916ZM211.553 14.5097C207.066 18.6585 203.595 23.6119 201.144 29.3597L202.984 30.1443C205.327 24.6494 208.636 19.9309 212.911 15.9783L211.553 14.5097ZM201.144 29.3597C198.687 35.1209 197.468 41.5395 197.468 48.6H199.468C199.468 41.7725 200.646 35.6258 202.984 30.1443L201.144 29.3597ZM197.468 48.6C197.468 55.6605 198.687 62.0791 201.144 67.8403L202.984 67.0557C200.646 61.5742 199.468 55.4275 199.468 48.6H197.468ZM201.144 67.8403C203.595 73.5881 207.066 78.5415 211.553 82.6903L212.911 81.2217C208.636 77.2691 205.327 72.5506 202.984 67.0557L201.144 67.8403ZM211.553 82.6903C216.046 86.8436 221.459 90.0108 227.777 92.2008L228.432 90.3112C222.349 88.2025 217.181 85.1697 212.911 81.2217L211.553 82.6903ZM227.777 92.2008C234.096 94.3916 241.07 95.48 248.688 95.48V93.48C241.261 93.48 234.512 92.4191 228.432 90.3112L227.777 92.2008ZM248.688 95.48C255.128 95.48 260.439 94.6455 264.573 92.9231L263.803 91.0769C260.001 92.6612 254.979 93.48 248.688 93.48V95.48ZM264.55 92.9324C268.667 91.3356 272.456 89.3581 275.912 86.9978L274.784 85.3462C271.462 87.6153 267.81 89.523 263.827 91.0676L264.55 92.9324ZM276.348 86.172V58.148H274.348V86.172H276.348ZM274.658 57.4246C272.877 59.1241 270.848 60.7889 268.567 62.4183L269.729 64.0457C272.078 62.3684 274.182 60.6439 276.039 58.8714L274.658 57.4246ZM268.573 62.4142C266.424 63.9262 263.902 65.2103 260.996 66.2594L261.676 68.1406C264.722 67.0403 267.408 65.6791 269.724 64.0498L268.573 62.4142ZM260.996 66.2594C258.157 67.2848 254.723 67.812 250.672 67.812V69.812C254.888 69.812 258.563 69.2645 261.676 68.1406L260.996 66.2594ZM250.672 67.812C246.747 67.812 243.165 67.0917 239.914 65.6644L239.11 67.4956C242.638 69.0443 246.496 69.812 250.672 69.812V67.812ZM239.922 65.6681C236.781 64.2545 234.237 62.1405 232.273 59.3136L230.631 60.4544C232.801 63.5795 235.63 65.9295 239.102 67.4919L239.922 65.6681ZM232.291 59.3398C230.434 56.4762 229.476 52.9144 229.476 48.6H227.476C227.476 53.2136 228.503 57.1744 230.613 60.4282L232.291 59.3398ZM279.029 29.38H278.029V30.38H279.029V29.38ZM303.829 29.38H304.829V28.38H303.829V29.38ZM303.829 92H302.829V93H303.829V92ZM331.109 92V93H332.109V92H331.109ZM331.109 29.38V28.38H330.109V29.38H331.109ZM355.909 29.38V30.38H356.909V29.38H355.909ZM355.909 5.19999H356.909V4.19999H355.909V5.19999ZM279.029 5.19999V4.19999H278.029V5.19999H279.029ZM279.029 30.38H303.829V28.38H279.029V30.38ZM302.829 29.38V92H304.829V29.38H302.829ZM303.829 93H331.109V91H303.829V93ZM332.109 92V29.38H330.109V92H332.109ZM331.109 30.38H355.909V28.38H331.109V30.38ZM356.909 29.38V5.19999H354.909V29.38H356.909ZM355.909 4.19999H279.029V6.19999H355.909V4.19999ZM278.029 5.19999V29.38H280.029V5.19999H278.029ZM364.604 5.19999V4.19999H363.604V5.19999H364.604ZM364.604 92H363.604V93H364.604V92ZM391.884 92V93H392.884V92H391.884ZM391.884 5.19999H392.884V4.19999H391.884V5.19999ZM382.212 26.9H381.212V27.9H382.212V26.9ZM406.392 29.008L405.763 29.7852L406.392 29.008ZM406.392 40.912L405.763 40.1348L406.392 40.912ZM382.212 43.02V42.02H381.212V43.02H382.212ZM382.212 64.72H381.212V65.72H382.212V64.72ZM419.412 61.124L419.004 60.2108L418.999 60.2131L419.412 61.124ZM431.192 50.832L430.324 50.3341L430.318 50.3464L431.192 50.832ZM431.192 19.088L430.318 19.5736L430.323 19.5833L430.329 19.5929L431.192 19.088ZM419.412 8.796L418.999 9.70687L419.004 9.70923L419.412 8.796ZM382.212 5.19999V4.19999H381.212V5.19999H382.212ZM363.604 5.19999V92H365.604V5.19999H363.604ZM364.604 93H391.884V91H364.604V93ZM392.884 92V5.19999H390.884V92H392.884ZM391.884 4.19999H364.604V6.19999H391.884V4.19999ZM382.212 27.9H398.704V25.9H382.212V27.9ZM398.704 27.9C401.977 27.9 404.276 28.582 405.763 29.7852L407.021 28.2308C405.035 26.6233 402.209 25.9 398.704 25.9V27.9ZM405.763 29.7852C407.228 30.9713 407.996 32.6491 407.996 34.96H409.996C409.996 32.1456 409.028 29.8553 407.021 28.2308L405.763 29.7852ZM407.996 34.96C407.996 37.2709 407.228 38.9487 405.763 40.1348L407.021 41.6892C409.028 40.0647 409.996 37.7744 409.996 34.96H407.996ZM405.763 40.1348C404.276 41.338 401.977 42.02 398.704 42.02V44.02C402.209 44.02 405.035 43.2967 407.021 41.6892L405.763 40.1348ZM398.704 42.02H382.212V44.02H398.704V42.02ZM381.212 43.02V64.72H383.212V43.02H381.212ZM382.212 65.72H398.704V63.72H382.212V65.72ZM398.704 65.72C407.3 65.72 414.358 64.5117 419.825 62.0349L418.999 60.2131C413.884 62.5309 407.137 63.72 398.704 63.72V65.72ZM419.819 62.0372C425.359 59.5656 429.465 55.9989 432.066 51.3176L430.318 50.3464C427.958 54.5931 424.211 57.8877 419.004 60.2108L419.819 62.0372ZM432.059 51.3299C434.724 46.6881 436.036 41.219 436.036 34.96H434.036C434.036 40.9357 432.785 46.0479 430.325 50.3341L432.059 51.3299ZM436.036 34.96C436.036 28.6217 434.725 23.1482 432.055 18.5831L430.329 19.5929C432.784 23.7904 434.036 28.8983 434.036 34.96H436.036ZM432.066 18.6024C429.465 13.9211 425.359 10.3543 419.819 7.88277L419.004 9.70923C424.211 12.0323 427.958 15.3269 430.318 19.5736L432.066 18.6024ZM419.825 7.88515C414.358 5.40827 407.3 4.19999 398.704 4.19999V6.19999C407.137 6.19999 413.884 7.38906 418.999 9.70685L419.825 7.88515ZM398.704 4.19999H382.212V6.19999H398.704V4.19999ZM381.212 5.19999V26.9H383.212V5.19999H381.212ZM517.458 5.19999L518.363 5.62535L519.033 4.19999H517.458V5.19999ZM489.558 5.19999V4.19999H488.906L488.643 4.79606L489.558 5.19999ZM468.478 52.94L467.563 52.5361L466.943 53.94H468.478V52.94ZM479.018 52.94V53.94H480.411L479.965 52.6201L479.018 52.94ZM462.898 5.19999L463.845 4.88008L463.616 4.19999H462.898V5.19999ZM433.138 5.19999V4.19999H431.56L432.234 5.62687L433.138 5.19999ZM461.41 65.092L462.323 65.5001L462.51 65.0806L462.314 64.6651L461.41 65.092ZM449.382 92L448.469 91.5919L447.84 93H449.382V92ZM476.662 92V93H477.297L477.567 92.4254L476.662 92ZM517.458 4.19999H489.558V6.19999H517.458V4.19999ZM488.643 4.79606L467.563 52.5361L469.393 53.3439L490.473 5.60393L488.643 4.79606ZM468.478 53.94H479.018V51.94H468.478V53.94ZM479.965 52.6201L463.845 4.88008L461.951 5.51991L478.071 53.2599L479.965 52.6201ZM462.898 4.19999H433.138V6.19999H462.898V4.19999ZM432.234 5.62687L460.506 65.5189L462.314 64.6651L434.042 4.77312L432.234 5.62687ZM460.497 64.6839L448.469 91.5919L450.295 92.4081L462.323 65.5001L460.497 64.6839ZM449.382 93H476.662V91H449.382V93ZM477.567 92.4254L518.363 5.62535L516.553 4.77463L475.757 91.5746L477.567 92.4254ZM524.326 5.19999V4.19999H523.326V5.19999H524.326ZM524.326 92H523.326V93H524.326V92ZM552.846 92V93H553.846V92H552.846ZM552.846 5.19999H553.846V4.19999H552.846V5.19999ZM579.506 5.19999V4.19999H579.037L578.737 4.56139L579.506 5.19999ZM545.034 46.74L544.265 46.1014L543.753 46.7188L544.244 47.3527L545.034 46.74ZM580.126 92L579.336 92.6127L579.636 93H580.126V92ZM613.11 92V93H615.149L613.901 91.3878L613.11 92ZM577.398 45.872L576.63 45.2323L576.116 45.8493L576.608 46.4842L577.398 45.872ZM611.25 5.19999L612.019 5.83972L613.384 4.19999H611.25V5.19999ZM523.326 5.19999V92H525.326V5.19999H523.326ZM524.326 93H552.846V91H524.326V93ZM553.846 92V5.19999H551.846V92H553.846ZM552.846 4.19999H524.326V6.19999H552.846V4.19999ZM578.737 4.56139L544.265 46.1014L545.804 47.3786L580.276 5.8386L578.737 4.56139ZM544.244 47.3527L579.336 92.6127L580.917 91.3873L545.825 46.1273L544.244 47.3527ZM580.126 93H613.11V91H580.126V93ZM613.901 91.3878L578.189 45.2598L576.608 46.4842L612.32 92.6122L613.901 91.3878ZM578.167 46.5117L612.019 5.83972L610.482 4.56027L576.63 45.2323L578.167 46.5117ZM611.25 4.19999H579.506V6.19999H611.25V4.19999ZM616.275 29.38H615.275V30.38H616.275V29.38ZM641.075 29.38H642.075V28.38H641.075V29.38ZM641.075 92H640.075V93H641.075V92ZM668.355 92V93H669.355V92H668.355ZM668.355 29.38V28.38H667.355V29.38H668.355ZM693.155 29.38V30.38H694.155V29.38H693.155ZM693.155 5.19999H694.155V4.19999H693.155V5.19999ZM616.275 5.19999V4.19999H615.275V5.19999H616.275ZM616.275 30.38H641.075V28.38H616.275V30.38ZM640.075 29.38V92H642.075V29.38H640.075ZM641.075 93H668.355V91H641.075V93ZM669.355 92V29.38H667.355V92H669.355ZM668.355 30.38H693.155V28.38H668.355V30.38ZM694.155 29.38V5.19999H692.155V29.38H694.155ZM693.155 4.19999H616.275V6.19999H693.155V4.19999ZM615.275 5.19999V29.38H617.275V5.19999H615.275ZM721.962 37.44L722.857 37.8872L722.861 37.878L721.962 37.44ZM728.658 30L729.173 30.8575L729.182 30.8522L729.19 30.8466L728.658 30ZM749.738 30L749.195 30.8396L749.209 30.8488L749.224 30.8575L749.738 30ZM756.31 37.44L755.402 37.8591L755.406 37.8681L756.31 37.44ZM749.49 67.324L750.005 68.1815L750.014 68.1762L750.022 68.1706L749.49 67.324ZM728.658 67.324L728.126 68.1706L728.135 68.1762L728.144 68.1815L728.658 67.324ZM721.962 59.76L721.063 60.198L721.962 59.76ZM694.186 67.696L693.258 68.0674L693.261 68.0755L693.264 68.0835L694.186 67.696ZM704.23 82.576L704.93 81.8621L704.23 82.576ZM719.482 92.248L719.845 91.316L719.838 91.3133L719.482 92.248ZM758.542 92.248L758.191 91.3117L758.183 91.3146L758.175 91.3177L758.542 92.248ZM773.918 82.576L773.218 81.8621L773.918 82.576ZM783.838 67.696L782.914 67.3132L782.912 67.32L783.838 67.696ZM783.838 29.752L782.918 30.1443L783.838 29.752ZM773.67 15.244L772.991 15.9783L773.67 15.244ZM758.294 5.944L757.95 6.88302L758.294 5.944ZM720.102 5.944L720.446 6.88302L720.102 5.944ZM704.726 15.244L705.405 15.9783L704.726 15.244ZM694.434 29.752L695.349 30.1556L694.434 29.752ZM720.606 48.6C720.606 44.4224 721.369 40.862 722.857 37.8872L721.068 36.9928C719.414 40.3006 718.606 44.1803 718.606 48.6H720.606ZM722.861 37.878C724.353 34.8166 726.456 32.4875 729.173 30.8575L728.144 29.1425C725.074 30.9845 722.713 33.6154 721.063 37.002L722.861 37.878ZM729.19 30.8466C731.897 29.1454 735.176 28.272 739.074 28.272V26.272C734.871 26.272 731.206 27.2172 728.126 29.1534L729.19 30.8466ZM739.074 28.272C743.234 28.272 746.586 29.1516 749.195 30.8396L750.281 29.1604C747.269 27.2111 743.511 26.272 739.074 26.272V28.272ZM749.224 30.8575C751.935 32.4846 753.994 34.8073 755.402 37.8591L757.218 37.0209C755.651 33.6247 753.327 30.9874 750.253 29.1425L749.224 30.8575ZM755.406 37.8681C756.818 40.8478 757.542 44.4152 757.542 48.6H759.542C759.542 44.1875 758.778 40.3149 757.214 37.0119L755.406 37.8681ZM757.542 48.6C757.542 52.6907 756.781 56.2564 755.287 59.322L757.085 60.198C758.733 56.8156 759.542 52.9413 759.542 48.6H757.542ZM755.287 59.322C753.794 62.3869 751.685 64.763 748.958 66.4774L750.022 68.1706C753.082 66.2476 755.437 63.5811 757.085 60.198L755.287 59.322ZM748.976 66.4665C746.266 68.0921 742.98 68.928 739.074 68.928V70.928C743.27 70.928 746.927 70.0279 750.005 68.1815L748.976 66.4665ZM739.074 68.928C735.168 68.928 731.882 68.0921 729.173 66.4665L728.144 68.1815C731.221 70.0279 734.879 70.928 739.074 70.928V68.928ZM729.19 66.4774C726.463 64.763 724.354 62.3869 722.861 59.322L721.063 60.198C722.711 63.5811 725.067 66.2476 728.126 68.1706L729.19 66.4774ZM722.861 59.322C721.368 56.2564 720.606 52.6907 720.606 48.6H718.606C718.606 52.9413 719.415 56.8156 721.063 60.198L722.861 59.322ZM689.714 48.6C689.714 55.6567 690.891 62.1498 693.258 68.0674L695.115 67.3246C692.852 61.6688 691.714 55.4313 691.714 48.6H689.714ZM693.264 68.0835C695.712 73.9065 699.134 78.9783 703.53 83.2899L704.93 81.8621C700.729 77.7417 697.455 72.8935 695.108 67.3085L693.264 68.0835ZM703.53 83.2899C707.931 87.6067 713.134 90.9038 719.127 93.1827L719.838 91.3133C714.091 89.1282 709.126 85.9773 704.93 81.8621L703.53 83.2899ZM719.12 93.18C725.2 95.5444 731.855 96.72 739.074 96.72V94.72C732.075 94.72 725.669 93.5809 719.845 91.316L719.12 93.18ZM739.074 96.72C746.293 96.72 752.909 95.5445 758.909 93.1783L758.175 91.3177C752.437 93.5808 746.074 94.72 739.074 94.72V96.72ZM758.893 93.1843C764.968 90.9061 770.215 87.609 774.618 83.2899L773.218 81.8621C769.024 85.975 764.02 89.1259 758.191 91.3117L758.893 93.1843ZM774.618 83.2899C779.017 78.9758 782.4 73.9001 784.765 68.072L782.912 67.32C780.647 72.8999 777.417 77.7442 773.218 81.8621L774.618 83.2899ZM784.762 68.0787C787.215 62.1582 788.434 55.661 788.434 48.6H786.434C786.434 55.4269 785.256 61.6605 782.914 67.3133L784.762 68.0787ZM788.434 48.6C788.434 41.5395 787.215 35.1209 784.758 29.3597L782.918 30.1443C785.256 35.6258 786.434 41.7725 786.434 48.6H788.434ZM784.758 29.3597C782.307 23.6119 778.836 18.6585 774.349 14.5097L772.991 15.9783C777.267 19.9309 780.575 24.6494 782.918 30.1443L784.758 29.3597ZM774.349 14.5097C769.866 10.3651 764.625 7.19756 758.638 5.00498L757.95 6.88302C763.702 8.9891 768.712 12.0216 772.991 15.9783L774.349 14.5097ZM758.638 5.00498C752.647 2.81108 746.122 1.72 739.074 1.72V3.72C745.914 3.72 752.203 4.77825 757.95 6.88302L758.638 5.00498ZM739.074 1.72C732.188 1.72 725.747 2.81203 719.758 5.00498L720.446 6.88302C726.196 4.7773 732.403 3.72 739.074 3.72V1.72ZM719.758 5.00498C713.771 7.19756 708.53 10.3651 704.047 14.5097L705.405 15.9783C709.685 12.0216 714.695 8.9891 720.446 6.88302L719.758 5.00498ZM704.047 14.5097C699.562 18.6561 696.053 23.6056 693.519 29.3484L695.349 30.1556C697.776 24.6557 701.127 19.9333 705.405 15.9783L704.047 14.5097ZM693.519 29.3484C690.976 35.1124 689.714 41.5351 689.714 48.6H691.714C691.714 41.7769 692.932 35.6342 695.349 30.1556L693.519 29.3484ZM799.815 5.19999V4.19999H798.815V5.19999H799.815ZM799.815 92H798.815V93H799.815V92ZM827.095 92V93H828.095V92H827.095ZM827.095 5.19999H828.095V4.19999H827.095V5.19999ZM817.423 26.9H816.423V27.9H817.423V26.9ZM841.603 29.008L840.974 29.7852L841.603 29.008ZM841.603 40.912L840.974 40.1348L841.603 40.912ZM817.423 43.02V42.02H816.423V43.02H817.423ZM817.423 64.72H816.423V65.72H817.423V64.72ZM854.623 61.124L854.215 60.2108L854.21 60.2131L854.623 61.124ZM866.403 50.832L865.535 50.3341L865.529 50.3464L866.403 50.832ZM866.403 19.088L865.529 19.5736L865.534 19.5833L865.54 19.5929L866.403 19.088ZM854.623 8.796L854.21 9.70687L854.215 9.70923L854.623 8.796ZM817.423 5.19999V4.19999H816.423V5.19999H817.423ZM798.815 5.19999V92H800.815V5.19999H798.815ZM799.815 93H827.095V91H799.815V93ZM828.095 92V5.19999H826.095V92H828.095ZM827.095 4.19999H799.815V6.19999H827.095V4.19999ZM817.423 27.9H833.915V25.9H817.423V27.9ZM833.915 27.9C837.188 27.9 839.487 28.582 840.974 29.7852L842.232 28.2308C840.246 26.6233 837.42 25.9 833.915 25.9V27.9ZM840.974 29.7852C842.439 30.9713 843.207 32.6491 843.207 34.96H845.207C845.207 32.1456 844.239 29.8553 842.232 28.2308L840.974 29.7852ZM843.207 34.96C843.207 37.2709 842.439 38.9487 840.974 40.1348L842.232 41.6892C844.239 40.0647 845.207 37.7744 845.207 34.96H843.207ZM840.974 40.1348C839.487 41.338 837.188 42.02 833.915 42.02V44.02C837.42 44.02 840.246 43.2967 842.232 41.6892L840.974 40.1348ZM833.915 42.02H817.423V44.02H833.915V42.02ZM816.423 43.02V64.72H818.423V43.02H816.423ZM817.423 65.72H833.915V63.72H817.423V65.72ZM833.915 65.72C842.511 65.72 849.569 64.5117 855.036 62.0349L854.21 60.2131C849.095 62.5309 842.348 63.72 833.915 63.72V65.72ZM855.03 62.0372C860.57 59.5656 864.676 55.9989 867.277 51.3176L865.529 50.3464C863.169 54.5931 859.422 57.8877 854.215 60.2108L855.03 62.0372ZM867.27 51.3299C869.935 46.6881 871.247 41.219 871.247 34.96H869.247C869.247 40.9357 867.996 46.0479 865.536 50.3341L867.27 51.3299ZM871.247 34.96C871.247 28.6217 869.936 23.1482 867.266 18.5831L865.54 19.5929C867.995 23.7904 869.247 28.8983 869.247 34.96H871.247ZM867.277 18.6024C864.676 13.9211 860.57 10.3543 855.03 7.88277L854.215 9.70923C859.422 12.0323 863.169 15.3269 865.529 19.5736L867.277 18.6024ZM855.036 7.88515C849.569 5.40827 842.511 4.19999 833.915 4.19999V6.19999C842.348 6.19999 849.095 7.38906 854.21 9.70685L855.036 7.88515ZM833.915 4.19999H817.423V6.19999H833.915V4.19999ZM816.423 5.19999V26.9H818.423V5.19999H816.423Z" fill="#FCD702"/>
</svg>
