<svg width="337" height="36" viewBox="0 0 337 36" fill="none" xmlns="http://www.w3.org/2000/svg">
<path d="M34.84 24L25.4 16.2L41.52 11.84V2H31.08V7.48L10.64 13V2H0.2V30H10.64V20.16L15.48 18.84L28.64 30H41.76V24H34.84ZM78.0778 24.32H57.3978V7.68H78.0778V24.32ZM88.5178 2H46.9578V30H88.5178V2ZM125.527 30V13.4L135.247 10.64V30H145.687V0.879998L120.327 8.36L94.9266 0.879998V30H105.367V10.64L115.087 13.4V30H125.527ZM169.475 7.68H173.075L177.315 17.32H165.235L169.475 7.68ZM181.475 2H153.675V7.68H158.635L148.875 30H159.715L162.755 23H179.795L182.835 30H193.635L181.475 2ZM238.361 2H227.921V13.08H207.281V2H196.841V30H207.281V18.76H227.921V30H238.361V2ZM266.49 7.68H274.41V24.32H259.25L266.49 7.68ZM284.85 24.32V2H258.13L248.45 24.32H241.57V35.64H252.01V30H291.53V24.32H284.85ZM312.131 7.68H315.731L319.971 17.32H307.891L312.131 7.68ZM324.131 2H296.331V7.68H301.291L291.531 30H302.371L305.411 23H322.451L325.491 30H336.291L324.131 2Z" fill="#E3E3E3"/>
</svg>
