<svg width="926" height="97" viewBox="0 0 926 97" fill="none" xmlns="http://www.w3.org/2000/svg">
<path d="M96.06 64.5L70.1 43.05L114.43 31.06V3.99999H85.72V19.07L29.51 34.25V3.99999H0.800001V81H29.51V53.94L42.82 50.31L79.01 81H115.09V64.5H96.06ZM214.964 65.38H158.094V19.62H214.964V65.38ZM243.674 3.99999H129.384V81H243.674V3.99999ZM345.448 81V35.35L372.178 27.76V81H400.888V0.919995L331.148 21.49L261.298 0.919995V81H290.008V27.76L316.738 35.35V81H345.448ZM466.306 19.62H476.206L487.866 46.13H454.646L466.306 19.62ZM499.306 3.99999H422.856V19.62H436.496L409.656 81H439.466L447.826 61.75H494.686L503.046 81H532.746L499.306 3.99999ZM655.742 3.99999H627.032V34.47H570.272V3.99999H541.562V81H570.272V50.09H627.032V81H655.742V3.99999ZM733.098 19.62H754.878V65.38H713.188L733.098 19.62ZM783.588 65.38V3.99999H710.108L683.488 65.38H664.568V96.51H693.278V81H801.958V65.38H783.588ZM858.611 19.62H868.511L880.171 46.13H846.951L858.611 19.62ZM891.611 3.99999H815.161V19.62H828.801L801.961 81H831.771L840.131 61.75H886.991L895.351 81H925.051L891.611 3.99999Z" fill="#191919"/>
</svg>
