<svg width="18" height="18" viewBox="0 0 18 18" fill="none" xmlns="http://www.w3.org/2000/svg">
<path fill-rule="evenodd" clip-rule="evenodd" d="M2.32347 0.00652817C1.37794 0.0140184 0.884222 0.024501 0.833878 0.0381412C0.454592 0.140856 0.131216 0.448798 0.0639367 0.771299C0.00688775 1.04484 0.000661224 1.66733 0.000330612 7.13719L0 12.6268L0.099202 12.8283C0.252533 13.1397 0.35021 13.2342 0.696692 13.4063L0.880916 13.4979H1.84263C2.37159 13.4979 2.92967 13.5033 3.08279 13.5099L3.36122 13.522L3.36231 14.873C3.36365 16.5475 3.3842 17.5069 3.42165 17.6437C3.45549 17.7673 3.55026 17.8676 3.70569 17.9442C3.802 17.9916 3.84148 18.0006 3.9501 18C4.05617 17.9993 4.09204 17.991 4.14801 17.9539C4.30628 17.8492 4.7236 17.4437 6.65004 15.5228L8.6807 13.4979H12.9116H17.1425L17.337 13.4026C17.5021 13.3217 17.5539 13.2848 17.6787 13.1593C17.799 13.0384 17.8417 12.9789 17.9129 12.8334L18 12.6555V6.75084V0.846219L17.8891 0.628728C17.7457 0.347736 17.6329 0.236448 17.3543 0.101092L17.1626 0.00796011L10.4502 0.00164486C6.75834 -0.00182486 3.10133 0.000378134 2.32347 0.00652817ZM16.6003 1.1924C16.7103 1.27459 16.8066 1.38854 16.8295 1.46352C16.8471 1.5212 16.852 2.6723 16.852 6.70529C16.852 9.54762 16.8453 11.9204 16.837 11.9781C16.8243 12.0669 16.8088 12.0977 16.7365 12.1781C16.6895 12.2304 16.6219 12.2854 16.5862 12.3004C16.4786 12.3457 15.6188 12.3592 11.8902 12.374L8.41603 12.3879L8.22587 12.4825C8.0784 12.5559 7.99242 12.6155 7.84286 12.748C7.73679 12.842 6.94332 13.6206 6.07959 14.4783L4.50918 16.0377L4.49853 14.4419C4.49069 13.2694 4.48189 12.8244 4.46538 12.7641C4.4321 12.6426 4.385 12.5777 4.25766 12.4777L4.14321 12.3878L3.15986 12.3754C1.98542 12.3605 1.57513 12.3472 1.48019 12.321C1.39382 12.2972 1.23561 12.1542 1.19794 12.0659C1.17641 12.0155 1.16732 11.8613 1.15569 11.3499C1.13369 10.3828 1.13496 1.58841 1.15711 1.50989C1.18389 1.4149 1.30147 1.27092 1.40398 1.20757L1.49402 1.1519L2.70773 1.14107C3.37526 1.13511 6.76056 1.13406 10.2306 1.1387L16.5398 1.14718L16.6003 1.1924ZM4.99087 3.95248C4.5311 4.00596 4.34845 4.55675 4.67644 4.90063C4.80293 5.03327 4.82484 5.03619 5.8563 5.05802C6.95999 5.08137 8.48781 5.05587 8.64788 5.01143C8.90379 4.94036 9.06517 4.5977 8.97315 4.32079C8.93072 4.19314 8.81304 4.04794 8.71793 4.00589C8.67602 3.98736 8.55615 3.96342 8.45157 3.95268C8.22995 3.92996 5.18609 3.92977 4.99087 3.95248ZM5.74898 6.19135C5.21983 6.20027 4.90761 6.21265 4.86353 6.2264C4.76245 6.25792 4.60451 6.41112 4.55472 6.52593C4.46424 6.73461 4.51218 6.97914 4.67877 7.15854C4.76813 7.25477 4.83574 7.26919 5.31476 7.29413C5.82787 7.32085 12.8524 7.30541 13.0316 7.27717C13.2513 7.24255 13.3105 7.21125 13.3906 7.08729C13.4881 6.93663 13.5059 6.872 13.4962 6.70434C13.4891 6.58233 13.4787 6.54602 13.4251 6.45701C13.3116 6.26853 13.2584 6.24233 12.9208 6.20857C12.6768 6.18415 6.98418 6.1705 5.74898 6.19135ZM5.17041 8.44907C4.85504 8.46293 4.8031 8.47973 4.67269 8.61008C4.57374 8.70897 4.54151 8.76792 4.51765 8.89369C4.48292 9.07674 4.54278 9.262 4.68327 9.40628C4.79233 9.5183 4.855 9.53115 5.39082 9.5514C5.93949 9.57213 9.8197 9.57213 10.3684 9.5514C10.9104 9.53091 10.9661 9.51911 11.0817 9.40025C11.2081 9.27041 11.2399 9.18991 11.2404 8.99909C11.2409 8.82208 11.201 8.7152 11.0888 8.5928C11.0025 8.4986 10.8884 8.47004 10.5153 8.44915C10.1704 8.42985 5.60957 8.42978 5.17041 8.44907Z" fill="#8C8C8C"/>
</svg>
