<svg width="2121" height="77" viewBox="0 0 2121 77" fill="none" xmlns="http://www.w3.org/2000/svg">
<path d="M114.98 -5.24521e-06H86.27V30.47H29.51V-5.24521e-06H0.800001V77H29.51V46.09H86.27V77H114.98V-5.24521e-06ZM218.187 61.38H161.317V15.62H218.187V61.38ZM246.897 -5.24521e-06H132.607V77H246.897V-5.24521e-06ZM328.431 46.31L350.101 55.77V61.38H293.231V46.31H328.431ZM264.521 -5.24521e-06V77H378.811V46.75L353.621 38.5L378.811 30.25V-5.24521e-06H264.521ZM293.231 30.69V15.62H350.101V21.23L328.431 30.69H293.231ZM482.015 61.38H425.145V15.62H482.015V61.38ZM510.725 -5.24521e-06H396.435V77H510.725V-5.24521e-06ZM613.929 52.58V61.38H557.059V15.62H613.929V24.42L642.639 28.38V-5.24521e-06H528.349V77H642.639V48.62L613.929 52.58ZM651.407 -5.24521e-06V30.8L680.117 26.84V15.62H698.597V77H727.307V15.62H745.787V26.84L774.497 30.8V-5.24521e-06H651.407ZM871.097 -5.24521e-06V15.4L814.227 42.9V-5.24521e-06H785.517V77H814.227V63.47L871.097 35.97V77H899.807V-5.24521e-06H871.097ZM1068.97 -5.24521e-06V15.4L1012.1 42.9V-5.24521e-06H983.388V77H1012.1V63.47L1068.97 35.97V77H1097.68V-5.24521e-06H1068.97ZM1266.84 52.58V61.38H1209.97V15.62H1266.84V24.42L1295.55 28.38V-5.24521e-06H1181.26V77H1295.55V48.62L1266.84 52.58ZM1396.5 61.38H1339.63V15.62H1396.5V61.38ZM1425.21 -5.24521e-06H1310.92V77H1425.21V-5.24521e-06ZM1528.41 61.38H1471.54V41.91L1528.41 51.48V61.38ZM1471.54 24.64V15.62H1528.41V21.56L1557.12 24.53V-5.24521e-06H1442.83V77H1557.12V39.05L1471.54 24.64ZM1731.06 77V-5.24521e-06H1702.35V77H1731.06ZM1660.33 61.38H1603.46V42.02L1660.33 51.59V61.38ZM1603.46 24.75V-5.24521e-06H1574.75V77H1689.04V39.16L1603.46 24.75ZM1742.06 -5.24521e-06V30.8L1770.77 26.84V15.62H1789.25V77H1817.96V15.62H1836.44V26.84L1865.15 30.8V-5.24521e-06H1742.06ZM1961.75 -5.24521e-06V15.4L1904.88 42.9V-5.24521e-06H1876.17V77H1904.88V63.47L1961.75 35.97V77H1990.46V-5.24521e-06H1961.75ZM2034.71 15.62H2091.58V34.98L2034.71 25.41V15.62ZM2006 -5.24521e-06V37.84L2039.22 43.45L2001.49 77H2041.2L2072.55 49.06L2091.58 52.25V77H2120.29V-5.24521e-06H2006Z" fill="#191919"/>
</svg>
