<svg width="771" height="28" viewBox="0 0 771 28" fill="none" xmlns="http://www.w3.org/2000/svg">
<path d="M41.72 -1.90735e-06H31.28V11.08H10.64V-1.90735e-06H0.2V28H10.64V16.76H31.28V28H41.72V-1.90735e-06ZM79.2497 22.32H58.5697V5.68H79.2497V22.32ZM89.6897 -1.90735e-06H48.1297V28H89.6897V-1.90735e-06ZM119.338 16.84L127.218 20.28V22.32H106.538V16.84H119.338ZM96.0984 -1.90735e-06V28H137.658V17L128.498 14L137.658 11V-1.90735e-06H96.0984ZM106.538 11.16V5.68H127.218V7.72L119.338 11.16H106.538ZM175.187 22.32H154.507V5.68H175.187V22.32ZM185.627 -1.90735e-06H144.067V28H185.627V-1.90735e-06ZM223.156 19.12V22.32H202.476V5.68H223.156V8.88L233.596 10.32V-1.90735e-06H192.036V28H233.596V17.68L223.156 19.12ZM236.784 -1.90735e-06V11.2L247.224 9.76V5.68H253.944V28H264.384V5.68H271.104V9.76L281.544 11.2V-1.90735e-06H236.784ZM316.672 -1.90735e-06V5.6L295.992 15.6V-1.90735e-06H285.552V28H295.992V23.08L316.672 13.08V28H327.112V-1.90735e-06H316.672ZM388.625 -1.90735e-06V5.6L367.945 15.6V-1.90735e-06H357.505V28H367.945V23.08L388.625 13.08V28H399.065V-1.90735e-06H388.625ZM460.578 19.12V22.32H439.898V5.68H460.578V8.88L471.018 10.32V-1.90735e-06H429.458V28H471.018V17.68L460.578 19.12ZM507.726 22.32H487.046V5.68H507.726V22.32ZM518.166 -1.90735e-06H476.606V28H518.166V-1.90735e-06ZM555.695 22.32H535.015V15.24L555.695 18.72V22.32ZM535.015 8.96V5.68H555.695V7.84L566.135 8.92V-1.90735e-06H524.575V28H566.135V14.2L535.015 8.96ZM629.384 28V-1.90735e-06H618.944V28H629.384ZM603.664 22.32H582.984V15.28L603.664 18.76V22.32ZM582.984 9V-1.90735e-06H572.544V28H614.104V14.24L582.984 9ZM633.386 -1.90735e-06V11.2L643.826 9.76V5.68H650.546V28H660.986V5.68H667.706V9.76L678.146 11.2V-1.90735e-06H633.386ZM713.273 -1.90735e-06V5.6L692.593 15.6V-1.90735e-06H682.153V28H692.593V23.08L713.273 13.08V28H723.713V-1.90735e-06H713.273ZM739.802 5.68H760.482V12.72L739.802 9.24V5.68ZM729.362 -1.90735e-06V13.76L741.442 15.8L727.722 28H742.162L753.562 17.84L760.482 19V28H770.922V-1.90735e-06H729.362Z" fill="#E3E3E3"/>
</svg>
