<svg width="30" height="30" viewBox="0 0 30 30" fill="none" xmlns="http://www.w3.org/2000/svg">
<path fill-rule="evenodd" clip-rule="evenodd" d="M10.3232 6.04239C9.72367 6.14607 9.2755 6.29852 8.73229 6.58352C7.36841 7.29917 6.39692 8.59704 6.06724 10.1438C6.00423 10.4395 6 10.7744 6 15.4876C6 20.2008 6.00423 20.5357 6.06724 20.8313C6.40149 22.3996 7.39424 23.7088 8.79044 24.4224C9.20781 24.6357 9.6834 24.805 10.1377 24.9018C10.4333 24.9648 10.7682 24.969 15.4814 24.969C20.1947 24.969 20.5295 24.9648 20.8252 24.9018C21.8377 24.686 22.7452 24.1978 23.4649 23.4818C24.1824 22.768 24.679 21.8481 24.8956 20.8313C24.9587 20.5357 24.9629 20.2008 24.9629 15.4876C24.9629 10.7744 24.9587 10.4395 24.8956 10.1438C24.796 9.67606 24.6277 9.20774 24.405 8.77813C23.6885 7.39625 22.4503 6.45148 20.8623 6.07508C20.6037 6.01378 20.2314 6.00858 15.5928 6.00168C11.6445 5.99582 10.5434 6.00435 10.3232 6.04239ZM20.6396 7.18996C21.492 7.39228 22.1375 7.75016 22.7051 8.33501C23.2779 8.92531 23.6036 9.54021 23.782 10.3682C23.8455 10.6625 23.8496 10.9785 23.8496 15.4876C23.8496 19.9967 23.8455 20.3126 23.782 20.6069C23.5979 21.4612 23.2331 22.1298 22.634 22.7112C22.0437 23.284 21.4288 23.6097 20.6008 23.7882C20.3065 23.8516 19.9906 23.8557 15.4814 23.8557C10.9723 23.8557 10.6564 23.8516 10.3621 23.7882C9.53407 23.6097 8.91917 23.284 8.32887 22.7112C7.72974 22.1298 7.36496 21.4612 7.18086 20.6069C7.11744 20.3126 7.11328 19.9967 7.11328 15.4876C7.11328 10.9785 7.11744 10.6625 7.18086 10.3682C7.36496 9.51397 7.72974 8.84533 8.32887 8.26394C9.00649 7.6064 9.80456 7.22967 10.7116 7.13912C10.8756 7.12275 13.1139 7.11266 15.6855 7.11663C20.0248 7.12339 20.3814 7.12865 20.6396 7.18996ZM20.4209 8.49313C20.1291 8.5751 19.8815 8.72191 19.6901 8.9266C19.117 9.53928 19.1285 10.4794 19.7163 11.0672C20.3041 11.655 21.2442 11.6665 21.8569 11.0934C22.5474 10.4476 22.4775 9.31139 21.7129 8.75004C21.3464 8.48107 20.8297 8.37831 20.4209 8.49313ZM21.0821 9.70137C21.2966 9.91583 21.2071 10.2819 20.9209 10.361C20.7507 10.4079 20.6258 10.3768 20.5182 10.2608C20.4035 10.1369 20.3768 10.0282 20.4215 9.86629C20.5015 9.57657 20.8662 9.48551 21.0821 9.70137ZM14.665 10.3487C13.0331 10.6264 11.6429 11.6303 10.8821 13.0802C10.4672 13.8709 10.2874 14.5987 10.2874 15.4876C10.2874 16.8846 10.8186 18.1624 11.8126 19.1564C13.1259 20.4696 15.0102 20.9842 16.8039 20.5194C18.1719 20.1649 19.4101 19.1732 20.0808 17.8949C20.4957 17.1042 20.6755 16.3765 20.6755 15.4876C20.6755 14.0906 20.1443 12.8128 19.1503 11.8188C18.5025 11.1711 17.6476 10.6744 16.8039 10.4558C16.1741 10.2926 15.2628 10.247 14.665 10.3487ZM16.1779 11.4833C17.1754 11.6342 18.2184 12.2997 18.8189 13.1683C19.9387 14.7881 19.7426 16.9676 18.352 18.3582C16.7599 19.9503 14.2001 19.9473 12.6042 18.3515C11.0235 16.7708 11.0265 14.2014 12.6108 12.617C13.5522 11.6756 14.8089 11.2763 16.1779 11.4833Z" fill="#E3E3E3"/>
<path fill-rule="evenodd" clip-rule="evenodd" d="M8.73229 6.58352C9.2755 6.29852 9.72367 6.14607 10.3232 6.04239C10.5434 6.00435 11.6445 5.99582 15.5928 6.00168C20.2314 6.00858 20.6037 6.01378 20.8623 6.07508C22.4503 6.45148 23.6885 7.39625 24.405 8.77813C24.6277 9.20774 24.796 9.67606 24.8956 10.1438C24.9587 10.4395 24.9629 10.7744 24.9629 15.4876C24.9629 20.2008 24.9587 20.5357 24.8956 20.8313C24.679 21.8481 24.1824 22.768 23.4649 23.4818C22.7452 24.1978 21.8377 24.686 20.8252 24.9018C20.5295 24.9648 20.1947 24.969 15.4814 24.969C10.7682 24.969 10.4333 24.9648 10.1377 24.9018C9.6834 24.805 9.20781 24.6357 8.79044 24.4224C7.39424 23.7088 6.40149 22.3996 6.06724 20.8313C6.00423 20.5357 6 20.2008 6 15.4876C6 10.7744 6.00423 10.4395 6.06724 10.1438C6.39692 8.59704 7.36841 7.29917 8.73229 6.58352ZM22.7051 8.33501C22.1375 7.75016 21.492 7.39228 20.6396 7.18996C20.3814 7.12865 20.0248 7.12339 15.6855 7.11663C13.1139 7.11266 10.8756 7.12275 10.7116 7.13912C9.80456 7.22967 9.00649 7.6064 8.32887 8.26394C7.72974 8.84533 7.36496 9.51397 7.18086 10.3682C7.11744 10.6625 7.11328 10.9785 7.11328 15.4876C7.11328 19.9967 7.11744 20.3126 7.18086 20.6069C7.36496 21.4612 7.72974 22.1298 8.32887 22.7112C8.91917 23.284 9.53407 23.6097 10.3621 23.7882C10.6564 23.8516 10.9723 23.8557 15.4814 23.8557C19.9906 23.8557 20.3065 23.8516 20.6008 23.7882C21.4288 23.6097 22.0437 23.284 22.634 22.7112C23.2331 22.1298 23.5979 21.4612 23.782 20.6069C23.8455 20.3126 23.8496 19.9967 23.8496 15.4876C23.8496 10.9785 23.8455 10.6625 23.782 10.3682C23.6036 9.54021 23.2779 8.92531 22.7051 8.33501ZM20.4209 8.49313C20.1291 8.5751 19.8815 8.72191 19.6901 8.9266C19.117 9.53928 19.1285 10.4794 19.7163 11.0672C20.3041 11.655 21.2442 11.6665 21.8569 11.0934C22.5474 10.4476 22.4775 9.31139 21.7129 8.75004C21.3464 8.48107 20.8297 8.37831 20.4209 8.49313ZM14.665 10.3487C13.0331 10.6264 11.6429 11.6303 10.8821 13.0802C10.4672 13.8709 10.2874 14.5987 10.2874 15.4876C10.2874 16.8846 10.8186 18.1624 11.8126 19.1564C13.1259 20.4696 15.0102 20.9842 16.8039 20.5194C18.1719 20.1649 19.4101 19.1732 20.0808 17.8949C20.4957 17.1042 20.6755 16.3765 20.6755 15.4876C20.6755 14.0906 20.1443 12.8128 19.1503 11.8188C18.5025 11.1711 17.6476 10.6744 16.8039 10.4558C16.1741 10.2926 15.2628 10.247 14.665 10.3487ZM16.1779 11.4833C17.1754 11.6342 18.2184 12.2997 18.8189 13.1683C19.9387 14.7881 19.7426 16.9676 18.352 18.3582C16.7599 19.9503 14.2001 19.9473 12.6042 18.3515C11.0235 16.7708 11.0265 14.2014 12.6108 12.617C13.5522 11.6756 14.8089 11.2763 16.1779 11.4833ZM20.9209 10.361C21.2071 10.2819 21.2966 9.91583 21.0821 9.70137C20.8662 9.48551 20.5015 9.57657 20.4215 9.86629C20.3768 10.0282 20.4035 10.1369 20.5182 10.2608C20.6258 10.3768 20.7507 10.4079 20.9209 10.361Z" fill="#E3E3E3"/>
</svg>
