<svg width="19" height="17" viewBox="0 0 19 17" fill="none" xmlns="http://www.w3.org/2000/svg">
<path fill-rule="evenodd" clip-rule="evenodd" d="M17.2726 0.0436339C17.1705 0.0723566 16.9952 0.132103 16.8829 0.176448C16.7 0.248663 15.6848 0.636493 9.88783 2.84855C2.45252 5.68574 0.830213 6.30907 0.675875 6.38796C-0.221207 6.84652 -0.226105 7.77526 0.666152 8.23119C0.757998 8.27813 1.62636 8.54391 2.59584 8.82182L4.35854 9.3271L5.28801 11.9788C5.7992 13.4372 6.26536 14.7182 6.32388 14.8256C6.45692 15.0696 6.7519 15.3518 7.01493 15.4867C7.28338 15.6244 7.75493 15.6554 8.07059 15.5562C8.40984 15.4494 8.63973 15.2699 9.74938 14.2449C10.3263 13.7119 10.8158 13.2759 10.837 13.2759C10.8582 13.2759 11.5134 13.7894 12.2929 14.417C13.0723 15.0446 13.7795 15.6125 13.8642 15.679C13.949 15.7455 14.1327 15.854 14.2724 15.9202C14.5088 16.0322 14.5537 16.0406 14.9162 16.0406C15.2719 16.0406 15.3231 16.0314 15.5046 15.9359C15.6138 15.8783 15.7794 15.7531 15.8724 15.6576C16.1584 15.3639 16.263 15.0825 16.4753 14.0367C18.5924 3.60487 18.9982 1.56111 18.9982 1.33074C18.9982 0.754018 18.7275 0.300282 18.2579 0.0899463C18.0418 -0.00683498 17.5364 -0.0305848 17.2726 0.0436339ZM17.8504 1.18319C17.8757 1.23047 17.883 1.32394 17.8685 1.41512C17.7682 2.04494 15.1923 14.6273 15.1386 14.7496C15.0545 14.9412 14.933 14.9853 14.7414 14.894C14.67 14.8599 13.3859 13.8454 11.888 12.6395L9.16431 10.4469L9.22921 10.3625C9.26488 10.3161 10.5716 8.92328 12.1329 7.26734C14.1974 5.07789 14.9909 4.21254 15.0417 4.09505C15.1308 3.88935 15.1009 3.70856 14.9496 3.53618C14.8212 3.39001 14.6267 3.31364 14.454 3.34169C14.388 3.35238 12.1765 4.46332 9.53963 5.81043L4.74529 8.25965L3.09559 7.78977C2.18827 7.5313 1.44586 7.31151 1.44582 7.3013C1.44571 7.28668 16.9395 1.35834 17.5002 1.15844C17.7058 1.08515 17.8016 1.09194 17.8504 1.18319ZM11.2922 6.51273C9.1269 8.79848 7.87572 10.1454 7.82425 10.2461C7.79145 10.3103 7.6016 11.0308 7.40236 11.8472C7.20312 12.6636 7.02948 13.3514 7.01649 13.3757C6.99675 13.4126 5.52681 9.28747 5.51972 9.17532C5.51798 9.14779 11.7947 5.9022 11.8678 5.89285C11.8751 5.89192 11.6161 6.17084 11.2922 6.51273ZM9.33936 12.0422L9.94131 12.5276L9.07959 13.3218C8.60567 13.7586 8.15727 14.1691 8.08317 14.234L7.94839 14.352L8.22081 13.2666C8.37065 12.6696 8.52885 12.026 8.57238 11.8362C8.62908 11.5891 8.6637 11.5006 8.69447 11.5241C8.71811 11.5421 9.0083 11.7753 9.33936 12.0422Z" fill="#E3E3E3"/>
<path fill-rule="evenodd" clip-rule="evenodd" d="M16.8829 0.176448C16.9952 0.132103 17.1705 0.0723566 17.2726 0.0436339C17.5364 -0.0305848 18.0418 -0.00683498 18.2579 0.0899463C18.7275 0.300282 18.9982 0.754018 18.9982 1.33074C18.9982 1.56111 18.5924 3.60487 16.4753 14.0367C16.263 15.0825 16.1584 15.3639 15.8724 15.6576C15.7794 15.7531 15.6138 15.8783 15.5046 15.9359C15.3231 16.0314 15.2719 16.0406 14.9162 16.0406C14.5537 16.0406 14.5088 16.0322 14.2724 15.9202C14.1327 15.854 13.949 15.7455 13.8642 15.679C13.7795 15.6125 13.0723 15.0446 12.2929 14.417C11.5134 13.7894 10.8582 13.2759 10.837 13.2759C10.8158 13.2759 10.3263 13.7119 9.74938 14.2449C8.63973 15.2699 8.40984 15.4494 8.07059 15.5562C7.75493 15.6554 7.28338 15.6244 7.01493 15.4867C6.7519 15.3518 6.45692 15.0696 6.32388 14.8256C6.26536 14.7182 5.7992 13.4372 5.28801 11.9788L4.35854 9.3271L2.59584 8.82182C1.62636 8.54391 0.757998 8.27813 0.666152 8.23119C-0.226105 7.77526 -0.221207 6.84652 0.675875 6.38796C0.830213 6.30907 2.45252 5.68574 9.88783 2.84855C15.6848 0.636493 16.7 0.248663 16.8829 0.176448ZM17.8685 1.41512C17.883 1.32394 17.8757 1.23047 17.8504 1.18319C17.8016 1.09194 17.7058 1.08515 17.5002 1.15844C16.9395 1.35834 1.44571 7.28668 1.44582 7.3013C1.44586 7.31151 2.18827 7.5313 3.09559 7.78977L4.74529 8.25965L9.53963 5.81043C12.1765 4.46332 14.388 3.35238 14.454 3.34169C14.6267 3.31364 14.8212 3.39001 14.9496 3.53618C15.1009 3.70856 15.1308 3.88935 15.0417 4.09505C14.9909 4.21254 14.1974 5.07789 12.1329 7.26734C10.5716 8.92328 9.26488 10.3161 9.22921 10.3625L9.16431 10.4469L11.888 12.6395C13.3859 13.8454 14.67 14.8599 14.7414 14.894C14.933 14.9853 15.0545 14.9412 15.1386 14.7496C15.1923 14.6273 17.7682 2.04494 17.8685 1.41512ZM11.2922 6.51273C9.1269 8.79848 7.87572 10.1454 7.82425 10.2461C7.79145 10.3103 7.6016 11.0308 7.40236 11.8472C7.20312 12.6636 7.02948 13.3514 7.01649 13.3757C6.99675 13.4126 5.52681 9.28747 5.51972 9.17532C5.51798 9.14779 11.7947 5.9022 11.8678 5.89285C11.8751 5.89192 11.6161 6.17084 11.2922 6.51273ZM9.94131 12.5276L9.33936 12.0422C9.0083 11.7753 8.71811 11.5421 8.69447 11.5241C8.6637 11.5006 8.62908 11.5891 8.57238 11.8362C8.52885 12.026 8.37065 12.6696 8.22081 13.2666L7.94839 14.352L8.08317 14.234C8.15727 14.1691 8.60567 13.7586 9.07959 13.3218L9.94131 12.5276Z" fill="#E3E3E3"/>
</svg>


