<svg width="30" height="30" viewBox="0 0 30 30" fill="none" xmlns="http://www.w3.org/2000/svg">
<path fill-rule="evenodd" clip-rule="evenodd" d="M5.79031 10.0498C5.41955 10.1671 5.18584 10.3758 5.06375 10.6985C4.88106 11.1814 5.09065 12.1585 5.69757 13.6532C6.58879 15.8481 7.92551 17.9385 9.35281 19.3693C10.6696 20.6895 11.9722 21.4539 13.4405 21.7682C13.9799 21.8836 15.1827 21.8935 15.5686 21.7856C15.9021 21.6925 16.2192 21.5159 16.3502 21.3506C16.5736 21.0685 16.5803 21.0265 16.5936 19.8359C16.6003 19.2361 16.6154 18.7356 16.6273 18.7238C16.6595 18.6916 16.9289 18.8446 17.2056 19.0522C17.5773 19.3312 18.1147 19.854 18.7698 20.5741C19.4564 21.3287 19.7259 21.5717 20.058 21.7357L20.2984 21.8544H21.7094H23.1204L23.3245 21.7582C23.6011 21.628 23.7347 21.5075 23.8621 21.2734C24.0177 20.9876 24.0364 20.5818 23.9107 20.2202C23.6542 19.4827 22.856 18.4487 21.2552 16.7802C20.9706 16.4836 20.8081 16.2869 20.8245 16.2589C20.839 16.234 21.0125 15.9799 21.2101 15.6942C22.3004 14.1175 23.2434 12.4703 23.5077 11.6809C23.7623 10.9203 23.5972 10.381 23.0276 10.1126L22.8235 10.0165H21.4319H20.0403L19.7991 10.131C19.665 10.1947 19.4823 10.3224 19.3876 10.4186C19.2115 10.5976 19.1625 10.6863 18.8374 11.4122C18.2913 12.6316 17.2843 14.2577 16.7636 14.7608L16.6158 14.9035L16.5887 14.6695C16.5737 14.5407 16.5737 13.7417 16.5886 12.8939C16.6218 11.0079 16.5956 10.755 16.3261 10.3648C16.2752 10.291 16.1465 10.1825 16.0402 10.1236L15.847 10.0165H13.9544H12.0618L11.8729 10.1161C11.529 10.2976 11.3034 10.6405 11.3019 10.9838C11.3006 11.279 11.3905 11.5105 11.654 11.8908C11.9347 12.2959 12.0356 12.5791 12.0505 13.0038C12.0559 13.1568 12.056 13.8332 12.0508 14.5067L12.0412 15.7313L11.9307 15.6014C11.8699 15.53 11.7059 15.3046 11.5662 15.1005C10.9075 14.1378 10.3007 12.9198 9.77745 11.5092C9.658 11.1872 9.50652 10.823 9.44083 10.6997C9.27492 10.3884 9.01745 10.1661 8.71446 10.0725C8.49173 10.0037 8.37438 9.9981 7.20585 10.0004C6.29322 10.0022 5.89722 10.016 5.79031 10.0498ZM8.36151 11.2517C8.39799 11.2882 8.48382 11.4761 8.55225 11.6692C9.15865 13.3808 10.0612 15.1477 10.835 16.1378C11.1605 16.5543 11.5887 16.95 11.8649 17.0894C12.4258 17.3726 12.9902 17.1515 13.1796 16.5744C13.2441 16.3779 13.2493 16.2203 13.2493 14.451C13.2493 12.5635 13.2482 12.5362 13.1634 12.243C13.0521 11.8582 12.9674 11.6703 12.7851 11.4032L12.6364 11.1854H14.0078H15.3793L15.3906 13.3841C15.4019 15.575 15.4022 15.5836 15.4867 15.7928C15.6462 16.188 16.006 16.417 16.3824 16.3627C17.3184 16.2278 18.4754 14.8495 19.6693 12.4471C19.857 12.0695 20.058 11.6463 20.116 11.5065C20.19 11.3282 20.2478 11.2424 20.3096 11.2189C20.358 11.2005 20.8493 11.1854 21.4013 11.1854H22.4048L22.3801 11.2875C22.269 11.7454 21.2997 13.4041 20.1477 15.1075C19.6426 15.8544 19.5524 16.0631 19.5877 16.4046C19.6223 16.7402 19.789 16.9878 20.4391 17.6698C21.5752 18.8615 22.298 19.7292 22.6087 20.2744C22.7096 20.4515 22.7819 20.5527 22.7562 20.6104C22.7174 20.6977 22.4545 20.6854 21.7276 20.6854C20.9136 20.6854 20.6614 20.674 20.5679 20.6331C20.4019 20.5604 20.2247 20.389 19.5856 19.6835C18.18 18.1317 17.2943 17.4922 16.5335 17.4799C15.855 17.469 15.5205 17.7597 15.4212 18.4465C15.401 18.5859 15.3842 19.1282 15.3838 19.6515L15.3831 20.6029L15.2625 20.6244C14.3659 20.7838 13.2346 20.5758 12.2411 20.0689C10.0897 18.9711 7.90881 16.1102 6.61904 12.6939C6.42507 12.1801 6.21722 11.4527 6.21714 11.2875L6.21707 11.1854H7.25613C8.20442 11.1854 8.30098 11.1912 8.36151 11.2517Z" fill="#E3E3E3"/>
<path fill-rule="evenodd" clip-rule="evenodd" d="M5.06375 10.6985C5.18584 10.3758 5.41955 10.1671 5.79031 10.0498C5.89722 10.016 6.29322 10.0022 7.20585 10.0004C8.37438 9.9981 8.49173 10.0037 8.71446 10.0725C9.01745 10.1661 9.27492 10.3884 9.44083 10.6997C9.50652 10.823 9.658 11.1872 9.77745 11.5092C10.3007 12.9198 10.9075 14.1378 11.5662 15.1005C11.7059 15.3046 11.8699 15.53 11.9307 15.6014L12.0412 15.7313L12.0508 14.5067C12.056 13.8332 12.0559 13.1568 12.0505 13.0038C12.0356 12.5791 11.9347 12.2959 11.654 11.8908C11.3905 11.5105 11.3006 11.279 11.3019 10.9838C11.3034 10.6405 11.529 10.2976 11.8729 10.1161L12.0618 10.0165H13.9544H15.847L16.0402 10.1236C16.1465 10.1825 16.2752 10.291 16.3261 10.3648C16.5956 10.755 16.6218 11.0079 16.5886 12.8939C16.5737 13.7417 16.5737 14.5407 16.5887 14.6695L16.6158 14.9035L16.7636 14.7608C17.2843 14.2577 18.2913 12.6316 18.8374 11.4122C19.1625 10.6863 19.2115 10.5976 19.3876 10.4186C19.4823 10.3224 19.665 10.1947 19.7991 10.131L20.0403 10.0165H21.4319H22.8235L23.0276 10.1126C23.5972 10.381 23.7623 10.9203 23.5077 11.6809C23.2434 12.4703 22.3004 14.1175 21.2101 15.6942C21.0125 15.9799 20.839 16.234 20.8245 16.2589C20.8081 16.2869 20.9706 16.4836 21.2552 16.7802C22.856 18.4487 23.6542 19.4827 23.9107 20.2202C24.0364 20.5818 24.0177 20.9876 23.8621 21.2734C23.7347 21.5075 23.6011 21.628 23.3245 21.7582L23.1204 21.8544H21.7094H20.2984L20.058 21.7357C19.7259 21.5717 19.4564 21.3287 18.7698 20.5741C18.1147 19.854 17.5773 19.3312 17.2056 19.0522C16.9289 18.8446 16.6595 18.6916 16.6273 18.7238C16.6154 18.7356 16.6003 19.2361 16.5936 19.8359C16.5803 21.0265 16.5736 21.0685 16.3502 21.3506C16.2192 21.5159 15.9021 21.6925 15.5686 21.7856C15.1827 21.8935 13.9799 21.8836 13.4405 21.7682C11.9722 21.4539 10.6696 20.6895 9.35281 19.3693C7.92551 17.9385 6.58879 15.8481 5.69757 13.6532C5.09065 12.1585 4.88106 11.1814 5.06375 10.6985ZM8.55225 11.6692C8.48382 11.4761 8.39799 11.2882 8.36151 11.2517C8.30098 11.1912 8.20442 11.1854 7.25613 11.1854H6.21707L6.21714 11.2875C6.21722 11.4527 6.42507 12.1801 6.61904 12.6939C7.90881 16.1102 10.0897 18.9711 12.2411 20.0689C13.2346 20.5758 14.3659 20.7838 15.2625 20.6244L15.3831 20.6029L15.3838 19.6515C15.3842 19.1282 15.401 18.5859 15.4212 18.4465C15.5205 17.7597 15.855 17.469 16.5335 17.4799C17.2943 17.4922 18.18 18.1317 19.5856 19.6835C20.2247 20.389 20.4019 20.5604 20.5679 20.6331C20.6614 20.674 20.9136 20.6854 21.7276 20.6854C22.4545 20.6854 22.7174 20.6977 22.7562 20.6104C22.7819 20.5527 22.7096 20.4515 22.6087 20.2744C22.298 19.7292 21.5752 18.8615 20.4391 17.6698C19.789 16.9878 19.6223 16.7402 19.5877 16.4046C19.5524 16.0631 19.6426 15.8544 20.1477 15.1075C21.2997 13.4041 22.269 11.7454 22.3801 11.2875L22.4048 11.1854H21.4013C20.8493 11.1854 20.358 11.2005 20.3096 11.2189C20.2478 11.2424 20.19 11.3282 20.116 11.5065C20.058 11.6463 19.857 12.0695 19.6693 12.4471C18.4754 14.8495 17.3184 16.2278 16.3824 16.3627C16.006 16.417 15.6462 16.188 15.4867 15.7928C15.4022 15.5836 15.4019 15.575 15.3906 13.3841L15.3793 11.1854H14.0078H12.6364L12.7851 11.4032C12.9674 11.6703 13.0521 11.8582 13.1634 12.243C13.2482 12.5362 13.2493 12.5635 13.2493 14.451C13.2493 16.2203 13.2441 16.3779 13.1796 16.5744C12.9902 17.1515 12.4258 17.3726 11.8649 17.0894C11.5887 16.95 11.1605 16.5543 10.835 16.1378C10.0612 15.1477 9.15865 13.3808 8.55225 11.6692Z" fill="#E3E3E3"/>
</svg>
