<svg width="30" height="30" viewBox="0 0 30 30" fill="none" xmlns="http://www.w3.org/2000/svg">
<path fill-rule="evenodd" clip-rule="evenodd" d="M14.665 6.01269C13.4194 6.14153 12.3921 6.43121 11.3252 6.95434C9.79536 7.70451 8.56351 8.78435 7.59095 10.2278C6.24692 12.2226 5.71217 14.8028 6.14943 17.1834C6.32737 18.1522 6.70129 19.2213 7.13725 20.0078L7.28643 20.277L6.92008 21.6406C6.26147 24.0921 6.25783 24.1075 6.30225 24.2683C6.35264 24.4508 6.53882 24.637 6.72133 24.6874C6.88208 24.7318 6.89871 24.7279 9.3408 24.0717L10.6963 23.7076L11.1777 23.952C12.2402 24.4913 13.2617 24.7959 14.4876 24.9389C15.1493 25.016 16.3232 24.99 16.9473 24.8843C19.0151 24.5342 20.7587 23.6492 22.2073 22.2145C22.9804 21.449 23.5497 20.6548 24.0353 19.6644C24.4796 18.7583 24.7576 17.8723 24.9142 16.8627C25.0079 16.2587 25.0079 14.7206 24.9142 14.1166C24.7579 13.109 24.4815 12.2284 24.0348 11.3148C23.5569 10.3375 22.9902 9.54435 22.2178 8.77188C21.4453 7.99945 20.6522 7.43275 19.6748 6.95486C18.7733 6.51407 17.8818 6.23241 16.9101 6.08142C16.5353 6.02319 15.0138 5.97658 14.665 6.01269ZM16.4463 7.21767C18.5636 7.4401 20.6161 8.56299 21.9683 10.2387C22.7888 11.2554 23.3816 12.4948 23.641 13.7359C23.775 14.3765 23.8158 14.7958 23.8153 15.525C23.8143 17.0669 23.4145 18.5059 22.623 19.8162C22.0003 20.8472 21.0211 21.8489 19.9896 22.51C18.9929 23.1489 18.0025 23.5262 16.7802 23.7323C16.1288 23.8422 14.9843 23.8508 14.331 23.7508C13.278 23.5895 12.2904 23.248 11.3809 22.7307C11.1419 22.5948 10.9734 22.5245 10.8579 22.5126C10.722 22.4986 10.388 22.5752 9.21129 22.8905C8.39945 23.108 7.72807 23.2789 7.71938 23.2703C7.7107 23.2616 7.88159 22.5902 8.09912 21.7783C8.4144 20.6017 8.49107 20.2676 8.47704 20.1318C8.46509 20.0162 8.39481 19.8477 8.25892 19.6088C7.74176 18.6995 7.40058 17.7128 7.2387 16.6586C7.13821 16.0043 7.14768 14.8223 7.25845 14.1908C7.51832 12.709 8.0376 11.5186 8.92551 10.3691C9.27441 9.91749 10.0374 9.16509 10.4772 8.83894C12.2303 7.53904 14.2593 6.98796 16.4463 7.21767ZM12.3124 10.3902C11.9213 10.4954 11.3858 10.8863 11.0803 11.2897C9.69241 13.1221 10.3425 16.198 12.5907 18.4365C14.3282 20.1664 16.6312 20.9721 18.4873 20.4993C19.0888 20.3461 19.7783 19.9297 20.115 19.5164C20.5383 18.9968 20.7037 18.5584 20.6287 18.1552C20.5541 17.7539 20.4675 17.6305 19.7708 16.9321C18.9571 16.1165 18.8719 16.0649 18.3389 16.0649C18.0368 16.0648 17.9355 16.0798 17.7942 16.145C17.559 16.2538 17.3077 16.4931 17.0895 16.8163C16.9896 16.9643 16.8903 17.0853 16.8688 17.0853C16.8473 17.0853 16.6934 17.0506 16.5267 17.0082C15.3586 16.7106 14.6008 16.0781 14.1737 15.0443C14.0712 14.7964 13.9043 14.224 13.9043 14.1208C13.9043 14.0993 14.0253 14 14.1733 13.9001C14.4965 13.6819 14.7359 13.4307 14.8446 13.1954C14.9099 13.0542 14.9248 12.9528 14.9248 12.6508C14.9247 12.1338 14.8665 12.0332 14.1369 11.291C13.489 10.6319 13.2782 10.4703 12.9595 10.3883C12.6919 10.3195 12.574 10.3198 12.3124 10.3902ZM13.2501 12.0708C13.6872 12.5086 13.7962 12.6376 13.7779 12.6953C13.7652 12.7353 13.5556 12.9048 13.3121 13.0719C12.7548 13.4543 12.6973 13.5299 12.7011 13.8754C12.7066 14.3656 12.9071 15.1033 13.2175 15.7749C13.6174 16.6407 14.349 17.3722 15.2147 17.7722C15.8864 18.0825 16.624 18.283 17.1143 18.2885C17.4597 18.2924 17.5354 18.2348 17.9178 17.6775C18.0848 17.434 18.2543 17.2244 18.2943 17.2117C18.352 17.1934 18.481 17.3024 18.9188 17.7395C19.2224 18.0425 19.4707 18.3127 19.4707 18.34C19.4707 18.4404 19.2736 18.7212 19.0772 18.9008C18.4301 19.4922 17.247 19.6231 16.0408 19.2367C13.8292 18.5282 11.9383 16.4083 11.5812 14.2367C11.4684 13.5512 11.5664 12.7481 11.8196 12.2828C12.0035 11.9447 12.4597 11.5219 12.6431 11.5196C12.6739 11.5193 12.9471 11.7673 13.2501 12.0708Z" fill="#E3E3E3"/>
<path fill-rule="evenodd" clip-rule="evenodd" d="M14.665 6.01269C13.4194 6.14153 12.3921 6.43121 11.3252 6.95434C9.79536 7.70451 8.56351 8.78435 7.59095 10.2278C6.24692 12.2226 5.71217 14.8028 6.14943 17.1834C6.32737 18.1522 6.70129 19.2213 7.13725 20.0078L7.28643 20.277L6.92008 21.6406C6.26147 24.0921 6.25783 24.1075 6.30225 24.2683C6.35264 24.4508 6.53882 24.637 6.72133 24.6874C6.88208 24.7318 6.89871 24.7279 9.3408 24.0717L10.6963 23.7076L11.1777 23.952C12.2402 24.4913 13.2617 24.7959 14.4876 24.9389C15.1493 25.016 16.3232 24.99 16.9473 24.8843C19.0151 24.5342 20.7587 23.6492 22.2073 22.2145C22.9804 21.449 23.5497 20.6548 24.0353 19.6644C24.4796 18.7583 24.7576 17.8723 24.9142 16.8627C25.0079 16.2587 25.0079 14.7206 24.9142 14.1166C24.7579 13.109 24.4815 12.2284 24.0348 11.3148C23.5569 10.3375 22.9902 9.54435 22.2178 8.77188C21.4453 7.99945 20.6522 7.43275 19.6748 6.95486C18.7733 6.51407 17.8818 6.23241 16.9101 6.08142C16.5353 6.02319 15.0138 5.97658 14.665 6.01269ZM16.4463 7.21767C18.5636 7.4401 20.6161 8.56299 21.9683 10.2387C22.7888 11.2554 23.3816 12.4948 23.641 13.7359C23.775 14.3765 23.8158 14.7958 23.8153 15.525C23.8143 17.0669 23.4145 18.5059 22.623 19.8162C22.0003 20.8472 21.0211 21.8489 19.9896 22.51C18.9929 23.1489 18.0025 23.5262 16.7802 23.7323C16.1288 23.8422 14.9843 23.8508 14.331 23.7508C13.278 23.5895 12.2904 23.248 11.3809 22.7307C11.1419 22.5948 10.9734 22.5245 10.8579 22.5126C10.722 22.4986 10.388 22.5752 9.21129 22.8905C8.39945 23.108 7.72807 23.2789 7.71938 23.2703C7.7107 23.2616 7.88159 22.5902 8.09912 21.7783C8.4144 20.6017 8.49107 20.2676 8.47704 20.1318C8.46509 20.0162 8.39481 19.8477 8.25892 19.6088C7.74176 18.6995 7.40058 17.7128 7.2387 16.6586C7.13821 16.0043 7.14768 14.8223 7.25845 14.1908C7.51832 12.709 8.0376 11.5186 8.92551 10.3691C9.27441 9.91749 10.0374 9.16509 10.4772 8.83894C12.2303 7.53904 14.2593 6.98796 16.4463 7.21767ZM11.0803 11.2897C11.3858 10.8863 11.9213 10.4954 12.3124 10.3902C12.574 10.3198 12.6919 10.3195 12.9595 10.3883C13.2782 10.4703 13.489 10.6319 14.1369 11.291C14.8665 12.0332 14.9247 12.1338 14.9248 12.6508C14.9248 12.9528 14.9099 13.0542 14.8446 13.1954C14.7359 13.4307 14.4965 13.6819 14.1733 13.9001C14.0253 14 13.9043 14.0993 13.9043 14.1208C13.9043 14.224 14.0712 14.7964 14.1737 15.0443C14.6008 16.0781 15.3586 16.7106 16.5267 17.0082C16.6934 17.0506 16.8473 17.0853 16.8688 17.0853C16.8903 17.0853 16.9896 16.9643 17.0895 16.8163C17.3077 16.4931 17.559 16.2538 17.7942 16.145C17.9355 16.0798 18.0368 16.0648 18.3389 16.0649C18.8719 16.0649 18.9571 16.1165 19.7708 16.9321C20.4675 17.6305 20.5541 17.7539 20.6287 18.1552C20.7037 18.5584 20.5383 18.9968 20.115 19.5164C19.7783 19.9297 19.0888 20.3461 18.4873 20.4993C16.6312 20.9721 14.3282 20.1664 12.5907 18.4365C10.3425 16.198 9.69241 13.1221 11.0803 11.2897ZM13.7779 12.6953C13.7962 12.6376 13.6872 12.5086 13.2501 12.0708C12.9471 11.7673 12.6739 11.5193 12.6431 11.5196C12.4597 11.5219 12.0035 11.9447 11.8196 12.2828C11.5664 12.7481 11.4684 13.5512 11.5812 14.2367C11.9383 16.4083 13.8292 18.5282 16.0408 19.2367C17.247 19.6231 18.4301 19.4922 19.0772 18.9008C19.2736 18.7212 19.4707 18.4404 19.4707 18.34C19.4707 18.3127 19.2224 18.0425 18.9188 17.7395C18.481 17.3024 18.352 17.1934 18.2943 17.2117C18.2543 17.2244 18.0848 17.434 17.9178 17.6775C17.5354 18.2348 17.4597 18.2924 17.1143 18.2885C16.624 18.283 15.8864 18.0825 15.2147 17.7722C14.349 17.3722 13.6174 16.6407 13.2175 15.7749C12.9071 15.1033 12.7066 14.3656 12.7011 13.8754C12.6973 13.5299 12.7548 13.4543 13.3121 13.0719C13.5556 12.9048 13.7652 12.7353 13.7779 12.6953Z" fill="#E3E3E3"/>
</svg>


