<svg width="1294" height="77" viewBox="0 0 1294 77" fill="none" xmlns="http://www.w3.org/2000/svg">
<path d="M0.2 -5.24521e-06V30.8L28.91 26.84V15.62H47.39V77H76.1V15.62H94.58V26.84L123.29 30.8V-5.24521e-06H0.2ZM219.89 27.39L163.02 36.96V15.62H219.89V27.39ZM134.31 -5.24521e-06V77H163.02V54.23L248.6 39.82V-5.24521e-06H134.31ZM348.474 15.62V25.52L291.604 35.09V15.62H348.474ZM291.604 52.36L377.184 37.95V-5.24521e-06H262.894V77H377.184V52.47L348.474 55.44V61.38H291.604V52.36ZM508.988 -5.24521e-06H480.278V30.47H423.518V-5.24521e-06H394.808V77H423.518V46.09H480.278V77H508.988V-5.24521e-06ZM612.194 -5.24521e-06V15.4L555.324 42.9V-5.24521e-06H526.614V77H555.324V63.47L612.194 35.97V77H640.904V-5.24521e-06H612.194ZM744.109 27.39L687.239 36.96V15.62H744.109V27.39ZM658.529 -5.24521e-06V77H687.239V54.23L772.819 39.82V-5.24521e-06H658.529ZM872.693 61.38H815.823V15.62H872.693V61.38ZM901.403 -5.24521e-06H787.113V77H901.403V-5.24521e-06ZM982.937 46.31L1004.61 55.77V61.38H947.737V46.31H982.937ZM919.027 -5.24521e-06V77H1033.32V46.75L1008.13 38.5L1033.32 30.25V-5.24521e-06H919.027ZM947.737 30.69V15.62H1004.61V21.23L982.937 30.69H947.737ZM1146.2 60.5L1120.24 39.05L1164.57 27.06V-5.24521e-06H1135.86V15.07L1079.65 30.25V-5.24521e-06H1050.94V77H1079.65V49.94L1092.96 46.31L1129.15 77H1165.23V60.5H1146.2ZM1265.1 -5.24521e-06V15.4L1208.23 42.9V-5.24521e-06H1179.52V77H1208.23V63.47L1265.1 35.97V77H1293.81V-5.24521e-06H1265.1Z" fill="#191919"/>
</svg>
