<svg width="472" height="28" viewBox="0 0 472 28" fill="none" xmlns="http://www.w3.org/2000/svg">
<path d="M0.8 -1.90735e-06V11.2L11.24 9.76V5.68H17.96V28H28.4V5.68H35.12V9.76L45.56 11.2V-1.90735e-06H0.8ZM80.6872 9.96L60.0072 13.44V5.68H80.6872V9.96ZM49.5672 -1.90735e-06V28H60.0072V19.72L91.1272 14.48V-1.90735e-06H49.5672ZM127.445 5.68V9.28L106.765 12.76V5.68H127.445ZM106.765 19.04L137.885 13.8V-1.90735e-06H96.325V28H137.885V19.08L127.445 20.16V22.32H106.765V19.04ZM185.814 -1.90735e-06H175.374V11.08H154.734V-1.90735e-06H144.294V28H154.734V16.76H175.374V28H185.814V-1.90735e-06ZM223.343 -1.90735e-06V5.6L202.663 15.6V-1.90735e-06H192.223V28H202.663V23.08L223.343 13.08V28H233.783V-1.90735e-06H223.343ZM271.312 9.96L250.632 13.44V5.68H271.312V9.96ZM240.192 -1.90735e-06V28H250.632V19.72L281.752 14.48V-1.90735e-06H240.192ZM318.07 22.32H297.39V5.68H318.07V22.32ZM328.51 -1.90735e-06H286.95V28H328.51V-1.90735e-06ZM358.159 16.84L366.039 20.28V22.32H345.359V16.84H358.159ZM334.919 -1.90735e-06V28H376.479V17L367.319 14L376.479 11V-1.90735e-06H334.919ZM345.359 11.16V5.68H366.039V7.72L358.159 11.16H345.359ZM417.528 22L408.088 14.2L424.208 9.84V-1.90735e-06H413.768V5.48L393.328 11V-1.90735e-06H382.888V28H393.328V18.16L398.168 16.84L411.328 28H424.448V22H417.528ZM460.765 -1.90735e-06V5.6L440.085 15.6V-1.90735e-06H429.645V28H440.085V23.08L460.765 13.08V28H471.205V-1.90735e-06H460.765Z" fill="#E3E3E3"/>
</svg>
