<svg width="310" height="28" viewBox="0 0 310 28" fill="none" xmlns="http://www.w3.org/2000/svg">
<path d="M31.32 22.32H10.64V5.68H31.32V22.32ZM41.76 -1.90735e-06H0.2V28H41.76V-1.90735e-06ZM45.7688 -1.90735e-06V11.2L56.2088 9.76V5.68H62.9288V28H73.3688V5.68H80.0888V9.76L90.5288 11.2V-1.90735e-06H45.7688ZM124.616 5.68V7.72L116.776 11.16H107.816V16.84H116.776L124.616 20.28V22.32H104.176V19.04L93.7359 18.2V28H135.056V17L125.896 14L135.056 11V-1.90735e-06H93.7359V9.8L104.176 8.96V5.68H124.616ZM198.29 28V-1.90735e-06H187.85V28H198.29ZM172.57 22.32H151.89V15.28L172.57 18.76V22.32ZM151.89 9V-1.90735e-06H141.45V28H183.01V14.24L151.89 9ZM227.932 16.84L235.812 20.28V22.32H215.132V16.84H227.932ZM204.692 -1.90735e-06V28H246.252V17L237.092 14L246.252 11V-1.90735e-06H204.692ZM215.132 11.16V5.68H235.812V7.72L227.932 11.16H215.132ZM309.501 28V-1.90735e-06H299.061V28H309.501ZM283.781 22.32H263.101V15.28L283.781 18.76V22.32ZM263.101 9V-1.90735e-06H252.661V28H294.221V14.24L263.101 9Z" fill="#E3E3E3"/>
</svg>
