<svg width="19" height="19" viewBox="0 0 19 19" fill="none" xmlns="http://www.w3.org/2000/svg">
<path fill-rule="evenodd" clip-rule="evenodd" d="M4.32324 0.0423889C3.72367 0.146072 3.2755 0.298518 2.73229 0.583518C1.36841 1.29917 0.396922 2.59704 0.0672421 4.14383C0.0042305 4.43948 0 4.77435 0 9.48758C0 14.2008 0.0042305 14.5357 0.0672421 14.8313C0.401486 16.3996 1.39424 17.7088 2.79044 18.4224C3.20781 18.6357 3.6834 18.805 4.1377 18.9018C4.43335 18.9648 4.76822 18.969 9.48145 18.969C14.1947 18.969 14.5295 18.9648 14.8252 18.9018C15.8377 18.686 16.7452 18.1978 17.4649 17.4818C18.1824 16.768 18.679 15.8481 18.8956 14.8313C18.9587 14.5357 18.9629 14.2008 18.9629 9.48758C18.9629 4.77435 18.9587 4.43948 18.8956 4.14383C18.796 3.67606 18.6277 3.20774 18.405 2.77813C17.6885 1.39625 16.4503 0.451483 14.8623 0.0750823C14.6037 0.0137777 14.2314 0.00858259 9.59277 0.00168037C5.64448 -0.00418282 4.54341 0.00435162 4.32324 0.0423889ZM14.6396 1.18996C15.492 1.39228 16.1375 1.75016 16.7051 2.33501C17.2779 2.92531 17.6036 3.54021 17.782 4.36823C17.8455 4.66254 17.8496 4.97845 17.8496 9.48758C17.8496 13.9967 17.8455 14.3126 17.782 14.6069C17.5979 15.4612 17.2331 16.1298 16.634 16.7112C16.0437 17.284 15.4288 17.6097 14.6008 17.7882C14.3065 17.8516 13.9906 17.8557 9.48145 17.8557C4.97232 17.8557 4.65641 17.8516 4.3621 17.7882C3.53407 17.6097 2.91917 17.284 2.32887 16.7112C1.72974 16.1298 1.36496 15.4612 1.18086 14.6069C1.11744 14.3126 1.11328 13.9967 1.11328 9.48758C1.11328 4.97845 1.11744 4.66254 1.18086 4.36823C1.36496 3.51397 1.72974 2.84533 2.32887 2.26394C3.00649 1.6064 3.80456 1.22967 4.71163 1.13912C4.87562 1.12275 7.11387 1.11266 9.68555 1.11663C14.0248 1.12339 14.3814 1.12865 14.6396 1.18996ZM14.4209 2.49313C14.1291 2.5751 13.8815 2.72191 13.6901 2.9266C13.117 3.53928 13.1285 4.47941 13.7163 5.06718C14.3041 5.655 15.2442 5.6665 15.8569 5.09342C16.5474 4.44757 16.4775 3.31139 15.7129 2.75004C15.3464 2.48107 14.8297 2.37831 14.4209 2.49313ZM15.0821 3.70137C15.2966 3.91583 15.2071 4.28191 14.9209 4.36096C14.7507 4.40794 14.6258 4.37684 14.5182 4.26076C14.4035 4.13693 14.3768 4.0282 14.4215 3.86629C14.5015 3.57657 14.8662 3.48551 15.0821 3.70137ZM8.66504 4.34867C7.03312 4.62644 5.64289 5.63028 4.88207 7.08022C4.46719 7.87091 4.28743 8.5987 4.28743 9.48758C4.28743 10.8846 4.81861 12.1624 5.81263 13.1564C7.12589 14.4696 9.01019 14.9842 10.8039 14.5194C12.1719 14.1649 13.4101 13.1732 14.0808 11.8949C14.4957 11.1042 14.6755 10.3765 14.6755 9.48758C14.6755 8.09056 14.1443 6.81277 13.1503 5.81876C12.5025 5.17105 11.6476 4.67438 10.8039 4.45577C10.1741 4.29256 9.2628 4.24696 8.66504 4.34867ZM10.1779 5.48333C11.1754 5.63421 12.2184 6.29966 12.8189 7.16828C13.9387 8.78807 13.7426 10.9676 12.352 12.3582C10.7599 13.9503 8.20006 13.9473 6.60424 12.3515C5.0235 10.7708 5.02646 8.20137 6.61085 6.61698C7.5522 5.67563 8.80891 5.27626 10.1779 5.48333Z" fill="#8C8C8C"/>
<path fill-rule="evenodd" clip-rule="evenodd" d="M2.73229 0.583518C3.2755 0.298518 3.72367 0.146072 4.32324 0.0423889C4.54341 0.00435162 5.64448 -0.00418282 9.59277 0.00168037C14.2314 0.00858259 14.6037 0.0137777 14.8623 0.0750823C16.4503 0.451483 17.6885 1.39625 18.405 2.77813C18.6277 3.20774 18.796 3.67606 18.8956 4.14383C18.9587 4.43948 18.9629 4.77435 18.9629 9.48758C18.9629 14.2008 18.9587 14.5357 18.8956 14.8313C18.679 15.8481 18.1824 16.768 17.4649 17.4818C16.7452 18.1978 15.8377 18.686 14.8252 18.9018C14.5295 18.9648 14.1947 18.969 9.48145 18.969C4.76822 18.969 4.43335 18.9648 4.1377 18.9018C3.6834 18.805 3.20781 18.6357 2.79044 18.4224C1.39424 17.7088 0.401486 16.3996 0.0672421 14.8313C0.0042305 14.5357 0 14.2008 0 9.48758C0 4.77435 0.0042305 4.43948 0.0672421 4.14383C0.396922 2.59704 1.36841 1.29917 2.73229 0.583518ZM16.7051 2.33501C16.1375 1.75016 15.492 1.39228 14.6396 1.18996C14.3814 1.12865 14.0248 1.12339 9.68555 1.11663C7.11387 1.11266 4.87562 1.12275 4.71163 1.13912C3.80456 1.22967 3.00649 1.6064 2.32887 2.26394C1.72974 2.84533 1.36496 3.51397 1.18086 4.36823C1.11744 4.66254 1.11328 4.97845 1.11328 9.48758C1.11328 13.9967 1.11744 14.3126 1.18086 14.6069C1.36496 15.4612 1.72974 16.1298 2.32887 16.7112C2.91917 17.284 3.53407 17.6097 4.3621 17.7882C4.65641 17.8516 4.97232 17.8557 9.48145 17.8557C13.9906 17.8557 14.3065 17.8516 14.6008 17.7882C15.4288 17.6097 16.0437 17.284 16.634 16.7112C17.2331 16.1298 17.5979 15.4612 17.782 14.6069C17.8455 14.3126 17.8496 13.9967 17.8496 9.48758C17.8496 4.97845 17.8455 4.66254 17.782 4.36823C17.6036 3.54021 17.2779 2.92531 16.7051 2.33501ZM14.4209 2.49313C14.1291 2.5751 13.8815 2.72191 13.6901 2.9266C13.117 3.53928 13.1285 4.47941 13.7163 5.06718C14.3041 5.655 15.2442 5.6665 15.8569 5.09342C16.5474 4.44757 16.4775 3.31139 15.7129 2.75004C15.3464 2.48107 14.8297 2.37831 14.4209 2.49313ZM8.66504 4.34867C7.03312 4.62644 5.64289 5.63028 4.88207 7.08022C4.46719 7.87091 4.28743 8.5987 4.28743 9.48758C4.28743 10.8846 4.81861 12.1624 5.81263 13.1564C7.12589 14.4696 9.01019 14.9842 10.8039 14.5194C12.1719 14.1649 13.4101 13.1732 14.0808 11.8949C14.4957 11.1042 14.6755 10.3765 14.6755 9.48758C14.6755 8.09056 14.1443 6.81277 13.1503 5.81876C12.5025 5.17105 11.6476 4.67438 10.8039 4.45577C10.1741 4.29256 9.2628 4.24696 8.66504 4.34867ZM10.1779 5.48333C11.1754 5.63421 12.2184 6.29966 12.8189 7.16828C13.9387 8.78807 13.7426 10.9676 12.352 12.3582C10.7599 13.9503 8.20006 13.9473 6.60424 12.3515C5.0235 10.7708 5.02646 8.20137 6.61085 6.61698C7.5522 5.67563 8.80891 5.27626 10.1779 5.48333ZM14.9209 4.36096C15.2071 4.28191 15.2966 3.91583 15.0821 3.70137C14.8662 3.48551 14.5015 3.57657 14.4215 3.86629C14.3768 4.0282 14.4035 4.13693 14.5182 4.26076C14.6258 4.37684 14.7507 4.40794 14.9209 4.36096Z" fill="#8C8C8C"/>
</svg>
