<svg width="19" height="12" viewBox="0 0 19 12" fill="none" xmlns="http://www.w3.org/2000/svg">
<path fill-rule="evenodd" clip-rule="evenodd" d="M0.790311 0.0498295C0.419551 0.167095 0.185836 0.37576 0.0637465 0.698501C-0.118943 1.18144 0.0906506 2.15849 0.697575 3.65319C1.58879 5.84806 2.92551 7.93847 4.35281 9.36933C5.6696 10.6895 6.97218 11.4539 8.44048 11.7682C8.97987 11.8836 10.1827 11.8935 10.5686 11.7856C10.9021 11.6925 11.2192 11.5159 11.3502 11.3506C11.5736 11.0685 11.5803 11.0265 11.5936 9.83594C11.6003 9.23607 11.6154 8.73561 11.6273 8.72377C11.6595 8.6916 11.9289 8.84464 12.2056 9.05223C12.5773 9.33118 13.1147 9.85402 13.7698 10.5741C14.4564 11.3287 14.7259 11.5717 15.058 11.7357L15.2984 11.8544H16.7094H18.1204L18.3245 11.7582C18.6011 11.628 18.7347 11.5075 18.8621 11.2734C19.0177 10.9876 19.0364 10.5818 18.9107 10.2202C18.6542 9.4827 17.856 8.44872 16.2552 6.78024C15.9706 6.48363 15.8081 6.28695 15.8245 6.25886C15.839 6.23403 16.0125 5.97994 16.2101 5.6942C17.3004 4.11754 18.2434 2.47029 18.5077 1.6809C18.7623 0.920341 18.5972 0.380994 18.0276 0.112618L17.8235 0.016468H16.4319H15.0403L14.7991 0.131024C14.665 0.194667 14.4823 0.322397 14.3876 0.418622C14.2115 0.597637 14.1625 0.686292 13.8374 1.41215C13.2913 2.6316 12.2843 4.25773 11.7636 4.76075L11.6158 4.90347L11.5887 4.66946C11.5737 4.54073 11.5737 3.74173 11.5886 2.89389C11.6218 1.00788 11.5956 0.754982 11.3261 0.364777C11.2752 0.29104 11.1465 0.182495 11.0402 0.123566L10.847 0.016468H8.95437H7.0618L6.87291 0.116143C6.52898 0.297608 6.30335 0.640462 6.30187 0.983835C6.30061 1.27897 6.39049 1.51053 6.654 1.89079C6.93466 2.29587 7.03556 2.57909 7.05051 3.00377C7.05589 3.15685 7.05601 3.83317 7.05077 4.5067L7.04124 5.73131L6.93073 5.60143C6.8699 5.52999 6.70592 5.30455 6.56624 5.10045C5.90747 4.13784 5.30073 2.91976 4.77745 1.50919C4.658 1.18719 4.50652 0.822966 4.44083 0.699725C4.27492 0.388414 4.01745 0.166093 3.71446 0.0725031C3.49172 0.00370216 3.37438 -0.00190163 2.20585 0.00039959C1.29322 0.00218105 0.897223 0.0160227 0.790311 0.0498295ZM3.36151 1.25173C3.39799 1.28821 3.48382 1.47605 3.55225 1.66921C4.15865 3.38084 5.06119 5.14769 5.83496 6.13777C6.16048 6.55432 6.58873 6.95002 6.86486 7.08944C7.4258 7.37258 7.9902 7.15149 8.17964 6.57436C8.24414 6.37794 8.2493 6.22026 8.2493 4.45104C8.2493 2.56354 8.24822 2.53623 8.16339 2.24303C8.05206 1.85824 7.96741 1.67028 7.78506 1.40317L7.63643 1.18541H9.00785H10.3793L10.3906 3.38414C10.4019 5.57504 10.4022 5.58362 10.4867 5.7928C10.6462 6.18801 11.006 6.41698 11.3824 6.36269C12.3184 6.22776 13.4754 4.84952 14.6693 2.44713C14.857 2.06954 15.058 1.64627 15.116 1.50648C15.19 1.32817 15.2478 1.24241 15.3096 1.21889C15.358 1.20048 15.8493 1.18541 16.4013 1.18541H17.4048L17.3801 1.28746C17.269 1.74536 16.2997 3.40407 15.1477 5.10754C14.6426 5.85437 14.5524 6.06314 14.5877 6.40459C14.6223 6.7402 14.789 6.98783 15.4391 7.66976C16.5752 8.86149 17.298 9.72918 17.6087 10.2744C17.7096 10.4515 17.7819 10.5527 17.7562 10.6104C17.7174 10.6977 17.4545 10.6854 16.7276 10.6854C15.9136 10.6854 15.6614 10.674 15.5679 10.6331C15.4019 10.5604 15.2247 10.389 14.5856 9.68346C13.18 8.13169 12.2943 7.49223 11.5335 7.47994C10.855 7.46899 10.5205 7.75971 10.4212 8.44653C10.401 8.58595 10.3842 9.12819 10.3838 9.65151L10.3831 10.6029L10.2625 10.6244C9.36592 10.7838 8.23456 10.5758 7.24111 10.0689C5.08969 8.97111 2.90881 6.11024 1.61904 2.69391C1.42507 2.18009 1.21722 1.45275 1.21714 1.28746L1.21707 1.18541H2.25613C3.20442 1.18541 3.30098 1.1912 3.36151 1.25173Z" fill="#8C8C8C"/>
<path fill-rule="evenodd" clip-rule="evenodd" d="M0.0637465 0.698501C0.185836 0.37576 0.419551 0.167095 0.790311 0.0498295C0.897223 0.0160227 1.29322 0.00218105 2.20585 0.00039959C3.37438 -0.00190163 3.49172 0.00370216 3.71446 0.0725031C4.01745 0.166093 4.27492 0.388414 4.44083 0.699725C4.50652 0.822966 4.658 1.18719 4.77745 1.50919C5.30073 2.91976 5.90747 4.13784 6.56624 5.10045C6.70592 5.30455 6.8699 5.52999 6.93073 5.60143L7.04124 5.73131L7.05077 4.5067C7.05601 3.83317 7.05589 3.15685 7.05051 3.00377C7.03556 2.57909 6.93466 2.29587 6.654 1.89079C6.39049 1.51053 6.30061 1.27897 6.30187 0.983835C6.30335 0.640462 6.52898 0.297608 6.87291 0.116143L7.0618 0.016468H8.95437H10.847L11.0402 0.123566C11.1465 0.182495 11.2752 0.29104 11.3261 0.364777C11.5956 0.754982 11.6218 1.00788 11.5886 2.89389C11.5737 3.74173 11.5737 4.54073 11.5887 4.66946L11.6158 4.90347L11.7636 4.76075C12.2843 4.25773 13.2913 2.6316 13.8374 1.41215C14.1625 0.686292 14.2115 0.597637 14.3876 0.418622C14.4823 0.322397 14.665 0.194667 14.7991 0.131024L15.0403 0.016468H16.4319H17.8235L18.0276 0.112618C18.5972 0.380994 18.7623 0.920341 18.5077 1.6809C18.2434 2.47029 17.3004 4.11754 16.2101 5.6942C16.0125 5.97994 15.839 6.23403 15.8245 6.25886C15.8081 6.28695 15.9706 6.48363 16.2552 6.78024C17.856 8.44872 18.6542 9.4827 18.9107 10.2202C19.0364 10.5818 19.0177 10.9876 18.8621 11.2734C18.7347 11.5075 18.6011 11.628 18.3245 11.7582L18.1204 11.8544H16.7094H15.2984L15.058 11.7357C14.7259 11.5717 14.4564 11.3287 13.7698 10.5741C13.1147 9.85402 12.5773 9.33118 12.2056 9.05223C11.9289 8.84464 11.6595 8.6916 11.6273 8.72377C11.6154 8.73561 11.6003 9.23607 11.5936 9.83594C11.5803 11.0265 11.5736 11.0685 11.3502 11.3506C11.2192 11.5159 10.9021 11.6925 10.5686 11.7856C10.1827 11.8935 8.97987 11.8836 8.44048 11.7682C6.97218 11.4539 5.6696 10.6895 4.35281 9.36933C2.92551 7.93847 1.58879 5.84806 0.697575 3.65319C0.0906506 2.15849 -0.118943 1.18144 0.0637465 0.698501ZM3.55225 1.66921C3.48382 1.47605 3.39799 1.28821 3.36151 1.25173C3.30098 1.1912 3.20442 1.18541 2.25613 1.18541H1.21707L1.21714 1.28746C1.21722 1.45275 1.42507 2.18009 1.61904 2.69391C2.90881 6.11024 5.08969 8.97111 7.24111 10.0689C8.23456 10.5758 9.36592 10.7838 10.2625 10.6244L10.3831 10.6029L10.3838 9.65151C10.3842 9.12819 10.401 8.58595 10.4212 8.44653C10.5205 7.75971 10.855 7.46899 11.5335 7.47994C12.2943 7.49223 13.18 8.13169 14.5856 9.68346C15.2247 10.389 15.4019 10.5604 15.5679 10.6331C15.6614 10.674 15.9136 10.6854 16.7276 10.6854C17.4545 10.6854 17.7174 10.6977 17.7562 10.6104C17.7819 10.5527 17.7096 10.4515 17.6087 10.2744C17.298 9.72918 16.5752 8.86149 15.4391 7.66976C14.789 6.98783 14.6223 6.7402 14.5877 6.40459C14.5524 6.06314 14.6426 5.85437 15.1477 5.10754C16.2997 3.40407 17.269 1.74536 17.3801 1.28746L17.4048 1.18541H16.4013C15.8493 1.18541 15.358 1.20048 15.3096 1.21889C15.2478 1.24241 15.19 1.32817 15.116 1.50648C15.058 1.64627 14.857 2.06954 14.6693 2.44713C13.4754 4.84952 12.3184 6.22776 11.3824 6.36269C11.006 6.41698 10.6462 6.18801 10.4867 5.7928C10.4022 5.58362 10.4019 5.57504 10.3906 3.38414L10.3793 1.18541H9.00785H7.63643L7.78506 1.40317C7.96741 1.67028 8.05206 1.85824 8.16339 2.24303C8.24822 2.53623 8.2493 2.56354 8.2493 4.45104C8.2493 6.22026 8.24414 6.37794 8.17964 6.57436C7.9902 7.15149 7.4258 7.37258 6.86486 7.08944C6.58873 6.95002 6.16048 6.55432 5.83496 6.13777C5.06119 5.14769 4.15865 3.38084 3.55225 1.66921Z" fill="#8C8C8C"/>
</svg>
