<svg width="19" height="19" viewBox="0 0 19 19" fill="none" xmlns="http://www.w3.org/2000/svg">
<path fill-rule="evenodd" clip-rule="evenodd" d="M8.66503 0.0126896C7.41938 0.141533 6.39208 0.431209 5.32519 0.95434C3.79536 1.70451 2.56351 2.78435 1.59095 4.22779C0.24692 6.22265 -0.287827 8.80279 0.149433 11.1834C0.327373 12.1522 0.701287 13.2213 1.13725 14.0078L1.28643 14.277L0.920084 15.6406C0.261467 18.0921 0.25783 18.1075 0.302249 18.2683C0.352644 18.4508 0.538822 18.637 0.721325 18.6874C0.882083 18.7318 0.898708 18.7279 3.3408 18.0717L4.69626 17.7076L5.17772 17.952C6.24016 18.4913 7.2617 18.7959 8.48758 18.9389C9.14931 19.016 10.3232 18.99 10.9473 18.8843C13.0151 18.5342 14.7587 17.6492 16.2073 16.2145C16.9804 15.449 17.5497 14.6548 18.0353 13.6644C18.4796 12.7583 18.7576 11.8723 18.9142 10.8627C19.0079 10.2587 19.0079 8.72063 18.9142 8.1166C18.7579 7.10904 18.4815 6.2284 18.0348 5.31484C17.5569 4.33745 16.9902 3.54435 16.2178 2.77188C15.4453 1.99945 14.6522 1.43275 13.6748 0.95486C12.7733 0.514074 11.8818 0.232414 10.9101 0.0814161C10.5353 0.0231915 9.01382 -0.0234179 8.66503 0.0126896ZM10.4463 1.21767C12.5636 1.4401 14.6161 2.56299 15.9683 4.23867C16.7888 5.25543 17.3816 6.49481 17.641 7.73586C17.775 8.37651 17.8158 8.79577 17.8153 9.52505C17.8143 11.0669 17.4145 12.5059 16.623 13.8162C16.0003 14.8472 15.0211 15.8489 13.9896 16.51C12.9929 17.1489 12.0025 17.5262 10.7802 17.7323C10.1288 17.8422 8.98432 17.8508 8.33105 17.7508C7.278 17.5895 6.29044 17.248 5.38085 16.7307C5.14191 16.5948 4.97339 16.5245 4.85787 16.5126C4.72201 16.4986 4.38795 16.5752 3.21129 16.8905C2.39945 17.108 1.72807 17.2789 1.71938 17.2703C1.7107 17.2616 1.88159 16.5902 2.09912 15.7783C2.4144 14.6017 2.49107 14.2676 2.47704 14.1318C2.46509 14.0162 2.39481 13.8477 2.25892 13.6088C1.74176 12.6995 1.40058 11.7128 1.2387 10.6586C1.13821 10.0043 1.14768 8.82234 1.25845 8.19082C1.51832 6.70904 2.0376 5.51861 2.92551 4.36914C3.27441 3.91749 4.03738 3.16509 4.47724 2.83894C6.23032 1.53904 8.25928 0.987961 10.4463 1.21767ZM6.31237 4.39019C5.92128 4.49535 5.38579 4.8863 5.08027 5.28968C3.69241 7.12214 4.3425 10.198 6.59073 12.4365C8.32823 14.1664 10.6312 14.9721 12.4873 14.4993C13.0888 14.3461 13.7783 13.9297 14.115 13.5164C14.5383 12.9968 14.7037 12.5584 14.6287 12.1552C14.5541 11.7539 14.4675 11.6305 13.7708 10.9321C12.9571 10.1165 12.8719 10.0649 12.3389 10.0649C12.0368 10.0648 11.9355 10.0798 11.7942 10.145C11.559 10.2538 11.3077 10.4931 11.0895 10.8163C10.9896 10.9643 10.8903 11.0853 10.8688 11.0853C10.8473 11.0853 10.6934 11.0506 10.5267 11.0082C9.35857 10.7106 8.6008 10.0781 8.17367 9.04433C8.07125 8.79644 7.90429 8.22403 7.90429 8.12083C7.90429 8.09934 8.02534 8.00004 8.17333 7.90014C8.49652 7.68194 8.73588 7.43067 8.84461 7.19539C8.90988 7.05416 8.9248 6.95285 8.92476 6.65078C8.92472 6.13377 8.86646 6.03324 8.13686 5.29102C7.48896 4.63192 7.27818 4.47031 6.95949 4.38833C6.69189 4.31949 6.57399 4.31983 6.31237 4.39019ZM7.25009 6.0708C7.68724 6.50865 7.79623 6.63764 7.77793 6.69535C7.76524 6.73535 7.55561 6.90479 7.31214 7.07186C6.75483 7.45427 6.69727 7.52994 6.70113 7.87539C6.70662 8.3656 6.90712 9.10326 7.21747 9.77494C7.61744 10.6407 8.34897 11.3722 9.2147 11.7722C9.88638 12.0825 10.624 12.283 11.1143 12.2885C11.4597 12.2924 11.5354 12.2348 11.9178 11.6775C12.0848 11.434 12.2543 11.2244 12.2943 11.2117C12.352 11.1934 12.481 11.3024 12.9188 11.7395C13.2224 12.0425 13.4707 12.3127 13.4707 12.34C13.4707 12.4404 13.2736 12.7212 13.0772 12.9008C12.4301 13.4922 11.247 13.6231 10.0408 13.2367C7.82922 12.5282 5.93831 10.4083 5.58117 8.23672C5.46839 7.55116 5.5664 6.74812 5.81956 6.2828C6.00355 5.94466 6.45966 5.52195 6.64305 5.51965C6.67389 5.51927 6.94709 5.76728 7.25009 6.0708Z" fill="#8C8C8C"/>
<path fill-rule="evenodd" clip-rule="evenodd" d="M8.66503 0.0126896C7.41938 0.141533 6.39208 0.431209 5.32519 0.95434C3.79536 1.70451 2.56351 2.78435 1.59095 4.22779C0.24692 6.22265 -0.287827 8.80279 0.149433 11.1834C0.327373 12.1522 0.701287 13.2213 1.13725 14.0078L1.28643 14.277L0.920084 15.6406C0.261467 18.0921 0.25783 18.1075 0.302249 18.2683C0.352644 18.4508 0.538822 18.637 0.721325 18.6874C0.882083 18.7318 0.898708 18.7279 3.3408 18.0717L4.69626 17.7076L5.17772 17.952C6.24016 18.4913 7.2617 18.7959 8.48758 18.9389C9.14931 19.016 10.3232 18.99 10.9473 18.8843C13.0151 18.5342 14.7587 17.6492 16.2073 16.2145C16.9804 15.449 17.5497 14.6548 18.0353 13.6644C18.4796 12.7583 18.7576 11.8723 18.9142 10.8627C19.0079 10.2587 19.0079 8.72063 18.9142 8.1166C18.7579 7.10904 18.4815 6.2284 18.0348 5.31484C17.5569 4.33745 16.9902 3.54435 16.2178 2.77188C15.4453 1.99945 14.6522 1.43275 13.6748 0.95486C12.7733 0.514074 11.8818 0.232414 10.9101 0.0814161C10.5353 0.0231915 9.01382 -0.0234179 8.66503 0.0126896ZM10.4463 1.21767C12.5636 1.4401 14.6161 2.56299 15.9683 4.23867C16.7888 5.25543 17.3816 6.49481 17.641 7.73586C17.775 8.37651 17.8158 8.79577 17.8153 9.52505C17.8143 11.0669 17.4145 12.5059 16.623 13.8162C16.0003 14.8472 15.0211 15.8489 13.9896 16.51C12.9929 17.1489 12.0025 17.5262 10.7802 17.7323C10.1288 17.8422 8.98432 17.8508 8.33105 17.7508C7.278 17.5895 6.29044 17.248 5.38085 16.7307C5.14191 16.5948 4.97339 16.5245 4.85787 16.5126C4.72201 16.4986 4.38795 16.5752 3.21129 16.8905C2.39945 17.108 1.72807 17.2789 1.71938 17.2703C1.7107 17.2616 1.88159 16.5902 2.09912 15.7783C2.4144 14.6017 2.49107 14.2676 2.47704 14.1318C2.46509 14.0162 2.39481 13.8477 2.25892 13.6088C1.74176 12.6995 1.40058 11.7128 1.2387 10.6586C1.13821 10.0043 1.14768 8.82234 1.25845 8.19082C1.51832 6.70904 2.0376 5.51861 2.92551 4.36914C3.27441 3.91749 4.03738 3.16509 4.47724 2.83894C6.23032 1.53904 8.25928 0.987961 10.4463 1.21767ZM5.08027 5.28968C5.38579 4.8863 5.92128 4.49535 6.31237 4.39019C6.57399 4.31983 6.69189 4.31949 6.95949 4.38833C7.27818 4.47031 7.48896 4.63192 8.13686 5.29102C8.86646 6.03324 8.92472 6.13377 8.92476 6.65078C8.9248 6.95285 8.90988 7.05416 8.84461 7.19539C8.73588 7.43067 8.49652 7.68194 8.17333 7.90014C8.02534 8.00004 7.90429 8.09934 7.90429 8.12083C7.90429 8.22403 8.07125 8.79644 8.17367 9.04433C8.6008 10.0781 9.35857 10.7106 10.5267 11.0082C10.6934 11.0506 10.8473 11.0853 10.8688 11.0853C10.8903 11.0853 10.9896 10.9643 11.0895 10.8163C11.3077 10.4931 11.559 10.2538 11.7942 10.145C11.9355 10.0798 12.0368 10.0648 12.3389 10.0649C12.8719 10.0649 12.9571 10.1165 13.7708 10.9321C14.4675 11.6305 14.5541 11.7539 14.6287 12.1552C14.7037 12.5584 14.5383 12.9968 14.115 13.5164C13.7783 13.9297 13.0888 14.3461 12.4873 14.4993C10.6312 14.9721 8.32823 14.1664 6.59073 12.4365C4.3425 10.198 3.69241 7.12214 5.08027 5.28968ZM7.77793 6.69535C7.79623 6.63764 7.68724 6.50865 7.25009 6.0708C6.94709 5.76728 6.67389 5.51927 6.64305 5.51965C6.45966 5.52195 6.00355 5.94466 5.81956 6.2828C5.5664 6.74812 5.46839 7.55116 5.58117 8.23672C5.93831 10.4083 7.82922 12.5282 10.0408 13.2367C11.247 13.6231 12.4301 13.4922 13.0772 12.9008C13.2736 12.7212 13.4707 12.4404 13.4707 12.34C13.4707 12.3127 13.2224 12.0425 12.9188 11.7395C12.481 11.3024 12.352 11.1934 12.2943 11.2117C12.2543 11.2244 12.0848 11.434 11.9178 11.6775C11.5354 12.2348 11.4597 12.2924 11.1143 12.2885C10.624 12.283 9.88638 12.0825 9.2147 11.7722C8.34897 11.3722 7.61744 10.6407 7.21747 9.77494C6.90712 9.10326 6.70662 8.3656 6.70113 7.87539C6.69727 7.52994 6.75483 7.45427 7.31214 7.07186C7.55561 6.90479 7.76524 6.73535 7.77793 6.69535Z" fill="#8C8C8C"/>
</svg>
