<svg width="1342" height="110" viewBox="0 0 1342 110" fill="none" xmlns="http://www.w3.org/2000/svg">
<path d="M64.71 79.31L86.38 88.77V94.38H29.51V79.31H64.71ZM0.800001 33V110H115.09V79.75L89.9 71.5L115.09 63.25V33H0.800001ZM29.51 63.69V48.62H86.38V54.23L64.71 63.69H29.51ZM289.024 110V33H260.314V110H289.024ZM218.294 94.38H161.424V75.02L218.294 84.59V94.38ZM161.424 57.75V33H132.714V110H247.004V72.16L161.424 57.75ZM392.21 94.38H335.34V74.91L392.21 84.48V94.38ZM335.34 57.64V48.62H392.21V54.56L420.92 57.53V33H306.63V110H420.92V72.05L335.34 57.64ZM524.124 48.62V58.52L467.254 68.09V48.62H524.124ZM467.254 85.36L552.834 70.95V33H438.544V110H552.834V85.47L524.124 88.44V94.38H467.254V85.36ZM656.038 60.39L599.168 69.96V48.62H656.038V60.39ZM570.458 33V110H599.168V87.23L684.748 72.82V33H570.458ZM784.622 33V48.4L727.752 75.9V33H699.042V110H727.752V96.47L784.622 68.97V110H813.332V33H784.622ZM982.493 85.58V94.38H925.623V48.62H982.493V57.42L1011.2 61.38V33H896.913V110H1011.2V81.62L982.493 85.58ZM1090.48 79.31L1112.15 88.77V94.38H1055.28V79.31H1090.48ZM1026.57 33V110H1140.86V79.75L1115.67 71.5L1140.86 63.25V33H1026.57ZM1055.28 63.69V48.62H1112.15V54.23L1090.48 63.69H1055.28ZM1244.07 94.38H1187.2V48.62H1244.07V94.38ZM1272.78 33H1158.49V110H1272.78V33ZM1372.35 15.4V0H1343.75V14.3L1330 20.35V34.65L1372.35 15.4ZM1375.98 33V48.4L1319.11 75.9V33H1290.4V110H1319.11V96.47L1375.98 68.97V110H1404.69V33H1375.98ZM1573.85 94.38H1516.98V74.91L1573.85 84.48V94.38ZM1516.98 57.64V48.62H1573.85V54.56L1602.56 57.53V33H1488.27V110H1602.56V72.05L1516.98 57.64ZM1668.03 48.62H1677.93L1689.59 75.13H1656.37L1668.03 48.62ZM1701.03 33H1624.58V48.62H1638.22L1611.38 110H1641.19L1649.55 90.75H1696.41L1704.77 110H1734.47L1701.03 33ZM1825.24 15.4V0H1796.64V14.3L1782.89 20.35V34.65L1825.24 15.4ZM1828.87 33V48.4L1772 75.9V33H1743.29V110H1772V96.47L1828.87 68.97V110H1857.58V33H1828.87ZM1970.46 93.5L1944.5 72.05L1988.83 60.06V33H1960.12V48.07L1903.91 63.25V33H1875.2V110H1903.91V82.94L1917.22 79.31L1953.41 110H1989.49V93.5H1970.46Z" fill="#191919"/>
</svg>
