<svg width="724" height="40" viewBox="0 0 724 40" fill="none" xmlns="http://www.w3.org/2000/svg">
<path d="M23.44 28.84L31.32 32.28V34.32H10.64V28.84H23.44ZM0.2 12V40H41.76V29L32.6 26L41.76 23V12H0.2ZM10.64 23.16V17.68H31.32V19.72L23.44 23.16H10.64ZM105.009 40V12H94.5688V40H105.009ZM79.2888 34.32H58.6088V27.28L79.2888 30.76V34.32ZM58.6088 21V12H48.1688V40H89.7288V26.24L58.6088 21ZM142.531 34.32H121.851V27.24L142.531 30.72V34.32ZM121.851 20.96V17.68H142.531V19.84L152.971 20.92V12H111.411V40H152.971V26.2L121.851 20.96ZM190.5 17.68V21.28L169.82 24.76V17.68H190.5ZM169.82 31.04L200.94 25.8V12H159.38V40H200.94V31.08L190.5 32.16V34.32H169.82V31.04ZM238.468 21.96L217.788 25.44V17.68H238.468V21.96ZM207.348 12V40H217.788V31.72L248.908 26.48V12H207.348ZM285.226 12V17.6L264.546 27.6V12H254.106V40H264.546V35.08L285.226 25.08V40H295.666V12H285.226ZM357.179 31.12V34.32H336.499V17.68H357.179V20.88L367.619 22.32V12H326.059V40H367.619V29.68L357.179 31.12ZM396.448 28.84L404.328 32.28V34.32H383.648V28.84H396.448ZM373.208 12V40H414.768V29L405.608 26L414.768 23V12H373.208ZM383.648 23.16V17.68H404.328V19.72L396.448 23.16H383.648ZM452.297 34.32H431.617V17.68H452.297V34.32ZM462.737 12H421.177V40H462.737V12ZM498.945 5.6V0H488.545V5.2L483.545 7.4V12.6L498.945 5.6ZM500.265 12V17.6L479.585 27.6V12H469.145V40H479.585V35.08L500.265 25.08V40H510.705V12H500.265ZM572.218 34.32H551.538V27.24L572.218 30.72V34.32ZM551.538 20.96V17.68H572.218V19.84L582.658 20.92V12H541.098V40H582.658V26.2L551.538 20.96ZM606.467 17.68H610.067L614.307 27.32H602.227L606.467 17.68ZM618.467 12H590.667V17.68H595.627L585.867 40H596.707L599.747 33H616.787L619.827 40H630.627L618.467 12ZM663.633 5.6V0H653.233V5.2L648.233 7.4V12.6L663.633 5.6ZM664.953 12V17.6L644.273 27.6V12H633.833V40H644.273V35.08L664.953 25.08V40H675.393V12H664.953ZM716.442 34L707.002 26.2L723.122 21.84V12H712.682V17.48L692.242 23V12H681.802V40H692.242V30.16L697.082 28.84L710.242 40H723.362V34H716.442Z" fill="#E3E3E3"/>
</svg>
