<svg width="72" height="47" viewBox="0 0 72 47" fill="none" xmlns="http://www.w3.org/2000/svg">
<path d="M14.448 18.8L13.4746 18.571L13.4721 18.5817L13.4698 18.5925L14.448 18.8ZM15.792 15.152L14.9281 14.6481L14.9214 14.6599L15.792 15.152ZM17.84 12.848L18.3947 13.68H18.3947L17.84 12.848ZM22.96 12.848L22.4053 13.68H22.4053L22.96 12.848ZM24.944 15.152L24.0647 15.6283L24.0767 15.6504L24.0898 15.6719L24.944 15.152ZM26.288 18.8L25.3085 19.0017L25.3121 19.0187L25.3162 19.0356L26.288 18.8ZM26.288 28.464L25.3146 28.235L25.3121 28.2457L25.3098 28.2565L26.288 28.464ZM24.944 32.112L24.0801 31.6081L24.0734 31.6199L24.944 32.112ZM22.96 34.352L22.4053 33.5199L22.4053 33.52L22.96 34.352ZM17.84 34.352L17.2853 35.184L17.84 34.352ZM15.792 32.112L14.9127 32.5883L14.9247 32.6104L14.9378 32.6319L15.792 32.112ZM14.448 28.464L13.4685 28.6657L13.4721 28.6827L13.4761 28.6996L14.448 28.464ZM3.056 36.464L2.155 36.8978L3.056 36.464ZM10.032 44.336L9.51748 45.1935L9.5266 45.1989L10.032 44.336ZM31.024 44.336L31.5348 45.1957L31.5385 45.1935L31.024 44.336ZM37.872 10.736L36.9624 11.1515L37.872 10.736ZM31.024 2.928L30.5041 3.7822L30.5113 3.7866L30.5186 3.79088L31.024 2.928ZM10.032 2.928L10.5374 3.79093L10.5465 3.78549L10.032 2.928ZM3.056 10.736L3.957 11.1698H3.957L3.056 10.736ZM15 23.6C15 21.8616 15.1451 20.3331 15.4262 19.0075L13.4698 18.5925C13.1536 20.0829 13 21.7544 13 23.6H15ZM15.4214 19.029C15.7476 17.6427 16.1667 16.5214 16.6626 15.6441L14.9214 14.6599C14.308 15.7452 13.8311 17.0559 13.4746 18.571L15.4214 19.029ZM16.6558 15.6559C17.1975 14.7272 17.7841 14.0871 18.3947 13.68L17.2853 12.0159C16.3599 12.6329 15.5812 13.5288 14.9282 14.6481L16.6558 15.6559ZM18.3947 13.68C18.9955 13.2795 19.6552 13.08 20.4 13.08V11.08C19.2675 11.08 18.2205 11.3925 17.2853 12.0159L18.3947 13.68ZM20.4 13.08C21.1448 13.08 21.8045 13.2795 22.4053 13.68L23.5147 12.0159C22.5795 11.3925 21.5325 11.08 20.4 11.08V13.08ZM22.4053 13.68C23.0068 14.0811 23.5678 14.7109 24.0647 15.6283L25.8233 14.6757C25.2109 13.5451 24.4492 12.6389 23.5147 12.0159L22.4053 13.68ZM24.0898 15.6719C24.613 16.5314 25.0267 17.6326 25.3085 19.0017L27.2675 18.5983C26.952 17.0661 26.4697 15.7352 25.7982 14.6321L24.0898 15.6719ZM25.3162 19.0356C25.635 20.3508 25.8 21.8695 25.8 23.6H27.8C27.8 21.7465 27.6237 20.0652 27.2599 18.5644L25.3162 19.0356ZM25.8 23.6C25.8 25.3299 25.6351 26.8727 25.3146 28.235L27.2614 28.693C27.6235 27.154 27.8 25.4541 27.8 23.6H25.8ZM25.3098 28.2565C25.0286 29.5818 24.6138 30.6935 24.0802 31.6081L25.8078 32.6159C26.4689 31.4825 26.95 30.1622 27.2662 28.6715L25.3098 28.2565ZM24.0734 31.6199C23.5791 32.4945 23.0171 33.1121 22.4053 33.5199L23.5147 35.1841C24.4389 34.5679 25.1995 33.6922 25.8146 32.6041L24.0734 31.6199ZM22.4053 33.52C21.8045 33.9205 21.1448 34.12 20.4 34.12V36.12C21.5325 36.12 22.5795 35.8075 23.5147 35.184L22.4053 33.52ZM20.4 34.12C19.6552 34.12 18.9955 33.9205 18.3947 33.52L17.2853 35.184C18.2205 35.8075 19.2675 36.12 20.4 36.12V34.12ZM18.3947 33.52C17.774 33.1062 17.1857 32.4784 16.6462 31.5921L14.9378 32.6319C15.5929 33.7082 16.37 34.5738 17.2853 35.184L18.3947 33.52ZM16.6713 31.6357C16.1663 30.7034 15.7456 29.572 15.4198 28.2284L13.4761 28.6996C13.8331 30.172 14.3084 31.4726 14.9127 32.5883L16.6713 31.6357ZM15.4275 28.2623C15.1449 26.8901 15 25.3378 15 23.6H13C13 25.4462 13.1537 27.1365 13.4685 28.6657L15.4275 28.2623ZM-0.44 23.6C-0.44 28.8223 0.407823 33.2691 2.155 36.8978L3.957 36.0302C2.37618 32.7469 1.56 28.6177 1.56 23.6H-0.44ZM2.155 36.8978C3.89479 40.5112 6.3466 43.291 9.5175 45.1935L10.5465 43.4785C7.74406 41.797 5.54521 39.3288 3.957 36.0302L2.155 36.8978ZM9.5266 45.1989C12.6862 47.0495 16.3213 47.96 20.4 47.96V45.96C16.628 45.96 13.3511 45.1211 10.5374 43.4731L9.5266 45.1989ZM20.4 47.96C24.6809 47.96 28.4069 47.0543 31.5348 45.1957L30.5132 43.4763C27.7531 45.1164 24.3964 45.96 20.4 45.96V47.96ZM31.5385 45.1935C34.7143 43.288 37.1269 40.5019 38.7816 36.8795L36.9624 36.0485C35.4597 39.3381 33.307 41.8 30.5095 43.4785L31.5385 45.1935ZM38.7816 36.8795C40.4367 33.2561 41.24 28.8162 41.24 23.6H39.24C39.24 28.6238 38.4646 32.7599 36.9624 36.0485L38.7816 36.8795ZM41.24 23.6C41.24 18.3838 40.4367 13.9439 38.7816 10.3205L36.9624 11.1515C38.4646 14.4401 39.24 18.5762 39.24 23.6H41.24ZM38.7816 10.3205C37.1262 6.69651 34.711 3.92861 31.5294 2.06511L30.5186 3.79088C33.3104 5.42605 35.4605 7.86349 36.9624 11.1515L38.7816 10.3205ZM31.5439 2.0738C28.4144 0.168859 24.685 -0.760002 20.4 -0.760002V1.24C24.3923 1.24 27.7456 2.10314 30.5041 3.7822L31.5439 2.0738ZM20.4 -0.760002C16.317 -0.760002 12.6786 0.173838 9.5175 2.07051L10.5465 3.78549C13.3587 2.09816 16.6324 1.24 20.4 1.24V-0.760002ZM9.5266 2.06511C6.34999 3.9257 3.89556 6.68717 2.155 10.3022L3.957 11.1698C5.54444 7.87282 7.74068 5.42896 10.5374 3.79088L9.5266 2.06511ZM2.155 10.3022C0.407823 13.9309 -0.44 18.3777 -0.44 23.6H1.56C1.56 18.5823 2.37618 14.4531 3.957 11.1698L2.155 10.3022ZM46.6525 16.624H45.6525V17.8699L46.8689 17.6003L46.6525 16.624ZM58.4925 14H59.4925V12.7541L58.2761 13.0237L58.4925 14ZM58.4925 46H57.4925V47H58.4925V46ZM71.9325 46V47H72.9325V46H71.9325ZM71.9325 0.239998H72.9325V-0.961746L71.7508 -0.743351L71.9325 0.239998ZM46.6525 4.912L46.4708 3.92865L45.6525 4.07987V4.912H46.6525ZM46.8689 17.6003L58.7089 14.9763L58.2761 13.0237L46.4361 15.6477L46.8689 17.6003ZM57.4925 14V46H59.4925V14H57.4925ZM58.4925 47H71.9325V45H58.4925V47ZM72.9325 46V0.239998H70.9325V46H72.9325ZM71.7508 -0.743351L46.4708 3.92865L46.8342 5.89535L72.1142 1.22335L71.7508 -0.743351ZM45.6525 4.912V16.624H47.6525V4.912H45.6525Z" fill="#FCD702"/>
</svg>
