<svg width="80" height="47" viewBox="0 0 80 47" fill="none" xmlns="http://www.w3.org/2000/svg">
<path d="M11.568 17.904L12.5436 18.1235L12.5447 18.1184L11.568 17.904ZM13.232 13.488L14.0868 14.007L14.0908 14.0004L14.0947 13.9937L13.232 13.488ZM15.792 10.672L16.3383 11.5097L16.3467 11.504L15.792 10.672ZM22.512 10.672L21.9409 11.4929L21.9611 11.507L21.982 11.52L22.512 10.672ZM25.136 13.488L24.2733 13.9937L24.2772 14.0004L24.2812 14.007L25.136 13.488ZM26.8 17.904L25.8232 18.1184L25.8244 18.1235L26.8 17.904ZM26.8 29.36L27.7756 29.5795L27.7767 29.5744L26.8 29.36ZM25.136 33.776L25.9908 34.295L25.9948 34.2884L25.9987 34.2817L25.136 33.776ZM22.512 36.592L23.0583 37.4297L23.0667 37.424L22.512 36.592ZM15.792 36.592L15.2209 37.4129L15.2411 37.427L15.262 37.44L15.792 36.592ZM13.232 33.776L12.3693 34.2817L12.3732 34.2884L12.3772 34.295L13.232 33.776ZM11.568 29.36L10.5912 29.5744L10.5924 29.5795L11.568 29.36ZM2.864 36.08L1.95014 36.4862L1.9544 36.4955L2.864 36.08ZM9.456 44.08L8.90127 44.9121L8.91012 44.9179L9.456 44.08ZM29.104 44.08L29.6558 44.9141L29.6646 44.9081L29.104 44.08ZM35.504 36.08L34.5901 35.6738L34.586 35.6833L35.504 36.08ZM35.504 11.12L34.586 11.5167L34.5902 11.5261L35.504 11.12ZM29.104 3.184L28.5434 4.01215L28.5523 4.01802L29.104 3.184ZM9.456 3.184L10.0019 4.02191L10.0107 4.01605L9.456 3.184ZM2.864 11.12L1.95436 10.7045L1.95019 10.7139L2.864 11.12ZM11.992 23.6C11.992 21.5693 12.1786 19.7458 12.5436 18.1235L10.5924 17.6845C10.1894 19.4756 9.992 21.4493 9.992 23.6H11.992ZM12.5447 18.1184C12.9114 16.4479 13.4321 15.0853 14.0868 14.007L12.3772 12.969C11.5812 14.28 10.9926 15.8615 10.5913 17.6896L12.5447 18.1184ZM14.0947 13.9937C14.759 12.8606 15.5126 12.0481 16.3383 11.5096L15.2457 9.83439C14.1088 10.5759 13.1557 11.6408 12.3693 12.9823L14.0947 13.9937ZM16.3467 11.504C17.2055 10.9315 18.143 10.648 19.184 10.648V8.648C17.7504 8.648 16.4265 9.04714 15.2373 9.83995L16.3467 11.504ZM19.184 10.648C20.2248 10.648 21.1334 10.9311 21.9409 11.4929L23.0831 9.85109C21.928 9.04756 20.6179 8.648 19.184 8.648V10.648ZM21.982 11.52C22.8456 12.0597 23.6143 12.8696 24.2733 13.9937L25.9987 12.9823C25.207 11.6317 24.2264 10.5643 23.042 9.824L21.982 11.52ZM24.2812 14.007C24.9359 15.0853 25.4566 16.4479 25.8233 18.1184L27.7767 17.6896C27.3754 15.8615 26.7868 14.28 25.9908 12.969L24.2812 14.007ZM25.8244 18.1235C26.1894 19.7458 26.376 21.5693 26.376 23.6H28.376C28.376 21.4493 28.1786 19.4756 27.7756 17.6845L25.8244 18.1235ZM26.376 23.6C26.376 25.6302 26.1895 27.4772 25.8233 29.1456L27.7767 29.5744C28.1785 27.7441 28.376 25.7511 28.376 23.6H26.376ZM25.8244 29.1405C25.4583 30.7678 24.9365 32.139 24.2733 33.2703L25.9987 34.2817C26.7862 32.9383 27.3738 31.3655 27.7756 29.5795L25.8244 29.1405ZM24.2812 33.257C23.6215 34.3436 22.8441 35.1688 21.9573 35.7599L23.0667 37.424C24.2279 36.6499 25.1998 35.5977 25.9908 34.295L24.2812 33.257ZM21.9657 35.7544C21.1562 36.2823 20.2388 36.552 19.184 36.552V38.552C20.6039 38.552 21.9051 38.1817 23.0583 37.4296L21.9657 35.7544ZM19.184 36.552C18.1292 36.552 17.183 36.2821 16.322 35.744L15.262 37.44C16.449 38.1819 17.7641 38.552 19.184 38.552V36.552ZM16.3631 35.7711C15.5141 35.1805 14.7518 34.3523 14.0868 33.257L12.3772 34.295C13.1629 35.589 14.1072 36.6382 15.2209 37.4129L16.3631 35.7711ZM14.0947 33.2703C13.4315 32.139 12.9098 30.7678 12.5436 29.1405L10.5924 29.5795C10.9942 31.3655 11.5818 32.9383 12.3693 34.2817L14.0947 33.2703ZM12.5447 29.1456C12.1785 27.4772 11.992 25.6302 11.992 23.6H9.992C9.992 25.7511 10.1895 27.7441 10.5913 29.5744L12.5447 29.1456ZM-0.44 23.6C-0.44 28.5655 0.343585 32.8713 1.95019 36.4861L3.77781 35.6739C2.31242 32.3767 1.56 28.3625 1.56 23.6H-0.44ZM1.9544 36.4955C3.6006 40.0993 5.91216 42.9193 8.9013 44.912L10.0107 43.2479C7.36784 41.486 5.28474 38.9727 3.7736 35.6645L1.9544 36.4955ZM8.91012 44.9179C11.9034 46.868 15.3394 47.832 19.184 47.832V45.832C15.69 45.832 12.6406 44.9613 10.0019 43.2421L8.91012 44.9179ZM19.184 47.832C23.1891 47.832 26.6946 46.8729 29.6557 44.914L28.5523 43.246C25.9668 44.9564 22.859 45.832 19.184 45.832V47.832ZM29.6646 44.9081C32.6148 42.9111 34.8627 40.0852 36.422 36.4767L34.586 35.6833C33.1586 38.9868 31.1399 41.4943 28.5434 43.2519L29.6646 44.9081ZM36.4178 36.4861C38.0244 32.8713 38.808 28.5655 38.808 23.6H36.808C36.808 28.3625 36.0556 32.3767 34.5902 35.6739L36.4178 36.4861ZM38.808 23.6C38.808 18.6345 38.0244 14.3287 36.4178 10.7139L34.5902 11.5261C36.0556 14.8233 36.808 18.8375 36.808 23.6H38.808ZM36.422 10.7233C34.8621 7.11338 32.6118 4.3055 29.6557 2.34998L28.5523 4.01802C31.1429 5.73182 33.1592 8.21462 34.586 11.5167L36.422 10.7233ZM29.6646 2.35589C26.7024 0.350723 23.1936 -0.632004 19.184 -0.632004V1.368C22.8544 1.368 25.9589 2.2626 28.5434 4.01211L29.6646 2.35589ZM19.184 -0.632004C15.3346 -0.632004 11.8955 0.355843 8.9013 2.35195L10.0107 4.01605C12.6485 2.25748 15.6947 1.368 19.184 1.368V-0.632004ZM8.91012 2.34613C5.91526 4.29733 3.60126 7.09922 1.9544 10.7045L3.7736 11.5355C5.28407 8.22878 7.36474 5.74 10.0019 4.02186L8.91012 2.34613ZM1.95019 10.7139C0.343585 14.3287 -0.44 18.6345 -0.44 23.6H1.56C1.56 18.8375 2.31242 14.8233 3.77781 11.5261L1.95019 10.7139ZM41.655 46L40.9358 45.3052L39.2987 47H41.655V46ZM79.607 46V47H80.607V46H79.607ZM79.607 36.08H80.607V35.08H79.607V36.08ZM61.687 36.08L61.0198 35.3351L59.0718 37.08H61.687V36.08ZM72.119 26.736L71.4641 25.9803L71.4579 25.9857L71.4518 25.9911L72.119 26.736ZM76.791 21.232L77.6501 21.7438L77.6548 21.7359L76.791 21.232ZM77.495 9.456L78.4117 9.05641V9.05641L77.495 9.456ZM74.231 4.912L73.5239 5.61911L73.5346 5.62982L73.5456 5.6402L74.231 4.912ZM68.919 1.584L68.5476 2.51248L68.5557 2.5157L68.5638 2.51878L68.919 1.584ZM51.767 2.672L51.2606 1.80969L51.2545 1.81328L51.767 2.672ZM45.815 9.008L46.7094 9.45521L45.815 9.008ZM43.831 17.776H42.831V18.776H43.831V17.776ZM54.455 17.776V18.776H55.455V17.776H54.455ZM55.223 13.488L54.3105 13.0789L54.3045 13.0922L54.299 13.1056L55.223 13.488ZM57.591 10.608L57.0519 9.76573L57.0441 9.77076L57.0363 9.77595L57.591 10.608ZM63.927 10.096L63.5209 11.0098L63.5425 11.0194L63.5646 11.028L63.927 10.096ZM65.847 11.376L65.1122 12.0543L65.1258 12.069L65.1399 12.0831L65.847 11.376ZM66.999 13.168L66.0627 13.5191L66.999 13.168ZM66.679 18.608L65.7637 18.2053L65.7597 18.2143L65.7559 18.2234L66.679 18.608ZM64.695 21.744L63.9293 21.1008L63.9216 21.11L63.9141 21.1193L64.695 21.744ZM61.623 25.328L62.3422 26.0228L62.3539 26.0107L62.3651 25.9983L61.623 25.328ZM41.655 47H79.607V45H41.655V47ZM80.607 46V36.08H78.607V46H80.607ZM79.607 35.08H61.687V37.08H79.607V35.08ZM62.3542 36.8249L72.7862 27.4809L71.4518 25.9911L61.0198 35.3351L62.3542 36.8249ZM72.7739 27.4917C74.7675 25.764 76.3962 23.8486 77.6501 21.7438L75.9319 20.7202C74.7965 22.6261 73.3105 24.38 71.4641 25.9803L72.7739 27.4917ZM77.6548 21.7359C78.941 19.5309 79.583 17.1163 79.583 14.512H77.583C77.583 16.7717 77.0303 18.8371 75.9272 20.7281L77.6548 21.7359ZM79.583 14.512C79.583 12.6592 79.1884 10.8383 78.4117 9.05641L76.5783 9.85558C77.2522 11.4017 77.583 12.9515 77.583 14.512H79.583ZM78.4117 9.05641C77.6272 7.25673 76.4559 5.63279 74.9164 4.1838L73.5456 5.6402C74.9074 6.92187 75.9121 8.32726 76.5783 9.85558L78.4117 9.05641ZM74.9381 4.20489C73.4166 2.6834 71.5204 1.50276 69.2742 0.649216L68.5638 2.51878C70.5843 3.28657 72.2294 4.32459 73.5239 5.61911L74.9381 4.20489ZM69.2904 0.655523C67.0172 -0.25374 64.4339 -0.696003 61.559 -0.696003V1.304C64.2308 1.304 66.5541 1.71507 68.5476 2.51248L69.2904 0.655523ZM61.559 -0.696003C57.582 -0.696003 54.134 0.122139 51.2606 1.80971L52.2734 3.53428C54.776 2.06452 57.856 1.304 61.559 1.304V-0.696003ZM51.2545 1.81328C48.4524 3.48554 46.3323 5.7373 44.9206 8.56079L46.7094 9.45521C47.943 6.98804 49.791 5.01579 52.2795 3.53071L51.2545 1.81328ZM44.9206 8.56079C43.5229 11.3561 42.831 14.4337 42.831 17.776H44.831C44.831 14.7183 45.4618 11.9505 46.7094 9.45521L44.9206 8.56079ZM43.831 18.776H54.455V16.776H43.831V18.776ZM55.455 17.776C55.455 16.2589 55.6946 14.9638 56.147 13.8703L54.299 13.1056C53.7274 14.4869 53.455 16.0504 53.455 17.776H55.455ZM56.1355 13.8971C56.6212 12.8135 57.2942 12.0077 58.1457 11.44L57.0363 9.77595C55.8398 10.5736 54.9341 11.6878 54.3105 13.0789L56.1355 13.8971ZM58.1301 11.4503C59.0232 10.8787 60.0492 10.584 61.239 10.584V8.584C59.6982 8.584 58.2922 8.97199 57.0519 9.76573L58.1301 11.4503ZM61.239 10.584C62.153 10.584 62.9055 10.7363 63.5209 11.0098L64.3331 9.18218C63.4125 8.77303 62.373 8.584 61.239 8.584V10.584ZM63.5646 11.028C64.204 11.2767 64.7126 11.6214 65.1122 12.0543L66.5818 10.6977C65.9574 10.0213 65.1861 9.51267 64.2895 9.16399L63.5646 11.028ZM65.1399 12.0831C65.5502 12.4934 65.8564 12.9692 66.0627 13.5191L67.9353 12.8169C67.6296 12.0015 67.1678 11.2826 66.5541 10.6689L65.1399 12.0831ZM66.0627 13.5191C66.2794 14.0972 66.383 14.6612 66.383 15.216H68.383C68.383 14.4055 68.2306 13.6041 67.9353 12.8169L66.0627 13.5191ZM66.383 15.216C66.383 16.2756 66.1758 17.2688 65.7637 18.2053L67.5943 19.0107C68.1209 17.8139 68.383 16.5457 68.383 15.216H66.383ZM65.7559 18.2234C65.3768 19.1333 64.7759 20.0929 63.9293 21.1008L65.4607 22.3872C66.4061 21.2618 67.1279 20.1307 67.6021 18.9926L65.7559 18.2234ZM63.9141 21.1193C63.0763 22.1665 62.066 23.3457 60.8809 24.6577L62.3651 25.9983C63.5694 24.665 64.607 23.4548 65.4759 22.3687L63.9141 21.1193ZM60.9038 24.6332L40.9358 45.3052L42.3742 46.6948L62.3422 26.0228L60.9038 24.6332Z" fill="#FCD702"/>
</svg>
