<svg width="85" height="47" viewBox="0 0 85 47" fill="none" xmlns="http://www.w3.org/2000/svg">
<path d="M14.448 18.8L13.4746 18.571L13.4721 18.5817L13.4698 18.5925L14.448 18.8ZM15.792 15.152L14.9281 14.6481L14.9214 14.6599L15.792 15.152ZM17.84 12.848L18.3947 13.68H18.3947L17.84 12.848ZM22.96 12.848L22.4053 13.68H22.4053L22.96 12.848ZM24.944 15.152L24.0647 15.6283L24.0767 15.6504L24.0898 15.6719L24.944 15.152ZM26.288 18.8L25.3085 19.0017L25.3121 19.0187L25.3162 19.0356L26.288 18.8ZM26.288 28.464L25.3146 28.235L25.3121 28.2457L25.3098 28.2565L26.288 28.464ZM24.944 32.112L24.0801 31.6081L24.0734 31.6199L24.944 32.112ZM22.96 34.352L22.4053 33.5199L22.4053 33.52L22.96 34.352ZM17.84 34.352L17.2853 35.184L17.84 34.352ZM15.792 32.112L14.9127 32.5883L14.9247 32.6104L14.9378 32.6319L15.792 32.112ZM14.448 28.464L13.4685 28.6657L13.4721 28.6827L13.4761 28.6996L14.448 28.464ZM3.056 36.464L2.155 36.8978L3.056 36.464ZM10.032 44.336L9.51748 45.1935L9.5266 45.1989L10.032 44.336ZM31.024 44.336L31.5348 45.1957L31.5385 45.1935L31.024 44.336ZM37.872 10.736L36.9624 11.1515L37.872 10.736ZM31.024 2.928L30.5041 3.7822L30.5113 3.7866L30.5186 3.79088L31.024 2.928ZM10.032 2.928L10.5374 3.79093L10.5465 3.78549L10.032 2.928ZM3.056 10.736L3.957 11.1698H3.957L3.056 10.736ZM15 23.6C15 21.8616 15.1451 20.3331 15.4262 19.0075L13.4698 18.5925C13.1536 20.0829 13 21.7544 13 23.6H15ZM15.4214 19.029C15.7476 17.6427 16.1667 16.5214 16.6626 15.6441L14.9214 14.6599C14.308 15.7452 13.8311 17.0559 13.4746 18.571L15.4214 19.029ZM16.6558 15.6559C17.1975 14.7272 17.7841 14.0871 18.3947 13.68L17.2853 12.0159C16.3599 12.6329 15.5812 13.5288 14.9282 14.6481L16.6558 15.6559ZM18.3947 13.68C18.9955 13.2795 19.6552 13.08 20.4 13.08V11.08C19.2675 11.08 18.2205 11.3925 17.2853 12.0159L18.3947 13.68ZM20.4 13.08C21.1448 13.08 21.8045 13.2795 22.4053 13.68L23.5147 12.0159C22.5795 11.3925 21.5325 11.08 20.4 11.08V13.08ZM22.4053 13.68C23.0068 14.0811 23.5678 14.7109 24.0647 15.6283L25.8233 14.6757C25.2109 13.5451 24.4492 12.6389 23.5147 12.0159L22.4053 13.68ZM24.0898 15.6719C24.613 16.5314 25.0267 17.6326 25.3085 19.0017L27.2675 18.5983C26.952 17.0661 26.4697 15.7352 25.7982 14.6321L24.0898 15.6719ZM25.3162 19.0356C25.635 20.3508 25.8 21.8695 25.8 23.6H27.8C27.8 21.7465 27.6237 20.0652 27.2599 18.5644L25.3162 19.0356ZM25.8 23.6C25.8 25.3299 25.6351 26.8727 25.3146 28.235L27.2614 28.693C27.6235 27.154 27.8 25.4541 27.8 23.6H25.8ZM25.3098 28.2565C25.0286 29.5818 24.6138 30.6935 24.0802 31.6081L25.8078 32.6159C26.4689 31.4825 26.95 30.1622 27.2662 28.6715L25.3098 28.2565ZM24.0734 31.6199C23.5791 32.4945 23.0171 33.1121 22.4053 33.5199L23.5147 35.1841C24.4389 34.5679 25.1995 33.6922 25.8146 32.6041L24.0734 31.6199ZM22.4053 33.52C21.8045 33.9205 21.1448 34.12 20.4 34.12V36.12C21.5325 36.12 22.5795 35.8075 23.5147 35.184L22.4053 33.52ZM20.4 34.12C19.6552 34.12 18.9955 33.9205 18.3947 33.52L17.2853 35.184C18.2205 35.8075 19.2675 36.12 20.4 36.12V34.12ZM18.3947 33.52C17.774 33.1062 17.1857 32.4784 16.6462 31.5921L14.9378 32.6319C15.5929 33.7082 16.37 34.5738 17.2853 35.184L18.3947 33.52ZM16.6713 31.6357C16.1663 30.7034 15.7456 29.572 15.4198 28.2284L13.4761 28.6996C13.8331 30.172 14.3084 31.4726 14.9127 32.5883L16.6713 31.6357ZM15.4275 28.2623C15.1449 26.8901 15 25.3378 15 23.6H13C13 25.4462 13.1537 27.1365 13.4685 28.6657L15.4275 28.2623ZM-0.44 23.6C-0.44 28.8223 0.407823 33.2691 2.155 36.8978L3.957 36.0302C2.37618 32.7469 1.56 28.6177 1.56 23.6H-0.44ZM2.155 36.8978C3.89479 40.5112 6.3466 43.291 9.5175 45.1935L10.5465 43.4785C7.74406 41.797 5.54521 39.3288 3.957 36.0302L2.155 36.8978ZM9.5266 45.1989C12.6862 47.0495 16.3213 47.96 20.4 47.96V45.96C16.628 45.96 13.3511 45.1211 10.5374 43.4731L9.5266 45.1989ZM20.4 47.96C24.6809 47.96 28.4069 47.0543 31.5348 45.1957L30.5132 43.4763C27.7531 45.1164 24.3964 45.96 20.4 45.96V47.96ZM31.5385 45.1935C34.7143 43.288 37.1269 40.5019 38.7816 36.8795L36.9624 36.0485C35.4597 39.3381 33.307 41.8 30.5095 43.4785L31.5385 45.1935ZM38.7816 36.8795C40.4367 33.2561 41.24 28.8162 41.24 23.6H39.24C39.24 28.6238 38.4646 32.7599 36.9624 36.0485L38.7816 36.8795ZM41.24 23.6C41.24 18.3838 40.4367 13.9439 38.7816 10.3205L36.9624 11.1515C38.4646 14.4401 39.24 18.5762 39.24 23.6H41.24ZM38.7816 10.3205C37.1262 6.69651 34.711 3.92861 31.5294 2.06511L30.5186 3.79088C33.3104 5.42605 35.4605 7.86349 36.9624 11.1515L38.7816 10.3205ZM31.5439 2.0738C28.4144 0.168859 24.685 -0.760002 20.4 -0.760002V1.24C24.3923 1.24 27.7456 2.10314 30.5041 3.7822L31.5439 2.0738ZM20.4 -0.760002C16.317 -0.760002 12.6786 0.173838 9.5175 2.07051L10.5465 3.78549C13.3587 2.09816 16.6324 1.24 20.4 1.24V-0.760002ZM9.5266 2.06511C6.34999 3.9257 3.89556 6.68717 2.155 10.3022L3.957 11.1698C5.54444 7.87282 7.74068 5.42896 10.5374 3.79088L9.5266 2.06511ZM2.155 10.3022C0.407823 13.9309 -0.44 18.3777 -0.44 23.6H1.56C1.56 18.5823 2.37618 14.4531 3.957 11.1698L2.155 10.3022ZM82.6205 23.92L83.4628 23.3809L82.6205 23.92ZM77.4365 19.12L76.982 20.0108L77.4365 19.12ZM66.3645 17.84L66.4848 18.8327L66.4974 18.8312L66.51 18.8294L66.3645 17.84ZM62.3965 18.992L61.4673 18.6224L60.518 21.0093L62.8313 19.8926L62.3965 18.992ZM64.6365 13.36V12.36H63.958L63.7073 12.9904L64.6365 13.36ZM83.2605 13.36V14.36H84.2605V13.36H83.2605ZM83.2605 1.2H84.2605V0.199997H83.2605V1.2ZM54.4605 1.2V0.199997H53.6712L53.4878 0.967754L54.4605 1.2ZM47.9965 28.272L47.0238 28.0398L46.5807 29.8955L48.3589 29.204L47.9965 28.272ZM52.7965 26.928L52.6198 25.9437L52.7965 26.928ZM57.5325 26.352L57.5896 27.3504L57.6026 27.3496L57.6155 27.3485L57.5325 26.352ZM64.8925 26.48L64.7167 27.4644L64.7338 27.4675L64.7511 27.4699L64.8925 26.48ZM67.9005 27.568L67.3358 28.3933L67.351 28.4037L67.3665 28.4135L67.9005 27.568ZM68.1565 32.56L68.8388 33.2911L68.8514 33.2793L68.8636 33.2671L68.1565 32.56ZM65.4685 33.84L65.6506 34.8233L65.6681 34.82L65.6854 34.8162L65.4685 33.84ZM58.3645 33.904L58.1887 34.8884L58.2058 34.8915L58.2231 34.8939L58.3645 33.904ZM54.3965 32.88L54.0803 33.8287L54.0887 33.8314L54.3965 32.88ZM49.9805 30.896L50.4661 30.0218L49.3994 29.4292L49.028 30.5916L49.9805 30.896ZM46.0125 43.312L45.06 43.0076L44.7752 43.8987L45.6453 44.2422L46.0125 43.312ZM51.2605 45.104L50.9771 46.063L50.983 46.0647L51.2605 45.104ZM57.5965 46.448L57.45 47.4372L57.5965 46.448ZM71.8045 46.128L71.5704 45.1558L71.5663 45.1568L71.8045 46.128ZM78.1405 43.504L77.6205 42.6498L77.6122 42.6549L78.1405 43.504ZM85.6685 31.92C85.6685 28.579 84.9551 25.7127 83.4628 23.3809L81.7782 24.4591C83.0166 26.394 83.6685 28.861 83.6685 31.92H85.6685ZM83.4628 23.3809C82.0095 21.1103 80.1523 19.383 77.891 18.2292L76.982 20.0108C78.902 20.9904 80.5008 22.4631 81.7782 24.4591L83.4628 23.3809ZM77.891 18.2292C75.6651 17.0936 73.3339 16.52 70.9085 16.52V18.52C73.0058 18.52 75.0266 19.0131 76.982 20.0108L77.891 18.2292ZM70.9085 16.52C69.2848 16.52 67.7214 16.6297 66.219 16.8506L66.51 18.8294C67.909 18.6236 69.3748 18.52 70.9085 18.52V16.52ZM66.2442 16.8473C64.7306 17.0307 63.3013 17.4448 61.9618 18.0914L62.8313 19.8926C63.9664 19.3446 65.1824 18.9906 66.4848 18.8327L66.2442 16.8473ZM63.3257 19.3616L65.5657 13.7296L63.7073 12.9904L61.4673 18.6224L63.3257 19.3616ZM64.6365 14.36H83.2605V12.36H64.6365V14.36ZM84.2605 13.36V1.2H82.2605V13.36H84.2605ZM83.2605 0.199997H54.4605V2.2H83.2605V0.199997ZM53.4878 0.967754L47.0238 28.0398L48.9692 28.5042L55.4332 1.43224L53.4878 0.967754ZM48.3589 29.204C49.8333 28.6306 51.371 28.1998 52.9732 27.9123L52.6198 25.9437C50.894 26.2535 49.2317 26.7187 47.6341 27.34L48.3589 29.204ZM52.9732 27.9123C54.6026 27.6198 56.1411 27.4331 57.5896 27.3504L57.4754 25.3536C55.9372 25.4415 54.3184 25.6389 52.6198 25.9437L52.9732 27.9123ZM57.6155 27.3485C59.1376 27.2217 60.3658 27.16 61.3085 27.16V25.16C60.2885 25.16 58.9994 25.2263 57.4495 25.3555L57.6155 27.3485ZM61.3085 27.16C62.4433 27.16 63.5791 27.2613 64.7167 27.4644L65.0683 25.4956C63.8165 25.272 62.563 25.16 61.3085 25.16V27.16ZM64.7511 27.4699C65.828 27.6238 66.6774 27.9428 67.3358 28.3933L68.4652 26.7427C67.5023 26.0839 66.3464 25.6775 65.0339 25.4901L64.7511 27.4699ZM67.3665 28.4135C67.8374 28.7109 68.1165 29.1705 68.1165 30H70.1165C70.1165 28.6108 69.585 27.4491 68.4345 26.7225L67.3665 28.4135ZM68.1165 30C68.1165 30.8524 67.8687 31.4336 67.4494 31.8529L68.8636 33.2671C69.7243 32.4064 70.1165 31.2809 70.1165 30H68.1165ZM67.4742 31.8289C67.0024 32.2693 66.2878 32.6335 65.2516 32.8638L65.6854 34.8162C66.9532 34.5345 68.0306 34.0454 68.8388 33.2911L67.4742 31.8289ZM65.2864 32.8567C64.2124 33.0556 62.8901 33.16 61.3085 33.16V35.16C62.9695 35.16 64.4206 35.0511 65.6506 34.8233L65.2864 32.8567ZM61.3085 33.16C60.6066 33.16 59.677 33.0813 58.5059 32.9141L58.2231 34.8939C59.4414 35.068 60.4744 35.16 61.3085 35.16V33.16ZM58.5403 32.9196C57.3999 32.7159 56.1222 32.3873 54.7043 31.9286L54.0887 33.8314C55.5721 34.3114 56.9397 34.6654 58.1887 34.8884L58.5403 32.9196ZM54.7127 31.9313C53.3729 31.4847 51.9576 30.8505 50.4661 30.0218L49.4949 31.7702C51.0754 32.6482 52.6041 33.3366 54.0803 33.8287L54.7127 31.9313ZM49.028 30.5916L45.06 43.0076L46.965 43.6164L50.933 31.2004L49.028 30.5916ZM45.6453 44.2422C47.2973 44.8942 49.0749 45.501 50.9772 46.063L51.5438 44.145C49.6915 43.5977 47.9704 43.0098 46.3797 42.3818L45.6453 44.2422ZM50.983 46.0647C52.9523 46.6336 55.1087 47.0904 57.45 47.4372L57.743 45.4588C55.4763 45.123 53.4087 44.6837 51.538 44.1433L50.983 46.0647ZM57.45 47.4372C59.8099 47.7868 62.3769 47.96 65.1485 47.96V45.96C62.4588 45.96 59.9911 45.7918 57.743 45.4588L57.45 47.4372ZM65.1485 47.96C67.4102 47.96 69.7088 47.6717 72.0427 47.0992L71.5663 45.1568C69.3775 45.6937 67.2388 45.96 65.1485 45.96V47.96ZM72.0386 47.1002C74.4416 46.5217 76.6537 45.6069 78.6688 44.3531L77.6122 42.6549C75.7874 43.7904 73.7754 44.6249 71.5704 45.1558L72.0386 47.1002ZM78.6604 44.3582C80.7546 43.0835 82.4468 41.4154 83.7256 39.3603L82.0274 38.3037C80.9168 40.0886 79.4518 41.5352 77.6206 42.6498L78.6604 44.3582ZM83.7256 39.3603C85.0361 37.254 85.6685 34.7591 85.6685 31.92H83.6685C83.6685 34.4569 83.1062 36.57 82.0274 38.3037L83.7256 39.3603Z" fill="#FCD702"/>
</svg>
