<svg width="859" height="36" viewBox="0 0 859 36" fill="none" xmlns="http://www.w3.org/2000/svg">
<path d="M31.32 24.32H10.64V17.24L31.32 20.72V24.32ZM10.64 10.96V7.68H31.32V9.84L41.76 10.92V2H0.2V30H41.76V16.2L10.64 10.96ZM105.009 30V2H94.5688V30H105.009ZM79.2888 24.32H58.6088V17.28L79.2888 20.76V24.32ZM58.6088 11V2H48.1688V30H89.7288V16.24L58.6088 11ZM109.011 2V13.2L119.451 11.76V7.68H126.171V30H136.611V7.68H143.331V11.76L153.771 13.2V2H109.011ZM188.898 24.32H168.218V17.28L188.898 20.76V24.32ZM168.218 11V2H157.778V30H199.338V16.24L168.218 11ZM258.73 30V13.4L268.45 10.64V30H278.89V0.879998L253.53 8.36L228.13 0.879998V30H238.57V10.64L248.29 13.4V30H258.73ZM316.398 24.32H295.718V7.68H316.398V24.32ZM326.838 2H285.278V30H326.838V2ZM330.847 2V13.2L341.287 11.76V7.68H348.007V30H358.447V7.68H365.167V11.76L375.607 13.2V2H330.847ZM410.734 24.32H390.054V7.68H410.734V24.32ZM421.174 2H379.614V30H421.174V2ZM469.143 24.36V2H458.703V24.36H438.023V2H427.583V30H465.503V35.04H475.943V24.36H469.143ZM510.265 2V7.6L489.585 17.6V2H479.145V30H489.585V25.08L510.265 15.08V30H520.705V2H510.265ZM561.754 24L552.314 16.2L568.434 11.84V2H557.994V7.48L537.554 13V2H527.114V30H537.554V20.16L542.394 18.84L555.554 30H568.674V24H561.754ZM591.272 7.68H594.872L604.632 30H615.432L603.272 2H575.472V7.68H580.432L570.672 30H581.512L591.272 7.68ZM649.758 2V7.6L629.078 17.6V2H618.638V30H629.078V25.08L649.758 15.08V30H660.198V2H649.758ZM697.726 21.12V24.32H677.046V7.68H697.726V10.88L708.166 12.32V2H666.606V30H708.166V19.68L697.726 21.12ZM711.355 2V13.2L721.795 11.76V7.68H728.515V30H738.955V7.68H745.675V11.76L756.115 13.2V2H711.355ZM791.242 24.32H770.562V7.68H791.242V24.32ZM801.682 2H760.122V30H801.682V2ZM838.691 30V13.4L848.411 10.64V30H858.851V0.879998L833.491 8.36L808.091 0.879998V30H818.531V10.64L828.251 13.4V30H838.691Z" fill="#E3E3E3"/>
</svg>
