<svg width="1342" height="95" viewBox="0 0 1342 95" fill="none" xmlns="http://www.w3.org/2000/svg">
<path d="M86.38 65.38H29.51V45.91L86.38 55.48V65.38ZM29.51 28.64V19.62H86.38V25.56L115.09 28.53V3.99999H0.800001V81H115.09V43.05L29.51 28.64ZM289.024 81V3.99999H260.314V81H289.024ZM218.294 65.38H161.424V46.02L218.294 55.59V65.38ZM161.424 28.75V3.99999H132.714V81H247.004V43.16L161.424 28.75ZM300.03 3.99999V34.8L328.74 30.84V19.62H347.22V81H375.93V19.62H394.41V30.84L423.12 34.8V3.99999H300.03ZM519.72 65.38H462.85V46.02L519.72 55.59V65.38ZM462.85 28.75V3.99999H434.14V81H548.43V43.16L462.85 28.75ZM711.757 81V35.35L738.487 27.76V81H767.197V0.919995L697.457 21.49L627.607 0.919995V81H656.317V27.76L683.047 35.35V81H711.757ZM870.345 65.38H813.475V19.62H870.345V65.38ZM899.055 3.99999H784.765V81H899.055V3.99999ZM910.079 3.99999V34.8L938.789 30.84V19.62H957.269V81H985.979V19.62H1004.46V30.84L1033.17 34.8V3.99999H910.079ZM1129.77 65.38H1072.9V19.62H1129.77V65.38ZM1158.48 3.99999H1044.19V81H1158.48V3.99999ZM1290.39 65.49V3.99999H1261.68V65.49H1204.81V3.99999H1176.1V81H1280.38V94.86H1309.09V65.49H1290.39ZM1403.48 3.99999V19.4L1346.61 46.9V3.99999H1317.9V81H1346.61V67.47L1403.48 39.97V81H1432.19V3.99999H1403.48ZM1545.07 64.5L1519.11 43.05L1563.44 31.06V3.99999H1534.73V19.07L1478.52 34.25V3.99999H1449.81V81H1478.52V53.94L1491.83 50.31L1528.02 81H1564.1V64.5H1545.07ZM1626.25 19.62H1636.15L1662.99 81H1692.69L1659.25 3.99999H1582.8V19.62H1596.44L1569.6 81H1599.41L1626.25 19.62ZM1787.08 3.99999V19.4L1730.21 46.9V3.99999H1701.5V81H1730.21V67.47L1787.08 39.97V81H1815.79V3.99999H1787.08ZM1919 56.58V65.38H1862.13V19.62H1919V28.42L1947.71 32.38V3.99999H1833.42V81H1947.71V52.62L1919 56.58ZM1956.48 3.99999V34.8L1985.19 30.84V19.62H2003.67V81H2032.38V19.62H2050.86V30.84L2079.57 34.8V3.99999H1956.48ZM2176.17 65.38H2119.3V19.62H2176.17V65.38ZM2204.88 3.99999H2090.59V81H2204.88V3.99999ZM2306.65 81V35.35L2333.38 27.76V81H2362.09V0.919995L2292.35 21.49L2222.5 0.919995V81H2251.21V27.76L2277.94 35.35V81H2306.65Z" fill="#191919"/>
</svg>
